<svg version="1.2" xmlns="http://www.w3.org/2000/svg" viewBox="0 0 528 524" width="528" height="524">
	<title>6-citocinesis</title>
	<style>
		.s0 { fill: #f5f1ee } 
		.s1 { fill: #efb1a5 } 
		.s2 { fill: #efc2b9 } 
		.s3 { fill: #20211b } 
		.s4 { fill: #df544e } 
	</style>
	<g id="l61UnxgVquIsuVAGlp4jzY2">
		<g>
			<path id="pzQgkPmBA" class="s0" d="m367 347c0-3.9 0.1-4 3.5-4 3.4 0 3.5 0.1 3.5 4 0 3.9-0.1 4-3.5 4-3.4 0-3.5-0.1-3.5-4z"/>
			<path id="pMhMDB8Cm" class="s0" d="m358.5 318c-0.3-0.5-1.4-1-2.5-1-2.1 0-3-1.9-3-6.7v-3.6l5.5 0.6c3 0.3 5.9 0.8 6.5 1.2 0.5 0.3 1 2.8 1 5.6v4.9h-3.4c-1.9 0-3.8-0.4-4.1-1z"/>
			<path id="p417eQbXi" class="s0" d="m348.3 304.3c-2-0.3-3.3-1-3.3-1.9 0-0.8-0.4-1.4-1-1.4-0.5 0-1-1.6-1-3.5 0-3.3 0.2-3.5 3.5-3.5 1.9 0 3.5 0.5 3.5 1 0 0.6 0.9 1 2 1 1.1 0 2 0.5 2 1 0 0.6 0.9 1 2 1 1.6 0 2 0.7 2 3.5 0 3.8-0.5 3.9-9.7 2.8z"/>
			<path id="p4n3uYTpU" class="s0" d="m332.8 299.6c-3.5-2.6-2-9.6 2.1-9.6 6.1 0 7.1 0.9 7.1 6.1v4.9h-3.7c-2.1 0-4.6-0.7-5.5-1.4z"/>
			<path id="p6tVpgNFD" class="s0" d="m387 279.5c0-4.5 0-4.5 3.5-4.5 3.5 0 3.5 0 3.5 4.5 0 4.5 0 4.5-3.5 4.5-3.5 0-3.5 0-3.5-4.5z"/>
			<path id="p13JmWvONJ" class="s0" d="m398 274c0-1.1-0.7-2-1.5-2-1.1 0-1.5-1.1-1.5-4v-4h4c3.6 0 4 0.3 4 2.5 0 1.4 0.5 2.5 1 2.5 0.6 0 1 1.6 1 3.5 0 3.3-0.2 3.5-3.5 3.5-2.8 0-3.5-0.4-3.5-2z"/>
			<path id="ppPADUaTM" class="s0" d="m113 264.1c0-4.9 1.7-6.3 7.2-5.9l4.3 0.3 0.3 4.8 0.3 4.7h-6-6.1z"/>
			<path id="pd8GLZYx7" class="s0" d="m394 247.8c0-4.4 1.5-5.8 6.3-5.8h3.8l-0.3 4.3-0.3 4.2-4.7 0.3-4.8 0.3z"/>
			<path id="psE2OapIa" class="s0" d="m310.3 247.4c-0.8-0.4-1.3-2.6-1.3-6v-5.4h4.5c3.9 0 4.5 0.3 5.1 2.4 0.3 1.3 0.4 3.8 0.2 5.7-0.3 3.1-0.6 3.4-3.8 3.6-1.9 0.1-4.1 0-4.7-0.3z"/>
			<path id="pAt67N1O7" class="s0" d="m106 237.5c0-3.3 0.2-3.5 3.5-3.5 3.3 0 3.5 0.2 3.5 3.5 0 3.3-0.2 3.5-3.5 3.5-3.3 0-3.5-0.2-3.5-3.5z"/>
			<path id="p4KZrF09z" class="s0" d="m319 231.5c0-3.3 0.2-3.5 3.5-3.5 3.3 0 3.5 0.2 3.5 3.5 0 3.3-0.2 3.5-3.5 3.5-3.3 0-3.5-0.2-3.5-3.5z"/>
			<path id="pbwb6Mk9O" class="s0" d="m169.4 213.6c-0.3-0.8-0.4-2.7-0.2-4.3 0.3-2.7 0.5-2.8 7.1-3.1l6.7-0.3v3.6c0 3-0.3 3.5-2.4 3.5-1.4 0-2.8 0.5-3.1 1-1 1.5-7.5 1.2-8.1-0.4z"/>
		</g>
	</g>
	<g id="l6wqRKw9PztXZpGId7mxSzh">
		<g>
			<path id="pZaMPmpP7" class="s1" d="m247 486.9c-18.7-0.9-39.3-5.6-65.4-14.9-34.3-12.2-67.6-35.6-92.5-64.8-12.2-14.4-14.6-17.8-25.8-36.7-20.1-34-29.8-69.6-29.8-109 0.1-26 3.7-48 12-72 2-5.7 3.4-10.9 3-11.5-0.3-0.5 0.1-1 0.9-1 0.9 0 1.6-0.5 1.6-1.1 0-1 4-11.1 5.9-14.9 0.7-1.3 3.4-6 13.2-22.9 0.8-1.4 2.2-3.4 3.1-4.5 1-1.1 2.4-3.2 3-4.8 0.7-1.5 1.6-2.8 1.9-2.8 0.9 0 9.9-11.8 9.9-13 0-0.5 0.9-1.4 2-2 1.1-0.6 1.9-1.9 1.8-2.8-0.2-1 0.5-1.8 1.7-2 1.8-0.4 3.9-2.7 4-4.2 0-1.3 10.5-11 11.8-11 0.8 0 2.7-1.6 4.1-3.5 1.5-1.9 3.4-3.5 4.1-3.5 0.8 0 2-0.9 2.7-2 0.7-1.1 1.8-2 2.5-2 0.7 0 2-1.1 2.9-2.5 0.9-1.4 2.4-2.5 3.3-2.5 0.9 0 4.2-1.9 7.3-4.2 9.2-6.9 29.1-17.7 42.2-23 6.7-2.7 13.1-5.6 14.4-6.4 1.2-0.8 2.7-1.2 3.1-0.9 0.5 0.3 1.6-0.2 2.5-1.1 0.9-0.8 2.4-1.3 3.3-1 1 0.3 4-0.1 6.8-0.9 2.7-0.9 7.9-2 11.5-2.5 9.3-1.5 16-3.2 16-4.3 0-0.5 1.8-0.6 4-0.2 2.1 0.4 4.4 0.4 4.9 0 1.2-0.7 32.6-0.9 33.8-0.2 0.4 0.3 4.9 0.8 9.8 1.2 10.8 0.9 12.5 1.1 14.5 1.7 3.5 1.2 15.8 3.9 16.6 3.7 0.5-0.1 2.3 0.3 3.9 1 1.7 0.7 3.9 1.4 5 1.5 1.2 0.1 2.5 0.5 3.1 0.8 1.4 0.9 12.6 4.6 14.9 5 1.1 0.2 2.2 0.5 2.5 0.8 0.3 0.3 5.8 3 12.3 6 6.5 2.9 15.7 7.6 20.4 10.4 4.7 2.8 9.9 5.9 11.7 7 1.7 1 7.4 5.3 12.5 9.5 23.3 18.8 42.9 41.7 56.9 66.3 18.6 32.9 28.3 66.9 29.8 103.8 1.8 42.9-9.7 88.4-31.3 124.9-12.7 21.2-33.9 46.1-51.5 60.4-11.1 9-34.2 23.9-46.9 30.2-14 7.1-38.3 15.6-52.4 18.5-3.3 0.6-7.8 1.6-10 2-3.9 0.9-29.3 2.7-36.5 2.6-1.9 0-9.6-0.3-17-0.7zm-88.8-129.9c0.5-1.5 9.9-2.5 10.7-1.2 0.5 0.8 1.5 0.7 3.5-0.3 1.6-0.8 3.9-1.5 5.2-1.5 1.3 0 2.4-0.4 2.4-0.9 0-0.5 1.5-1.3 3.3-1.7 1.7-0.3 6.4-2.2 10.2-4 3.9-1.8 8.3-3.6 9.9-3.9 1.6-0.3 3-1.4 3.3-2.5 0.5-1.8 8.6-8 10.5-8 0.4 0 0.8-0.6 0.8-1.4 0-0.8 1.1-1.7 2.5-2 1.6-0.4 2.5-1.3 2.5-2.6 0-1.1 1.2-2.4 2.8-3.2 1.5-0.8 2.8-2.3 3-3.6 0.2-1.3 1-2.6 1.8-2.9 0.8-0.3 1.4-1.1 1.4-1.9 0-0.8 0.5-1.4 1-1.4 0.6 0 1-0.9 1-2 0-1.1 0.6-2 1.3-2 1.7 0 6.3-7.8 10.5-18 1.6-3.9 2.6-10.1 2.3-14.6-0.2-3 0.2-4.3 1.3-4.7 1.1-0.4 1.6-1.9 1.6-4.6 0-6.8 0.3-7.1 8.9-7.1 4.2 0 8.1 0.4 8.6 0.8 1.2 0.8 3.5 7.9 3.5 10.8 0 1.1 1.1 5.3 2.4 9.4 1.7 5.4 2.9 7.6 4.2 7.9 1.1 0.2 2.2 0.8 2.6 1.5 1.1 1.7 0.9 7.4-0.2 7.8-2 0.6 7.2 15.6 14.3 23.3 2.6 2.8 4.7 6.2 4.7 7.3 0 1.7 0.6 2.2 2.4 2.2 1.4 0 3.7 1.1 5.3 2.4 1.6 1.4 4.5 2.6 6.4 2.8 2.8 0.2 3.5 0.7 3.7 2.9 0.3 2.2 1.7 3.4 8.9 6.9 4.7 2.4 10.2 4.7 12.2 5.1 2 0.4 6.8 1.6 10.6 2.6 7.4 1.9 21.9 2.3 29 0.9 4.9-1 9.5-2.8 9.5-3.8 0-0.5 2.3-0.8 5.1-0.8 4.2 0 5.2-0.3 5.6-2 0.3-1.3 1.4-2 2.8-2 2.7 0 8.5-3.3 12.7-7.2 1.6-1.6 3.6-2.8 4.4-2.8 0.8 0 1.4-0.5 1.4-1.1 0-1.4 2.6-3.9 4.1-3.9 0.6 0 2.1-1 3.3-2.2 1.2-1.3 3.3-3.2 4.7-4.4 2.1-1.8 7.7-8.9 10.4-13.3 0.5-0.9 2.5-4.1 4.5-7.1 3.9-6 8.2-17.8 10.2-28 1-4.8 1.1-10.1 0.5-20.5-0.4-7.7-0.9-16.7-1.1-20-0.3-7.3-0.8-9.3-5-18.8-0.9-2.1-1.6-4.4-1.6-5.1 0-0.7-0.9-2.1-2-3.1-1.1-1-2-2.3-2-2.8 0-2.4-8-13.4-15.4-21.1-2.1-2.3-4.5-5-5.2-6.1-0.7-1.1-3.5-3.1-6.1-4.5-2.6-1.4-5.2-2.8-5.8-3.3-0.5-0.4-2.7-2.1-4.9-3.7-2.1-1.7-4.4-3-5.1-3-0.7 0-1.8-0.7-2.5-1.5-0.7-0.8-2.1-1.5-3.1-1.5-1.1 0-2.7-0.4-3.7-0.9-9.7-5.3-40-7.6-48.2-3.6-1.4 0.7-4.7 1.7-7.4 2.4-5.5 1.3-19.2 7.8-22.2 10.4-1 1-3.6 3.1-5.6 4.8-2.8 2.3-3.8 3.9-3.8 6 0 2.2-0.5 2.9-1.9 2.9-1.3 0-2.1 0.8-2.3 2.3-0.2 1.5-1.1 2.3-2.9 2.5-3.4 0.4-15.9 13-15.9 16 0 0.6-0.5 2.3-1.1 3.9-0.6 1.5-1.2 5.3-1.3 8.4-0.1 3.8-0.6 6.1-1.8 7.3-1 1-1.8 3.1-1.8 4.7 0 2.5-0.4 2.9-2.9 2.9-3.2 0-3.3 0.4-4.4 16-0.2 3.4-0.4 3.5-5.4 4.4-2.8 0.5-7.6 0.5-10.7 0.2l-5.6-0.7-0.2-5.2c-0.1-2.9-0.3-7.4-0.4-10-0.1-4.7-2-12.2-3.6-14.3-0.5-0.7-1.2-3.1-1.6-5.5-0.6-3.5-1.2-4.5-3-4.7-1.4-0.2-2.2-1-2.2-2.4 0-3.5-3.4-12-5.7-14.4-1.3-1.3-2.3-2.9-2.4-3.6 0-0.7-4.6-5.5-10.2-10.6-9.9-9-22.6-17.7-27.7-18.9-1.4-0.3-3.5-1.2-4.7-1.9-4.3-2.7-14.9-4.5-29.3-5.1-13-0.5-15-0.4-19 1.4-2.5 1.1-7.6 2.9-11.3 4.2-8.8 2.8-22.3 12-30.4 20.5-3.5 3.6-6.7 6.6-7.2 6.6-1.3 0-8.3 9.6-12.3 17-4.3 7.7-10.4 23-11.3 28.3-0.6 3-0.4 3.7 0.9 3.7 1.1 0 1.6 0.9 1.6 3.3 0 1.9-0.3 3.7-0.7 4-0.4 0.4-0.5 3.2-0.4 6.2 0.2 5 0 5.5-1.8 5.5-2.3 0-2.6 1.6-1.5 8.3 0.5 2.6 1.2 3.7 2.4 3.7 1.4 0 1.9 1.2 2.4 5.3 0.3 2.8 0.9 6.9 1.2 9.1 0.4 2.5 0.2 4.1-0.6 4.6-0.9 0.5-0.9 1.3-0.1 2.9 0.6 1.1 1.6 3 2.1 4.1 0.6 1.1 1 2.7 1 3.5 0 0.8 0.5 1.5 1 1.5 0.6 0 1 0.7 1 1.6 0 0.8 2.3 5.1 5.1 9.5 3.6 5.6 5.7 7.9 7.1 7.9 2.5 0 4.7 2.7 4.8 5.7 0 2.5 6.6 9.8 9.8 10.7 1.2 0.4 2.2 1.3 2.3 1.9 0 1.9 9.4 8.6 16.2 11.6 15.3 6.9 36.9 12 37.9 9.1z"/>
			<path id="p11wQPHrdI" class="s1" d="m158.2 254.4c0.3-4 0.8-4.4 8.1-5.9 2.1-0.4 2.7-1.1 2.7-3 0-2.3 0.3-2.5 5-2.5h5v3.5c0 1.9-0.4 3.5-0.9 3.5-0.5 0-1.1 0.8-1.3 1.8-0.7 2.5-6.4 5-13.2 5.8l-5.7 0.7z"/>
			<path id="plCC1wzpu" class="s1" d="m184 242.5c0-2.4 0.5-3.5 1.5-3.5 0.8 0 1.5-0.7 1.5-1.5 0-1.2 1.4-1.5 6.5-1.5h6.5v3.4c0 3.3-0.2 3.5-4.5 4.2-2.5 0.3-4.5 1-4.5 1.5 0 0.5-1.6 0.9-3.5 0.9-3.3 0-3.5-0.2-3.5-3.5z"/>
			<path id="pgGc1Yxph" class="s1" d="m80 236c0-0.5-0.7-1-1.5-1-1 0-1.5-1.1-1.5-3.5 0-3.3 0.2-3.5 3.5-3.5 1.9 0 3.5 0.5 3.5 1 0 0.6 0.7 1 1.5 1 1 0 1.5 1.1 1.5 3.5 0 3.3-0.2 3.5-3.5 3.5-1.9 0-3.5-0.4-3.5-1z"/>
		</g>
	</g>
	<g id="l1PYDt7jNmI0G0TXSasV74W">
		<g>
			<path id="pxdKPOomT" class="s2" d="m258 487c-1.9-0.5-1.4-0.7 2.3-0.7 2.9 0 4.3 0.3 3.5 0.8-1.5 1-2.4 1-5.8-0.1z"/>
			<path id="pvlip0h1B" class="s2" d="m269 487c0-0.5 0.7-1 1.5-1 0.8 0 1.5 0.5 1.5 1 0 0.6-0.7 1-1.5 1-0.8 0-1.5-0.4-1.5-1z"/>
			<path id="pUvCD50zN" class="s2" d="m286 486c0-0.5 0.7-1 1.5-1 0.8 0 1.5 0.5 1.5 1 0 0.6-0.7 1-1.5 1-0.8 0-1.5-0.4-1.5-1z"/>
			<path id="p1ECt5rehx" class="s2" d="m314 481c0-0.5 0.7-1 1.5-1 0.8 0 1.5 0.5 1.5 1 0 0.6-0.7 1-1.5 1-0.8 0-1.5-0.4-1.5-1z"/>
			<path id="pKRk67qps" class="s2" d="m321 479.3c0-0.4 1.9-1.3 4.3-2 2.3-0.6 5.2-1.4 6.5-1.8 1.2-0.4 2.2-0.3 2.2 0.2 0 0.5-2.1 1.5-4.7 2.2-2.7 0.7-5.6 1.5-6.5 1.8-1 0.3-1.8 0.1-1.8-0.4z"/>
			<path id="pfBGMsht3" class="s2" d="m200.5 478.2c-2.9-0.6-4.3-2.2-1.9-2.2 2 0 5.2 1.6 4.4 2.3-0.3 0.2-1.4 0.1-2.5-0.1z"/>
			<path id="pwfvBbIrr" class="s2" d="m337.9 473.7c1.5-1.9 4.1-2.3 4.1-0.7 0 0.6-0.4 1-0.9 1-0.5 0-1.8 0.3-2.8 0.7-1.6 0.6-1.6 0.5-0.4-1z"/>
			<path id="pfteXIYIM" class="s2" d="m350 469c0-0.5 0.7-1 1.5-1 0.8 0 1.5 0.5 1.5 1 0 0.6-0.7 1-1.5 1-0.8 0-1.5-0.4-1.5-1z"/>
			<path id="pKDeje7QQ" class="s2" d="m355 467.2c0-1.1 17.8-9.7 18.6-9 0.5 0.6-16.6 9.8-18.1 9.8-0.3 0-0.5-0.4-0.5-0.8z"/>
			<path id="p17EE45M4o" class="s2" d="m238.9 460.4c-1.2-1.4-1.1-1.6 0.5-1.3 1.1 0.2 2.1 1 2.4 1.7 0.5 1.7-1.3 1.5-2.9-0.4z"/>
			<path id="pMNxM3QMW" class="s2" d="m388.5 448.1c-0.3-0.5 0.4-1.3 1.6-1.6 2.8-0.9 3.6 0.1 1 1.4-1.2 0.7-2.2 0.7-2.6 0.2z"/>
			<path id="pSW10e8vG" class="s2" d="m83.5 401c-1-1.1-1.3-2-0.8-2 1.3 0 3.8 2.9 3.1 3.5-0.3 0.3-1.3-0.4-2.3-1.5z"/>
			<path id="pfragjVvG" class="s2" d="m369.9 360.8c-1.3-0.5-3.3-0.7-4.5-0.4-2.2 0.6-9.1-0.4-19.4-2.9-3.6-0.9-8.2-2-10.2-2.4-4.2-0.9-24.8-11.1-24.8-12.3 0-0.4-0.5-0.8-1.2-0.8-0.6 0-2.4-1.4-3.8-3.2-1.9-2.2-3.6-3.2-5.6-3.3-2.3 0-3-0.5-3.2-2.5-0.2-1.4-2.5-4.8-5-7.6-4.7-5.2-9.2-11.6-12.5-18-1-2.1-2.5-3.4-3.6-3.4-1.9 0-4.2-2-2.4-2 2.5-0.1 3.3-1.7 2.3-4.5-0.9-2.5-0.9-2.7 0.9-2.2 1.3 0.3 1.8 0.1 1.4-0.9-0.2-0.7-1-1.1-1.7-0.8-0.7 0.3-1.7-0.1-2.3-0.8-1.2-1.7-5.3-14.8-5.3-17.2 0-2.9-2.3-10-3.5-10.8-0.5-0.4-3.1-0.8-5.6-0.8-5.1 0-5.9 0.9-5.9 6 0 1.6-0.7 6.2-1.7 10.2-0.9 4-1.7 8.6-1.8 10.1-0.1 1.5-0.7 3.3-1.3 3.9-0.7 0.7-1.2 1.8-1.2 2.5 0 0.7-1.4 3.9-3.1 7.1-1.8 3.1-3.9 7.1-4.7 8.7-3.3 6.3-7.1 11.6-9.8 13.8-1.6 1.2-2.9 2-3 1.7-0.1-0.3-0.6-0.1-1.1 0.4-0.5 0.5-0.2 0.6 0.6 0.1q1.4-0.8 0.9 0.6c-0.2 0.8-1.8 2.1-3.6 3-1.7 0.9-2.9 1.9-2.6 2.2 0.3 0.3-0.5 1.1-1.8 1.8-1.2 0.7-2.9 1.9-3.6 2.8-0.8 0.9-1 1-0.6 0.2 0.4-0.7-0.7-0.3-2.5 1-1.7 1.2-3.1 2.8-3.1 3.5 0 1.7-4.9 4.7-6.6 4-1-0.4-1.2-0.2-0.8 0.6 0.5 0.8 0.2 0.9-1 0.5-1.1-0.5-1.5-0.3-1 0.5 0.5 0.8 0.2 0.9-1 0.5-1-0.4-1.5-0.3-1.1 0.3 0.7 1.2-6.1 4.3-7.5 3.5-0.6-0.4-1-0.2-1 0.4 0 0.6-0.7 0.8-1.5 0.5-0.8-0.3-2.7 0.4-4.2 1.6-1.5 1.1-3.6 2-4.7 1.8-1.2-0.1-2.5 0-3.1 0.3-3.5 2.1-8.7 2.9-12 2-2.5-0.7-3.3-0.6-2.9 0.1 1.2 2-16.5 0.1-26.1-2.7-4.9-1.5-12.4-4.1-16.6-5.9-7.8-3.4-17.7-10.2-17.8-12.3-0.1-0.6-1.1-1.5-2.3-1.8-2.2-0.7-13.7-12.2-13.8-13.7 0-1.2 1.4-0.9 2.9 0.5 1.1 1 1.1 0.8 0.1-0.9-0.8-1.3-2-2-3.1-1.7-1.4 0.4-3.1-1.5-7.4-8-3-4.7-5.5-9.2-5.5-10.1 0-0.9-0.4-1.6-1-1.6-0.5 0-1-0.7-1-1.5 0-0.8-0.4-2.3-0.9-3.3-2.3-4.6-5.1-12.6-5.1-14.8 0-0.8 0.8-1.4 1.8-1.5 1.3 0 1.4-0.2 0.2-0.6-2.9-1.1-4-4.3-1.5-4.3 2.1 0 1.9-3-0.2-3.1-1.5 0-1.5-0.2 0.2-0.9 2-0.8 2-0.9-0.1-0.9-2.5-0.1-3.4-3.7-3.4-13.5 0-5.3 0.2-5.8 1.9-5.3 1.6 0.4 1.9 0 1.5-2.7-0.2-1.7-0.8-3.2-1.4-3.4-1.9-0.7-1-4 1.3-4.7l2.2-0.8-2.4-0.4c-2.1-0.4-2.3-0.8-1.6-5.1 1.7-11.7 11-33.1 19.1-44 2.5-3.4 5-6.2 5.5-6.2 0.5 0 3.7-3 7.2-6.6 8.1-8.5 21.6-17.7 30.4-20.5 3.7-1.3 8.8-3.1 11.3-4.2 4.1-1.8 6.1-1.9 22-1.4 17.4 0.6 27.6 2.2 32.3 5.1 1.2 0.7 3.3 1.6 4.7 1.9 8.1 1.9 35.3 23.7 39 31.2 0.9 1.8 2.4 3.1 3.8 3.3 2.3 0.4 3 1.8 1.1 2.4-0.8 0.3-0.6 1.6 0.5 4.2 0.9 2.1 1.6 4.9 1.6 6.2 0 1.6 0.7 2.4 2.2 2.6 1.8 0.2 2.4 1.2 3 4.7 0.4 2.4 1.1 4.8 1.6 5.5 0.5 0.6 1.9 4.3 3.1 8.1 1.7 5.4 2.1 8.7 1.8 14.5-0.3 4.1-0.3 6.9 0 6.3 0.4-1 1-0.9 2.6 0.2 2.3 1.6 5.9 2 7.1 0.8 0.4-0.5 1.8-0.8 2.9-0.8 2 0 2.2-0.6 2.4-5.5 0.1-3 0.6-7.5 1.1-10 0.7-4.1 1-4.5 3.6-4.5 2.4 0.1 2.6-0.1 1.1-1.2-2-1.4-1.3-4.3 1-4.3 1.9 0 1.9-0.7 0-2.7-1.2-1.2-1.3-1.8-0.4-2.9 1.4-1.7 3.9-1.8 3.9-0.2 0 0.6 0.3 0.8 0.7 0.4 0.5-0.4 0-1.4-1-2.1-2-1.5-1.6-4.6 0.8-7.5 0.8-0.8 1.7-2.8 2.1-4.5 1.3-5.4 12.4-17.5 16-17.5 2.4 0 4.1-1.6 3-2.8-0.4-0.3-1.6-0.1-2.7 0.6-1.9 1.2-1.9 1.1-0.9-0.7 1.1-2.2 5.2-3.7 6.9-2.6 0.6 0.3 1.1 0.2 1.1-0.4 0-0.5-0.6-1.2-1.2-1.4-1.2-0.5 2.9-4.7 10.6-11.4 3.1-2.7 16.8-9.1 22.2-10.4 2.7-0.7 6-1.7 7.4-2.4 3.8-1.9 23.2-2.8 33.5-1.5 8.7 1 17.2 3.1 20.7 5.1 1 0.5 2.6 0.9 3.7 0.9 1 0 2.4 0.7 3.1 1.5 0.7 0.8 1.8 1.5 2.5 1.5 0.7 0 3 1.3 5.1 3 2.2 1.6 4.4 3.3 4.9 3.7 0.6 0.5 3.2 1.9 5.8 3.3 2.6 1.4 5.4 3.4 6.1 4.5 0.7 1.1 3.1 3.8 5.2 6.1 7.4 7.7 15.4 18.7 15.4 21.1 0 0.5 0.9 1.8 2 2.8 1.1 1 2 2.4 2 3.1 0 0.7 0.7 3 1.6 5.1 3 6.8 3.3 7.7 4.7 13.3 3.5 13.5 3.8 15.6 2.7 18.4-0.5 1.5-0.6 2.5-0.1 2.1 1.2-0.7 1.8 3.8 1.1 8.5-0.4 3.4-0.5 3.3-1.1-1.5-0.5-3-0.6-0.6-0.3 5.8 0.6 16.1-4.2 35.2-11.6 46.7-2 3-4 6.2-4.5 7.1-2.7 4.3-8.3 11.5-10.4 13.3-1.3 1.2-4.8 4.5-7.7 7.5-3.6 3.7-5.7 5.2-6.9 4.7-0.9-0.3-1.4-0.2-1.1 0.2 0.2 0.4-1.1 1.8-3 3-1.9 1.2-5 3.2-6.9 4.5-1.9 1.2-3.4 2.8-3.2 3.6 0.1 0.7-0.8 1.7-2 2.2-1.3 0.5-2.3 0.5-2.3 0 0-0.5-1.7-0.5-3.7 0.1-2.1 0.5-4.9 1.2-6.3 1.4-1.4 0.3-3.4 0.9-4.5 1.4-1.1 0.5-3.7 1.1-5.8 1.4-2.1 0.2-5 1.1-6.6 1.9-1.9 0.9-3.5 1.1-5.2 0.5zm-192.1-7.4c2.3-0.8 5.2-1.4 6.2-1.4 1.1 0 2-0.4 2-1 0-0.5 0.7-1 1.5-1 2 0 11.1-4.6 15.2-7.6 1.7-1.3 4.5-2.4 6.2-2.4 2.2 0 3.1-0.5 3.1-1.7 0-0.9 3-4.7 6.8-8.4 9-9 12.2-12.6 12.2-13.8 0-0.5 0.4-1.1 0.9-1.3 1-0.4 10.1-18.1 10.1-19.7 0-0.6 0.4-1.9 0.9-2.9 1.6-3.1 4.1-12.3 4.1-15.3 0-1.6 0.5-2.9 1-2.9 0.6 0 1-1.7 1-3.7 0-2.1 0.3-5.5 0.6-7.5l0.7-3.8h11.7 11.8l0.6 3.8c0.4 2 1 6.4 1.5 9.7 1 7.6 3 14.1 7 22.6 1.1 2.5 2.1 4.9 2.1 5.3 0 1.5 13 20.4 16.6 24.1 4.4 4.6 14.8 13.4 17.8 15.2 5 2.9 20.5 10.2 25.1 11.7 2.8 0.9 6.9 1.6 9.2 1.6 2.3 0 4.5 0.5 4.8 1 0.8 1.2 16.2 1.3 16.9 0.1 0.3-0.4 3.1-1.1 6.3-1.4 16.4-1.6 40.1-16.2 52.7-32.6 13.8-18 18.8-29.7 23-53.7 1.4-8.1 1.4-10.1 0.1-18.5-0.7-5.2-1.9-10.7-2.4-12.4-0.6-1.6-1.8-5.5-2.7-8.5-4.7-15.8-18.9-37.5-30.3-46.1-2.5-1.8-4.8-3.6-5.1-3.9-0.7-0.9-13.1-8.4-16-9.7-18.7-9-45.4-10.1-62.5-2.8-1.6 0.7-4.7 1.9-6.7 2.6-2.1 0.7-3.8 1.7-3.8 2.1 0 1.2 1.4 1 3.6-0.7 1-0.8 2.8-1.5 4-1.5 1.1 0 2.4-0.4 3-0.9 1.5-1.5 14.1-3.4 24.8-3.8 9.3-0.4 22.8 1.3 29.1 3.7 14.7 5.6 26.5 13.1 35.1 22.3 11.3 12.1 19.7 26.7 22.8 39.2 1 3.9 2.2 8.6 2.7 10.6 1.2 4.9 1.2 37.6-0.1 38.4-0.5 0.3-1 1.9-1 3.4 0 7.1-7.7 24.6-15.3 35-9.4 12.8-25.1 26-35.7 30-1.9 0.7-4.4 1.7-5.5 2.2-4.7 2.2-13 3.2-28.3 3.6-9.8 0.3-16.8 0-17.5-0.5-0.7-0.6-3.3-1.3-6-1.7-2.6-0.4-5-1.1-5.3-1.6-0.3-0.5-1.2-0.9-2-0.9-1.4 0-9.5-3.7-15.4-7.1-1.4-0.8-5.4-3.9-9-6.9-17.3-14.6-24.4-26-31.6-50.5-2.5-8.2-3-34.4-1-44.6 3.8-18.8 10.5-33.2 21-44.6 4.1-4.5 4.5-5.3 2.7-5.3-1.2 0-2.1 0.6-2.1 1.3 0 0.7-1.5 3.1-3.4 5.3-6.8 8-16.8 25.8-18.1 32.4-0.4 1.9-1.1 4-1.6 4.6-0.4 0.5-1.5 6-2.3 12.2-0.8 6.1-1.7 11.6-2.1 12.2-0.7 1.1-11.7 1.3-18.8 0.4l-4.5-0.6-0.7-6.2c-0.3-3.3-1-7.2-1.4-8.6-0.5-1.4-1.7-5.4-2.6-9-2-7.3-10.8-26.3-15.2-32.7-2.8-4.1-13.6-15.7-18.8-20-4.6-3.9-14-9.3-21.4-12.3-13-5.3-18.4-6.3-33.7-6.3-14.7 0-17.1 0.5-29.2 5.9-2.9 1.3-5.5 2.4-5.7 2.4-0.2 0-3.6 2.1-7.5 4.6-14.6 9.4-28.2 24.9-35.2 39.9-5.9 12.8-6.8 15.2-6.8 17.3 0 1.2-0.4 2.3-0.8 2.6-1.6 0.9-3.5 21.1-2.9 29.2 1 12 1.9 18.8 2.7 19.9 0.4 0.6 1.1 2.6 1.5 4.5 0.4 1.9 1.1 4 1.5 4.5 0.3 0.6 1.7 3.6 2.9 6.7 1.3 3.1 4.5 9 7.2 13 2.7 4 4.9 7.7 4.9 8.2 0 1.5 16 16.5 21.8 20.4 9.5 6.4 19 11 27.2 13.2 2.5 0.7 5.4 1.6 6.5 2.1 4.9 2.1 26 1.7 33.3-0.7zm202.5-34.1c2.9-1 4.4-1.9 3.5-2.1-0.9-0.2-2.6 0.2-3.7 0.7-1.1 0.6-5.4 1.1-9.6 1.1-4.8 0-7.4 0.4-7 1 1 1.6 11.1 1.2 16.8-0.7zm-20.6-3.3c-0.6-2.3 0.3-2.6 2.1-0.8 0.9 0.9 1.2 0.7 1.2-0.9 0-2.5-0.4-2.7-4.3-3.7-2.5-0.6-2.8-0.5-2.2 1.4 0.4 1.1 0.2 2-0.4 2-0.6 0-1.1-1.6-1.1-3.6v-3.7l4.9 0.5c3.6 0.4 5.7 0 8.2-1.4 1.9-1.1 2.5-1.6 1.4-1.2-3.2 1.3-15.5 1.7-16.8 0.6-0.7-0.6-2.9-1.3-4.9-1.7-3.3-0.6-3.8-1.2-4.4-4.1-0.3-1.9-0.3-4.6 0-6.1 0.5-2.1 0.4-2.4-0.4-1.3-0.5 0.8-1 2.3-1 3.3 0 0.9-0.7 1.7-1.5 1.7-0.8 0-1.5-0.6-1.5-1.4 0-1.8-3.7-2.7-4.4-1.1-0.2 0.7 0.3 1.7 1.2 2.1 1.3 0.6 1.1 0.8-1.2 1.3-2.8 0.6-2.6 0.8 4.4 4.4 4.4 2.2 8.8 5.5 10.9 7.9 2.9 3.4 8.5 7.8 10 7.8 0.2 0 0.1-0.9-0.2-2zm53.3-31.8l3.5-1.7-4.5-0.5c-3.5-0.4-4.6-0.2-4.9 1-0.2 0.8-0.8 1.8-1.5 2.2-1.4 0.9-10.7 1-15.8 0.2-3.7-0.6-3.8-0.8-3.8-5 0-4.2-0.1-4.4-3-4.4-2.8 0-3 0.3-3 3.5v3.5l-8.7 0.1c-9.4 0.1-8.2 1.6 1.4 1.8 5.6 0.1 8.3 1.8 8.4 5.4v2.2l0.9-2.2c0.9-2.2 1.4-2.3 13-2.3h12l0.1 2.8c0.1 2.4 0.2 2.3 1.3-1.1 0.9-2.8 2.1-4.3 4.6-5.5zm-54.6-3c-2.9-1.9-4.5-10.2-2.8-14.6 0.8-2.1 8.4-2.1 12.4-0.1 1.7 0.9 3 1.3 3 1 0-0.3-2.5-1.7-5.5-3.1-5.1-2.3-5.5-2.8-5.5-5.9 0-3 0.4-3.5 4.3-4.9 2.3-0.9 3.1-1.4 1.7-1.1-1.4 0.2-4 0.5-5.7 0.5-2.8 0-3.3 0.4-3.3 2.4 0 3.7-2.3 5-7.7 4.2-5.2-0.7-5.3 0.3-0.1 1.3l3.3 0.7 0.3 8.8c0.2 5.6-0.1 9.3-0.9 10.2-0.9 1.2-0.4 1.4 3.2 1.4 2.4 0 3.9-0.4 3.3-0.8zm-44.3-5c-0.6-1.2-1.1-4.8-1.1-8.2 0-3.8-0.4-5.9-1-5.5-1.5 0.9-1.2 8.8 0.6 13 0.8 2 1.8 3.5 2 3.2 0.3-0.3 0.1-1.4-0.5-2.5zm113.8-16.2c-0.2-8.5-1.7-10.1-1.8-1.8-0.1 4.2-0.4 8.5-0.7 9.5-0.3 1 0.2 0.7 1-0.7 0.8-1.4 1.5-4.5 1.5-7zm-25.7-1.3c-0.3-5.3 0-7.1 2.5-12.2 2.6-5.6 3.1-6 6.8-6.6l4-0.6-3.1-0.7c-3-0.8-3.2-1.2-4.4-7.9-2-11-2.9-11.3-3-0.9 0 8.2-0.2 9.2-1.8 9.2-1 0-2.3 0.5-2.9 1.1-0.6 0.6-3.3 1-6.2 0.8l-5.1-0.4v3.1c0 2.9-0.3 3.2-4.2 4l-4.3 0.8 6.6 0.5c3.6 0.3 7.3 1.2 8.2 2 1.9 1.5 2.3 9.1 0.7 12.2-1 1.7-0.7 1.9 2.8 1.9h3.8zm-24.2-8.7c2-0.6 2.1-0.8 0.5-0.8-1.1 0-2.9 0.3-4 0.8-2.5 1.1 0.1 1.1 3.5 0zm-54.5-7.5c0-6.3-0.1-6.5-2.5-6.5-2.4 0-2.5 0.3-2.7 6.5-0.2 6.4-0.1 6.5 2.5 6.5 2.7 0 2.7-0.1 2.7-6.5zm-8-1.4c-0.9-2.9-3.5-2.7-3.5 0.3 0 2.5 1.9 3.9 3.3 2.6 0.5-0.5 0.6-1.7 0.2-2.9zm38-1.8c-0.3-2.7-0.2-7.5 0.2-10.8l0.8-6 5.5-0.6c3-0.3 4.3-0.6 2.8-0.7-2.2-0.2-2.7-0.7-3-3.4l-0.4-3.3-1.3 2.8c-0.8 1.5-2.1 2.7-3 2.7-0.9 0-3.4 0.7-5.6 1.5l-4 1.4 3.3 0.1h3.2v8.9c0 8.2 0.5 12.1 1.6 12.1 0.3 0 0.2-2.1-0.1-4.7zm-33.7-19.3v-2.5l-0.8 2.5c-0.4 1.4-0.8 3.4-0.8 4.5l-0.1 2 0.9-2c0.5-1.1 0.8-3.1 0.8-4.5zm61.9-16.5c3.3 0 5.9-0.3 5.6-0.7-0.2-0.5-1.5-0.8-2.8-0.8-1.3 0-2.7-0.4-3-1-0.3-0.5-1.8-1-3.2-1-1.3 0-3.7-0.6-5.1-1.4-7.7-3.9-23.1-6.2-24.6-3.7-0.3 0.4-2.3 1.1-4.5 1.5-3.4 0.5-11.1 4.1-11.1 5.1 0 0.5 4.4-0.7 5.5-1.5 2.4-1.8 14.9-3.2 22-2.5l7.5 0.7v3.3c0 3.4 0 3.4 3.8 2.7 2-0.4 6.5-0.7 9.9-0.7zm-67.7-25.3c0-0.2-1.4 0.8-3.1 2.2-1.7 1.4-3.5 2.6-4 2.6-0.5 0-0.9 0.7-0.9 1.6 0 1.1 1.3 0.4 4-2.2 2.2-2.1 4-4 4-4.2zm9.3-5.3c2.2-1.1 3.6-2.3 3.3-2.6-0.7-0.8-11.6 5.8-11.6 7 0 0.5 1 0.2 2.3-0.7 1.2-0.9 3.9-2.5 6-3.7z"/>
			<path id="pQpb6N04m" class="s2" d="m147.5 351.6c-33.4-5.3-60.3-28.5-71-61.3-1.4-4.3-2.5-8.7-2.5-9.8 0-1.2-0.5-2.6-1-3.1-1.3-1.3-0.7-37.5 0.7-44.9 1.9-9.9 5.7-19.1 13-31 9.5-15.6 20.9-24.9 43.5-35.7 9.2-4.3 44.1-4.2 54.3 0.1 1.1 0.5 4.3 1.7 7 2.7 16.7 5.9 35.6 23.6 43.5 40.7 8.3 18 10.2 27.1 10.1 49.2 0 18.1-0.9 23.6-5.8 37-5.4 14.3-11.7 23.8-23.1 34.6-6.8 6.5-21.2 15.9-24.2 15.9-0.9 0-2 0.4-2.5 0.9-1.3 1.1-8.7 3.1-16 4.2-10.6 1.6-17.8 1.8-26 0.5zm28.3-36.5c0.9-0.5 3.1-1.5 4.7-2.2l3-1.2-3-0.6-3-0.6-0.1-8.5c0-4.7-0.5-9.7-1.2-11.2-1.6-3.8-2.3-3.5-1.1 0.4 2.3 8.1 0.4 19.6-3.5 21.7-2.3 1.3-11.5 1.1-16.6-0.3-1.8-0.5-1.6-0.2 1 1.3 3.8 2.2 16.4 2.9 19.8 1.2zm-37.5-12.1c2.3 0 2.7-0.4 2.7-2.9 0-2.5-0.4-2.9-3.5-3.3-3.3-0.4-3.5-0.2-3.5 2.4v2.8l-7.7 0.1c-5.6 0-7.2 0.3-5.8 1 1.1 0.5 4.9 0.7 8.5 0.4 3.6-0.3 7.7-0.5 9.3-0.5zm35.7-18c0-1.6-0.7-2-3.5-2-3.1 0-5.7-0.9-13.2-4.3-1.7-0.8-2.3-1.9-2.3-4.4 0-6.8 3.6-8.9 10.3-6.4 4.3 1.7 9.7 7.1 9.7 9.8v2.5l3.8-2.3c14.1-8.5 16.8-11.5 19.6-21.7 1.4-5.2 1.5-6.6 0.4-8.9-2.2-4.5-4-4.9-8.6-1.8-2.7 1.8-6.1 3-9.2 3.3-4 0.4-5 0.8-5 2.3 0 1-1.3 2.5-3 3.4-3.3 1.7-10 2-10 0.5 0-0.5 1-1 2.3-1 1.7 0 1.9-0.2 0.7-0.9-0.8-0.6-1.8-0.7-2.2-0.5-0.4 0.3-0.8-0.4-0.8-1.5 0-3-6-3-7.8 0-1.1 1.7-2.2 2-7.5 1.8-4.3-0.2-7.2 0.2-9.4 1.4-4.2 2.2-4.2 2.8-0.1 1.6 5.7-1.6 11.3-1.1 14.3 1.3 2.7 2.1 2.7 2.4 2.1 9.1-0.3 3.8-0.9 7.4-1.2 7.9-0.4 0.6-2.9 0.8-5.8 0.5l-5.1-0.4 3.3 1.5c2.5 1.2 3.2 2.2 3.3 4.6 0.1 1.7 0.3 2.3 0.6 1.4 0.7-2.7 5.8-2.3 13.6 1 3.7 1.6 7 3.2 7.4 3.5 1.3 1.4 3.3 0.6 3.3-1.3zm-64.8-14.7c0.7-0.8 3.6-1.3 8.4-1.3 6 0 7.4 0.3 7.8 1.8 0.5 1.3 1.7 1.7 6.3 1.7 3.2 0 6.7 0.4 7.8 0.8 1.1 0.4-0.4-0.4-3.2-1.9-5.2-2.5-5.3-2.6-5.3-7 0-4.4 0-4.4-3.5-4.4-4.2 0-5.9-2.5-5.3-8.1 0.3-3.7 0.2-3.9-2.4-3.9-2.6 0-2.8 0.3-2.9 3.8 0 2.2-1.3 6.1-3.3 9.7-2.8 5.1-3.7 6.1-6.7 6.6-1.9 0.4-2.8 0.7-2.1 0.8 0.8 0.1 1.2 1.8 1.2 4.9 0 2.6 0.4 6.5 0.8 8.7 0.6 3.5 0.7 3.2 1-3.5 0.2-4.1 0.8-8 1.4-8.7zm103.6 3.2c0-1.6-0.2-1.5-0.8 0.5-1.1 3.4-1.1 6 0 3.5 0.5-1.1 0.8-2.9 0.8-4zm2.1-13.5c0-3.6-0.4-7.4-0.8-8.5-0.5-1.2-0.8 2.1-0.7 7.6 0.1 5.4 0.4 9.2 0.8 8.5 0.4-0.6 0.7-4 0.7-7.6zm-115.2-7.7c-0.2-2.1-0.4-0.6-0.4 3.2 0 3.9 0.2 5.5 0.4 3.8 0.2-1.8 0.2-5 0-7zm74.3-3.8c0-0.7 0.6-1.6 1.3-1.8 0.6-0.3 0.2-0.6-0.9-0.6-1.7-0.1-2.2 0.4-2 2.3 0.1 2.5 1.6 2.6 1.6 0.1zm-58.7-11.4c-0.7-8.6 0.1-11.9 3.3-13.3 2.1-1 2.2-1.3 0.9-2-0.8-0.5-1.5-2.3-1.6-4.1-0.1-2.9-0.3-2.7-1.8 2-1 3.3-3.2 6.9-5.6 9.3l-3.9 4h3.7c3.5 0 3.7 0.2 3.7 3.3 0 3.2 0.9 7.7 1.6 7.7 0.1 0 0-3.1-0.3-6.9zm77.7 2.9c0-0.5-0.7-1-1.5-1-0.8 0-1.5 0.5-1.5 1 0 0.6 0.7 1 1.5 1 0.8 0 1.5-0.4 1.5-1zm-20.9-13.4c-0.7-2.5-0.9-1.6-0.9 4.4 0 7 0.1 7.2 0.9 3.1 0.5-2.6 0.5-5.8 0-7.5zm-24.1-2.4c0-2.8-0.3-3.3-1.2-2.4-0.7 0.7-2.5 1.2-4 1.2-2.4 0-2.8 0.4-2.8 2.8 0 2.6 0.2 2.7 4 2.4 3.9-0.4 4-0.5 4-4zm-12.8-3.2c-1.3-0.6-3.8-0.6-6-0.1-3.5 0.8-3.3 0.9 2.3 0.9 4.6 0.1 5.5-0.1 3.7-0.8zm37.4-13.7c1.8-1.1 3.7-1.4 7.2-1l4.7 0.6-3-1.6c-2.1-1.2-5.6-1.7-11.7-1.7l-8.6-0.1-0.4 3.8c-0.4 3.7-0.4 3.7 3.5 3.7 3.2 0 4 0.4 4.5 2.3 0.6 1.9 0.7 1.8 1-1.1 0.2-2.1 1.2-3.8 2.8-4.9zm3.4 1.9c-1.7-0.6-4.2 0.7-3.5 1.8 0.4 0.6 1.3 0.5 2.6-0.3 1-0.6 1.5-1.3 0.9-1.5zm-25-11.2c-2-1.3-11.7-1.3-12.5 0-0.4 0.6 2.1 1 6.7 1 5.1 0 6.8-0.3 5.8-1z"/>
			<path id="pJAeTIoWt" class="s2" d="m54.7 356.4c-0.4-0.4-0.7-1.4-0.7-2.3 0-1.1 0.3-1.2 1.1-0.4 0.6 0.6 1 1.6 0.7 2.3-0.2 0.6-0.7 0.8-1.1 0.4z"/>
			<path id="p2xfCgg1g" class="s2" d="m489 279.5c0-0.8 0.7-1.5 1.5-1.5 0.8 0 1.5 0.7 1.5 1.5 0 0.8-0.7 1.5-1.5 1.5-0.8 0-1.5-0.7-1.5-1.5z"/>
			<path id="p121g8Dzll" class="s2" d="m33.2 274c0-1.9 0.2-2.7 0.5-1.7 0.2 0.9 0.2 2.5 0 3.5-0.3 0.9-0.5 0.1-0.5-1.8z"/>
			<path id="pevQhpyKy" class="s2" d="m490 270.5c0-0.8 0.7-1.5 1.5-1.5 0.8 0 1.5 0.7 1.5 1.5 0 0.8-0.7 1.5-1.5 1.5-0.8 0-1.5-0.7-1.5-1.5z"/>
			<path id="p4ZSHfndj" class="s2" d="m490 246.5c0-6.8 1.3-8.7 2.4-3.4 1.1 5.7 0.7 9.9-0.9 9.9-1.2 0-1.5-1.4-1.5-6.5z"/>
			<path id="pzeVuuWFu" class="s2" d="m33.3 248.5c0-2.2 0.2-3 0.4-1.7 0.2 1.2 0.2 3 0 4-0.3 0.9-0.5-0.1-0.4-2.3z"/>
			<path id="ppdqSiC8S" class="s2" d="m489 231.9c0-2.4 2.3-2.1 2.8 0.4 0.2 1-0.3 1.7-1.2 1.7-1 0-1.6-0.9-1.6-2.1z"/>
			<path id="p140d7p17F" class="s2" d="m426.5 99.3c-10.9-11.6-12.4-14.1-3.2-5.4 6.3 6 16.1 17.1 15 17-0.4 0-5.7-5.3-11.8-11.6z"/>
			<path id="pMMqE4sSq" class="s2" d="m91.5 108c-0.3-0.5 0.1-1.3 1-1.6 2.2-0.9 2.9 0.1 1.1 1.5-1 0.8-1.6 0.9-2.1 0.1z"/>
			<path id="pAkRzINWR" class="s2" d="m96.9 103.8c0.8-1 1-1.8 0.6-1.8-0.4 0 1.8-2.5 4.9-5.6 3.1-3 6.1-5.4 6.6-5.2 0.5 0.2-2.3 3.5-6.2 7.3-4 3.9-6.6 6.2-5.9 5.3z"/>
			<path id="paLr8toKV" class="s2" d="m114.7 85.9c1.2-1.2 2.5-2 2.8-1.7 0.3 0.3-0.7 1.3-2.2 2.3l-2.8 1.7z"/>
			<path id="papgt0Ryr" class="s2" d="m400.5 76c-1-1.1-1.4-2-0.8-2 0.5 0 1.8 0.9 2.8 2 1 1.1 1.4 2 0.8 2-0.5 0-1.8-0.9-2.8-2z"/>
			<path id="p14bZkE7Lu" class="s2" d="m318 59c0-0.5 1-1 2.3-1 1.8 0 1.9 0.2 0.7 1-1.9 1.3-3 1.3-3 0z"/>
			<path id="p13FIeSxlU" class="s2" d="m199 39c0-0.5 0.7-1 1.5-1 0.8 0 1.5 0.5 1.5 1 0 0.6-0.7 1-1.5 1-0.8 0-1.5-0.4-1.5-1z"/>
			<path id="pO8IZ5x1t" class="s2" d="m295.5 33c-1.5-0.7-0.9-0.9 2.2-0.6 2.4 0.1 4.6 0.5 5 0.9 0.9 1-4.8 0.7-7.2-0.3z"/>
			<path id="ptJzAdhuq" class="s2" d="m236 31c0-0.5 0.9-1 2.1-1 1.1 0 1.7 0.5 1.4 1-0.3 0.6-1.3 1-2.1 1-0.8 0-1.4-0.4-1.4-1z"/>
			<path id="p16AJoE0at" class="s2" d="m245.4 30.1c0.5-0.8 5.6-0.3 5.6 0.5 0 0.2-1.4 0.4-3.1 0.4-1.6 0-2.8-0.4-2.5-0.9z"/>
			<path id="p4HMmqlQv" class="s2" d="m273 30c2.5-0.4 4.9-0.4 5.5 0.1 0.5 0.5-1.3 0.8-4.5 0.8l-5.5-0.2z"/>
		</g>
	</g>
	<g id="l5TTaWy1w10t8zKZ5QcfBKX">
		<g>
			<path id="p5hRCjx23" class="s3" d="m148 358.4c-2.5-0.3-5.4-0.8-6.5-1.3-1.1-0.5-4-1.4-6.5-2.1-13.6-3.6-29.2-13.1-40-24.1-7.6-7.7-17-21.3-20.6-29.6-1.3-3.2-2.9-6.7-3.4-7.8-1.5-3.4-3.8-12.7-5-20.2-2-12.2-0.7-38.1 2.1-43.5 0.5-1 0.9-2.5 0.9-3.4 0-1.7 1.1-4.5 6.8-16.9 7-15 20.6-30.5 35.2-39.9 3.9-2.5 7.3-4.6 7.5-4.6 0.2 0 2.8-1.1 5.7-2.4 12.7-5.7 14.3-6 32.3-6 18.4 0 22.9 0.8 36.6 6.4 7.4 3 16.8 8.4 21.4 12.3 5.2 4.3 16 15.9 18.8 20 4.3 6.3 12.4 23.3 14.6 30.7 3 10.2 3.2 11.1 4.1 18.3 0.4 3.8 1 7 1.2 7.2 0.2 0.3 4.1 0.7 8.6 1 9.7 0.6 9.5 0.8 10.6-11.5 1.2-12.5 7.3-28.5 16.1-42 6.8-10.6 22.7-25.8 31.5-30.2 2.5-1.3 4.7-2.6 5-2.9 0.3-0.3 2.1-1.1 4-1.9 1.9-0.7 4.9-1.9 6.5-2.5 14.9-6.3 40-6.8 57-1.4 5 1.6 10.1 3.5 11.5 4.1 3 1.5 15.3 9 16 9.8 0.3 0.3 2.6 2.1 5.1 3.9 11.2 8.5 25.6 30.2 30.2 45.6 0.8 2.8 2.3 7.5 3.2 10.5 1 3.2 1.9 10.5 2.2 17.3 1.5 33.5-11.3 63.7-36 84.7-12 10.3-32.3 20-41.7 20-2.1 0-4.2 0.5-4.5 1-0.4 0.6-5.3 1-11.5 1-6.2 0-11.1-0.4-11.5-1-0.3-0.5-2.5-1-4.8-1-12.4 0-36.6-13-51-27.4-4.3-4.3-17.7-23.3-17.7-25.1 0-0.3-0.9-2.7-2.1-5.3-4.6-10.6-6-15.1-7-22.7-0.5-3.3-1.1-7.7-1.5-9.7l-0.6-3.8h-8.8-8.7l-0.7 3.8c-0.3 2-0.6 5.1-0.6 6.9 0 1.7-0.4 3.5-1 3.8-0.5 0.3-1 1.9-1 3.4 0 2.6-2 10.5-4 15.6-2.8 7.3-4.7 11.5-6.7 14.7-1.3 2.1-2.3 4.1-2.3 4.4 0 1-11 14.5-14.5 17.7-5.9 5.5-17.1 13.5-23.5 16.7-12.5 6.3-21.7 8.8-34.7 9.3-6.5 0.2-13.8 0.3-16.3 0.1zm23-10.4c6.7-1 14.2-3 15.5-4.1 0.5-0.5 1.6-0.9 2.5-0.9 3 0 17.4-9.4 24.2-15.9 11.4-10.8 17.7-20.3 23.1-34.6 4.7-12.7 5.7-18.9 5.8-33.9 0-19.2-2.2-29.1-10.1-46.3-7.9-17.1-26.8-34.8-43.5-40.7-2.7-1-5.9-2.2-7-2.7-9.9-4.2-39.4-4.3-48.3-0.1-22.6 10.8-34 20.1-43.5 35.7-7.3 11.9-11.2 21.1-13 31-1.4 7.5-2 37.6-0.7 38.9 0.5 0.5 1 1.9 1 3.1 0 1.1 1.1 5.5 2.5 9.8 9 27.5 30 49 56.5 57.8 8.2 2.8 21.4 4.9 26 4.2 1.9-0.3 6-0.9 9-1.3zm214.5-1.9c2.8-0.6 5.9-1.5 7-2 1.1-0.5 3.6-1.5 5.5-2.2 10.6-4 26.3-17.2 35.7-30 7.6-10.4 15.3-27.9 15.3-35 0-1.5 0.5-3.1 1-3.4 1.3-0.8 1.3-27.5 0.1-32.4-0.5-2-1.7-6.7-2.7-10.6-3.1-12.5-11.5-27.1-22.8-39.2-8.6-9.2-20.4-16.7-35.1-22.3-5.6-2.1-19.9-4.1-26.1-3.7-8.7 0.5-20.6 2.6-21.9 3.8-0.5 0.5-1.6 0.9-2.6 0.9-1.9 0-11.3 4.8-18.5 9.6-4.9 3.2-17.2 15-21.1 20.4-4.3 5.7-8.5 13.2-10.4 18.2-6.8 18.2-8.3 26.7-7.6 42.8 0.6 12.2 1.4 16.1 5.6 28.5 3.6 10.8 10.7 22.5 18.8 31 3.9 4.1 15.3 13.7 18.3 15.4 5.9 3.4 14 7.1 15.4 7.1 0.8 0 1.7 0.4 2 0.9 0.4 0.5 2.9 1.2 5.6 1.6 2.7 0.4 5.3 1.1 5.6 1.7 0.8 1.2 26.2 0.4 32.9-1.1z"/>
			<path id="p1BgAcPHAm" class="s3" d="m150 315.5c-3.5-1.9-7.9-4.9-9.7-6.7-3.1-3-3.5-3.1-6.6-2-4.1 1.5-12.6 0.8-17.1-1.3-3.5-1.7-8.6-8.4-11.5-15-0.7-1.6-1.5-6.5-1.8-10.7-0.3-4.3-1-7.8-1.4-7.8-0.5 0-2-1.9-3.5-4.1-2.2-3.5-2.6-5.3-2.6-11.8 0-12.2 3.5-21.2 12.2-30.6 2.1-2.4 4.3-6.2 5.3-9.5 3.1-9.9 10.7-18 18.5-19.6 1.8-0.3 3.5-1 3.8-1.5 0.3-0.5 4.2-0.9 8.7-0.9 7.4 0 8.9 0.4 15 3.5 6.4 3.1 7.4 3.4 13.3 2.8 6-0.5 6.9-0.3 13.7 3 3.9 2 8.9 5.1 10.9 6.9 6.9 6.1 16.1 23.7 19.8 37.9 1.3 5 0.9 19.3-0.9 27.9-3.1 15.6-16.5 32.3-31.6 39.4-2.2 1.1-4.8 2.3-5.7 2.7-1 0.5-6.4 0.9-12 0.9-9.8 0-10.6-0.2-16.8-3.5zm19.7-6.5c4.8-4.4 3.8-17.5-1.4-19.7-1.6-0.6-5.5-2.3-8.7-3.8-3.3-1.4-6-2.4-6-2.3-0.1 0.2-0.8 1.7-1.6 3.3-0.8 1.7-2.9 5.4-4.7 8.4-2.9 4.9-3 5.6-1.7 7.6 1.4 2.2 7 5.3 12.9 7.3 4.9 1.6 9 1.4 11.2-0.8zm15.2-2.6c5.9-2.9 14.4-11.9 18.4-19.2 5.1-9.5 8-23.3 6.7-31.7-1.8-11.4-2.7-14.3-6.5-21.6-5.8-11.3-9.1-15.3-16.8-20.9-3.7-2.7-5.8-3.4-9.5-3.4-3.7-0.1-4.6 0.2-4.4 1.4 4.4 19.2 3 35-3.4 37.8-1.3 0.7-2.7 1.9-3 2.7-0.4 0.8-0.9 1.3-1.4 1-0.4-0.2-1.6 0.2-2.6 1-1.7 1.2-1.4 1.3 2.4 0.4 5-1.1 9.2-3.6 9.2-5.4 0-0.7 0.7-1.5 1.5-1.8 1.1-0.5 1.2-0.2 0.4 1.6-0.6 1.2-3.4 3.7-6.3 5.5-5.7 3.5-6.6 5.3-6.6 13.4 0 3.1-0.3 3.9-1.5 3.4-0.9-0.3-1.9 0.3-2.6 1.5-0.8 1.7-0.7 2.3 0.8 3.5 1 0.7 2.3 1.4 3 1.4 0.7 0 2.8 0.8 4.8 1.7 4.2 2 5.6 1.1 2.9-1.8-1.9-2.2-1.9-2.2 0.1-1.2 1.1 0.6 4.1 1.4 6.8 1.7 5.3 0.8 6.1 2.5 2.3 5-2.4 1.5-2.4 1.6-0.8 4.8 1.1 2.2 1.8 6 1.9 11.3 0.1 9.1 0.2 9.5 0.6 9.5 0.2 0 1.8-0.7 3.6-1.6zm-53.9-8.2c0-0.4-1.6-4.3-3.5-8.7-1.9-4.4-3.5-9-3.5-10.2 0-1.2-0.5-3.4-1.2-4.8-0.9-2.1-1.8-2.5-5.3-2.5-5.8 0-6.9 1.6-6.2 8.8 1 11.5 6.5 18.2 14.8 18.2 2.7 0 4.9-0.3 4.9-0.8zm11.4-10.6c2-3.5 3.6-6.6 3.6-6.9 0-0.4-4.4-2.3-10.8-4.8-4.8-1.9-5.1-1.3-2.7 6 1.9 5.8 5 12.1 6 12.1 0.2 0 1.9-2.9 3.9-6.4zm8.8-20.7c0.8-4 0.6-4.6-1.8-6.7-2.2-1.9-3.4-2.2-6.3-1.7-4.2 0.7-8.5 3.5-8.9 5.8-0.2 1.1 1 2.2 3.5 3.3 6.6 2.9 10.8 4.3 11.8 4 0.5-0.1 1.3-2.2 1.7-4.7zm-40.4-9l3.4-6.4-1.6-4.5c-0.9-2.5-1.6-6-1.6-7.7 0-4.9-1.8-4-4.7 2.5-4.2 9.4-4.2 24.3 0 22.9 0.6-0.2 2.7-3.2 4.5-6.8zm11.2 5.6c0-2.1-2.7-3-4.5-1.5-2.3 1.9-1.8 3 1.5 3q3 0 3-1.5zm8.6-8.6c3.7-4.1 9.3-6.2 15-5.5 6.8 0.8 7.8-0.3 6-7-1.5-5.9-2.9-8.5-5.2-10.4-1.4-1.3-2.6-0.4-10.1 7.5-10.9 11.4-11.8 12.8-10.3 15.4 1.4 2.6 2.2 2.6 4.6 0zm32.9-10.5c3.3-2.2 4.6-6.9 4.4-16.1-0.2-7.7-2-14.3-3.9-14.3-1.6 0-10.9 7-12 9-0.6 1.2-0.4 2.4 0.6 3.9 1.7 2.4 6.4 15.3 6.4 17.6 0 1.9 1.4 1.9 4.5-0.1zm-26.8-17.7c-0.6-1.9-11.1-2.1-14.6-0.3-3.6 1.9-4.5 4.4-3.6 10.4 1.3 9.4 1 9.4 10.2-0.1 4.6-4.8 8.3-9.3 8-10zm15.2-14.9l6.1-5.7-3.9-2.1c-9.8-4.9-24.8-0.9-30.4 8.2-1.6 2.6-2.7 5.1-2.4 5.5 0.4 0.5 3.2 0.5 6.7-0.1 4.9-0.8 7-0.7 10.3 0.5 4.9 1.8 4.8 1.8 13.6-6.3z"/>
			<path id="psi5sy3Gd" class="s3" d="m364.5 324.3c-4.5-0.9-13-6.1-17-10.5-2.5-2.7-7.1-6.3-11.1-8.3-3.7-2-9.2-5.4-12.1-7.7-5-3.8-12.4-13.6-15.1-20.1-1.5-3.4-1.6-17.3-0.2-18.2 0.6-0.3 1-1.7 1-3 0-1.4 1.4-5 3-8.1 2.9-5.3 3-5.8 2-11.5-1.4-7.4 0.1-19.2 3-24.9 4.4-8.6 15.2-17.4 22.9-18.6 2.3-0.4 4.4-1.1 4.7-1.5 0.3-0.5 4.4-0.9 9.1-0.9 8.3 0 15.4 1.5 21.5 4.6 1.4 0.8 3.8 1.4 5.1 1.4 1.4 0 2.9 0.5 3.2 1 0.3 0.6 1.4 1 2.3 1 1 0 3.4 0.8 5.4 1.8 10.4 5.4 16.5 14 18.8 27q1.4 7.2 2.7 7.2c2.6 0 9 3.9 12.1 7.4 3.8 4.3 5.5 10.1 5.5 18.1 0 10.2-8.7 24.4-16.8 27.5-1.5 0.6-2.5 2-2.9 4.2-1 5.3-5.1 13.2-9.2 17.7-4.1 4.6-13.4 10.5-19.8 12.6-4.3 1.4-14.7 2.4-18.1 1.8zm13.4-9.4c9.6-3.1 12.1-4.2 15.8-7.3 3.2-2.9 10.3-13.7 10.3-16 0-0.3-4-0.6-8.9-0.6h-9l-2.6 5.9c-2.8 6.1-5 8.3-12.5 12.1-3.6 1.8-5.3 2.1-9.7 1.6-2.9-0.3-5.3-0.4-5.3-0.2 0 1.8 1.5 3.6 3 3.6 1.1 0 2.2 0.5 2.5 1 0.8 1.4 12 1.3 16.4-0.1zm-11.7-13.1c4.1-1.3 11.8-7.5 11.8-9.6 0-2.5-3.3-4.2-8.3-4.2-2.9-0.1-7-0.7-9.2-1.5-5.4-2-6.8-1.9-9.3 0.8-5.8 6.1-6 13.7-0.4 13.7 1.5 0 3.4 0.5 4.2 1 2.1 1.3 6.2 1.2 11.2-0.2zm-27.2-7.6c0-4.1 3.7-10.9 8.2-14.9 2.1-2 2.4-3.1 2.3-8.5-0.1-6.1-0.2-6.3-3-6.9-6.5-1.4-14.8-5-19.6-8.3-2.7-2-5.3-3.6-5.8-3.6-1.3 0-4.1 7.4-4.8 12.7-1.2 9.2 5.2 20.9 16.2 29.4 2.8 2.1 5.3 3.9 5.8 3.9 0.4 0 0.7-1.7 0.7-3.8zm63.4-11.8c2-0.8 2-2.6-0.4-9.4-2.1-6.2-3.3-7.1-5.1-3.8-0.7 1.3-2.7 4.1-4.6 6.2-1.8 2.2-3.3 4.5-3.3 5.2 0 1.8 10 3.1 13.4 1.8zm-27.5-5.1c-4.4-5-11.1-9.3-14.3-9.3-3.9 0-2.5 8.8 1.7 10.8 1.2 0.6 5.1 1.1 8.6 1.1l6.4 0.1zm41.6-0.5c5.3-4.8 8.3-20.4 5-26.8-1.7-3.2-7.9-7.4-9.9-6.7-1.6 0.6-6.6 11-6.6 13.6 0 1 1.1 5.1 2.5 9.1 1.4 4 2.5 8.3 2.5 9.5 0 4.2 2.6 4.6 6.5 1.3zm-30-7.5c4.3-5.3 7.4-10.5 7.5-12.4 0-4-5.6-5.5-13.9-3.8-5.1 1.1-17.1 4.8-17.1 5.4 0 0.1 2.9 1.7 6.5 3.4 3.8 1.9 7.8 4.8 9.7 7.1 1.8 2.2 3.5 4 3.8 4 0.3 0 1.9-1.7 3.5-3.7zm-33.5-16.1c-3-5.3-4-10.1-4-18.3 0-10.4-0.1-10.5-9.6-6-6.6 3.1-13.4 10-13.4 13.6 0 4.4 8 9.6 19 12.6 7 1.8 9.7 1.2 8-1.9zm21.2-6.8c9.1-2.2 11.8-3.3 11.8-4.5 0-2.2-10.7-12-15.5-14.3-2-1-5.8-1.9-8.4-1.9l-4.6-0.2-0.6 5c-0.5 3.2-0.2 7.3 0.8 11.5 1.8 7.6 2.1 8.3 3.7 7.7 0.6-0.2 6.4-1.7 12.8-3.3zm26.3 0.5c1.2-1.9-0.5-2.3-2.2-0.6-1.6 1.6-1.6 1.7-0.1 1.7 0.9 0 2-0.5 2.3-1.1zm-3-9.9c0.3-0.5 1.5-1 2.7-1 1.9 0 2-0.5 1.7-7.3-0.4-6.6-0.8-7.8-4.2-12.4-2.1-2.9-5.5-6.2-7.5-7.5-7.2-4.5-21.3-1.9-25.5 4.6-1 1.4-1.7 2.9-1.7 3.4 0 0.4 2.6 1.4 5.8 2.1 6.8 1.5 16.9 8.5 21.6 15.1 2.9 3.8 5.8 5.1 7.1 3zm-72.2-7.5c4.6-5.8 12.4-9.5 25.8-12.2 1.6-0.3 3.2-1.8 4.4-3.9 1-1.9 3.6-5.1 5.7-6.9 2.1-1.9 3.8-3.9 3.8-4.4 0-2.5-20.5-1.6-23.4 1-0.6 0.5-1.7 0.9-2.6 0.9-0.9 0-4.1 1.8-7.1 3.9-5.8 4.2-8.3 8.3-9.3 15.6-0.3 2.2-0.8 5.2-1.2 6.8-0.9 3.7 0.5 3.4 3.9-0.8z"/>
		</g>
	</g>
	<g id="l6CITo5lvf2S0HZbpv759uQ">
		<g>
			<path id="pSVCRTBz7" class="s4" d="m176.2 280.9c-1.8-0.6-4.7-2.5-6.3-4.3-1.6-1.9-4.5-4.1-6.4-5-3.4-1.6-3.5-1.9-3.5-7.1 0-7 1.3-10.5 4.1-10.5 3 0 9-3 9.7-4.9 0.7-2.1 2.2-3.1 4.8-3.1 1.1 0 4.3-1.1 7-2.5 7-3.7 12.4-4.3 14.7-1.7 5.6 6.2 0.9 25.8-7.7 32.2-2.4 1.8-12.6 8-12.9 7.9-0.1 0-1.7-0.5-3.5-1z"/>
		</g>
	</g>
</svg>