<svg version="1.2" xmlns="http://www.w3.org/2000/svg" viewBox="0 0 516 524" width="516" height="524">
	<title>4-asd</title>
	<style>
		.s0 { fill: #f4f1ed } 
		.s1 { fill: #efc1b9 } 
		.s2 { fill: #f0b4a7 } 
		.s3 { fill: #f5aa3f } 
		.s4 { fill: #cf3136 } 
		.s5 { fill: #215c7d } 
		.s6 { fill: #2c7d4c } 
		.s7 { fill: #1f5072 } 
		.s8 { fill: #1c3e61 } 
		.s9 { fill: #161f2e } 
		.s10 { fill: #20211c } 
		.s11 { fill: #131310 } 
	</style>
	<g id="lte0IiuBI9IOD5JrzFSNfD">
		<g>
			<path id="p1Aq1LSjNO" class="s0" d="m330 384.5v-3.5h6 6v3.5 3.5h-6-6z"/>
			<path id="pPfzs9UgD" class="s0" d="m362 378.5c0-2.8 0.4-3.5 2-3.5 1.1 0 2-0.4 2-1 0-0.5 1.8-1 4-1 3.9 0 4 0.1 4 3.5 0 3.1-0.3 3.5-2.5 3.5-1.4 0-2.5 0.5-2.5 1 0 0.6-1.6 1-3.5 1-3.3 0-3.5-0.2-3.5-3.5z"/>
			<path id="pOZt89O3Z" class="s0" d="m333 329.5v-6.5h3.5 3.5v6.5 6.5h-3.5-3.5z"/>
			<path id="pCrsF4fTk" class="s0" d="m121 325.5c0-3.3 0.2-3.5 3.5-3.5 3.3 0 3.5 0.2 3.5 3.5 0 3.3-0.2 3.5-3.5 3.5-3.3 0-3.5-0.2-3.5-3.5z"/>
			<path id="pgEcPI5zD" class="s0" d="m96.6 314.4c-0.3-0.9-0.6-3.1-0.6-5 0-3.5 0.1-3.5 3.8-3.2 3.7 0.3 3.7 0.3 4 5.1l0.3 4.7h-3.4c-2.3 0-3.7-0.6-4.1-1.6z"/>
			<path id="p66iGB7qM" class="s0" d="m396 307.5c0-3.3 0.2-3.5 3.5-3.5 3.3 0 3.5 0.2 3.5 3.5 0 3.3-0.2 3.5-3.5 3.5-3.3 0-3.5-0.2-3.5-3.5z"/>
			<path id="pQqZwgeR3" class="s0" d="m324.3 304.3c-0.7-0.2-1.3-2-1.3-3.9 0-3 0.3-3.4 2.8-3.4 1.5 0 4.4 0.3 6.5 0.6 3.4 0.6 3.7 0.9 3.7 4v3.4l-5.2-0.1c-2.9 0-5.9-0.3-6.5-0.6z"/>
			<path id="poMnsDN1R" class="s0" d="m315 287.6c0-5.4 0.8-6.6 4.6-6.6 3 0 3.4 0.3 3.4 2.8 0 5.7-1 7.2-4.6 7.2-3.2 0-3.4-0.2-3.4-3.4z"/>
			<path id="p1EJOpbrZf" class="s0" d="m124 284.5v-3.5h5 5v3.5 3.5h-5-5z"/>
			<path id="peH2P3RcR" class="s0" d="m217.8 281.8c-2.9-1-4.3-4.9-3.6-10.4 0.3-2.6 0.7-2.9 4.1-3.2 3.4-0.3 3.7-0.1 3.7 2.3 0 3 2.1 5.5 4.4 5.5 1.2 0 1.6 1 1.6 3.5 0 3.4-0.1 3.5-3.7 3.4-2.1 0-5-0.5-6.5-1.1z"/>
			<path id="pml1UGYu3" class="s0" d="m229 279.5v-3.5h5.5 5.5v3.5 3.5h-5.5-5.5z"/>
			<path id="pqRFjYe0C" class="s0" d="m281 279.5v-3.5h8.5 8.5v3.5 3.5h-8.5-8.5z"/>
			<path id="p19eXorXwq" class="s0" d="m328.3 271.3c0.4-3.7 0.7-11.2 0.7-16.6v-9.8l4.3 0.3 4.2 0.3 0.3 12.1c0.2 7.8-0.2 13.4-1 16-1.2 3.6-1.6 3.9-5.2 4.2l-3.9 0.3z"/>
			<path id="pLgAk9pn3" class="s0" d="m294 268.5c0-3.3 0.2-3.5 3.5-3.5 3.3 0 3.5 0.2 3.5 3.5 0 3.3-0.2 3.5-3.5 3.5-3.3 0-3.5-0.2-3.5-3.5z"/>
			<path id="pS6Nk0P1w" class="s0" d="m381 257.4c0-4.2 1.3-4.6 13-4.2l8.5 0.3 0.3 3.6 0.3 3.7h-11l-11.1 0.1z"/>
			<path id="pJ11Le4KG" class="s0" d="m309 253.5c0-4.5 0-4.5 3.5-4.5 3.5 0 3.5 0 3.5 4.5 0 4.5 0 4.5-3.5 4.5-3.5 0-3.5 0-3.5-4.5z"/>
			<path id="p1HGcOQ1Zm" class="s0" d="m338.2 236.7c-2-5.4-1.3-11.6 1.2-11.7 0.6-0.1 2.4-2.8 4.1-6 2.7-5.5 3.2-6 6.2-6 3 0 3.3 0.3 3.3 3.1 0 3.7-4.7 12.9-6.7 12.9-1 0-1.2 1.2-0.7 5.5l0.7 5.5h-3.5c-2.9 0-3.6-0.4-4.6-3.3z"/>
			<path id="pW3unqA2V" class="s0" d="m401.8 232c-3-4.8-4.8-9-4.8-10.9 0-2.9 0.3-3.1 3.5-3.1 2.9 0 3.8 0.6 6.3 4.3 4.6 6.7 6.2 10.3 6.2 14.2 0 3.3-0.2 3.5-3.2 3.5-3-0.1-3.7-0.7-8-8z"/>
			<path id="p02K0HDlA" class="s0" d="m324.6 222.4c-0.3-0.9-0.6-2.9-0.6-4.5 0-2.6 0.3-2.9 3.4-2.9 3.7 0 4.6 1.2 4.6 6.1 0 2.6-0.3 2.9-3.4 2.9-2.2 0-3.6-0.6-4-1.6z"/>
			<path id="p4nF9nws6" class="s0" d="m412.8 198.8c-1-1.2-1.8-3-1.8-4 0-1-0.4-1.8-1-1.8-0.5 0-1-1.8-1-4 0-3.9 0.1-4 3.5-4 2.8 0 3.5 0.4 3.5 2 0 1.1 0.4 2 0.8 2 1.5 0 4.2 5.8 4.2 8.9 0 2.8-0.3 3.1-3.2 3.1-2.2 0-3.9-0.8-5-2.2z"/>
			<path id="pdDV3X0wT" class="s0" d="m287 155.5c0-3.3 0.2-3.5 3.5-3.5 3.3 0 3.5 0.2 3.5 3.5 0 3.3-0.2 3.5-3.5 3.5-3.3 0-3.5-0.2-3.5-3.5z"/>
			<path id="p9XTbspEv" class="s0" d="m369 150.5c0-3.4 0.1-3.5 4-3.5 3.9 0 4 0.1 4 3.5 0 3.4-0.1 3.5-4 3.5-3.9 0-4-0.1-4-3.5z"/>
			<path id="phSQFPxS8" class="s0" d="m220 148.6c0-0.9-1.9-1.6-6-2l-6-0.7v-3.4c0-3.2 0.3-3.5 2.9-3.5 4.9 0 9.1 1.2 9.1 2.6 0 0.9 1.2 1.4 3.5 1.4 3.3 0 3.5 0.2 3.5 3.5 0 3.3-0.2 3.5-3.5 3.5-2.3 0-3.5-0.5-3.5-1.4z"/>
			<path id="p1G6jL4VG" class="s0" d="m348 142.5c0-3.3 0.2-3.5 3.5-3.5 3.3 0 3.5 0.2 3.5 3.5 0 3.3-0.2 3.5-3.5 3.5-3.3 0-3.5-0.2-3.5-3.5z"/>
			<path id="pWhWBpjtC" class="s0" d="m172 141.6c0-3.3 0.1-3.4 4.8-4 2.6-0.4 10-0.9 16.5-1.2l11.7-0.6v3.6c0 2.1-0.6 3.8-1.2 4-0.7 0.3-8.2 0.7-16.5 1l-15.3 0.6z"/>
		</g>
	</g>
	<g id="lMik4CLN73ON8vMgYlWFmX">
		<g>
			<path id="pidhFnREe" class="s1" d="m236 489.9c-43.1-5.6-78.6-19.5-109-42.5-24.1-18.3-46.1-42.3-60-65.5-13.9-23-23.2-46.7-28.9-73.4-1.2-5.5-2.6-12-3.2-14.4-1.6-6.9-2.3-39.4-1.1-49.1 3.2-24.9 5.1-34.2 10.6-51 14.2-43.7 38.6-79.7 74.1-109.5 14.8-12.4 26.5-20.1 44.2-28.9 24.8-12.4 50.6-20 77.8-22.7 12.6-1.3 40.8-0.6 50 1.1 2.8 0.5 8.5 1.4 12.8 1.9 10.2 1.3 32.2 8 45 13.7 35.1 15.5 60.9 34.9 86.2 64.4 10.7 12.6 23.6 33.6 32.3 53 9.5 21 19.2 61.9 19.2 80.9 0 7.4-0.2 8.1-2 8.1-1.8 0-2-0.7-2-7.2-0.1-16.3-8.6-54.4-16-71.3-0.9-2.2-2.3-5.5-3.1-7.4-6.3-15.5-19.4-37.2-30.9-51-3.9-4.7-5.6-6-8.2-6.3-3-0.3-3.3-0.7-3.6-3.8-0.3-2.6-1.6-4.8-5.5-8.9-17.9-18.5-47.8-38.2-73.2-48.2-5.5-2.2-11-4.4-12.2-4.9-1.5-0.6-2.3-0.6-2.3 0 0 0.6-1.8 1-4 1-3.3 0-4-0.3-4-2 0-3.2-5.9-4.5-36.2-8.4l-9.8-1.3v2.4c0 1.9-0.5 2.3-2.9 2.3-4.2 0-6.1-1-6.1-3.1 0-1.7-0.8-1.9-6.8-1.9-16.5 0-43 4.7-62.5 11-18.6 6.1-45.7 20.1-60.2 31.2-2.7 2.1-7.5 5.7-10.5 8-6.8 5.1-28.4 27-35.5 35.8-13.6 17.1-28.9 43.7-36.2 63-3.7 9.7-9.1 27.5-10.7 35.5-5.5 26.6-6 56.7-1.2 78.5 5.9 27.2 10.5 41.1 20.1 60.5 8.4 17.2 15.8 28.8 27.2 43 14.1 17.5 39.6 40.6 56.3 50.9 5.8 3.6 8.3 4.6 11.7 4.6 3.9 0 4.3 0.2 4.3 2.4 0 1.9 1.3 2.9 8 6 14.5 6.6 21.4 9.1 36 13 41.2 11 83.2 9.7 124.2-3.8 11.4-3.8 31.1-12.3 40.3-17.5 7.5-4.3 23.5-15.2 29.6-20.3 2.6-2.1 4.9-3.8 5.3-3.8 0.3 0 2.4-2 4.7-4.5 2.3-2.5 5-4.5 6-4.5 1.2 0 1.9-0.7 1.9-1.8 0-1.1 0.9-2.7 1.9-3.7 1.1-0.9 2.1-3.3 2.3-5.4 0.3-3.4 0.5-3.6 3.9-3.9 3.3-0.3 4.4-1.2 10.1-8.5 24.6-31.2 40.3-66.6 44.8-101.2 0.6-4.4 1.5-10.8 2-14.1 0.6-3.4 1-10.7 1-16.3 0-9.6 0.1-10.1 2.1-10.1 2.1 0 2.2 0.2 1.6 15.3-0.3 8.3-0.8 16.8-1.1 18.7-0.4 1.9-0.8 5.3-1.1 7.5-2.7 21.4-13.1 52.1-24.1 71.2-13.2 22.8-19.7 31.6-35.3 47.6-29.2 29.9-54.4 45.9-92.9 59.1-16 5.5-28 8.1-45.4 10.1-14.6 1.6-39 1.8-49.8 0.4z"/>
			<path id="pujaNu4TO" class="s1" d="m256 482.5c0-3.3 0.2-3.5 3.5-3.5 3.3 0 3.5 0.2 3.5 3.5 0 3.3-0.2 3.5-3.5 3.5-3.3 0-3.5-0.2-3.5-3.5z"/>
			<path id="p1834q43XG" class="s1" d="m309 416.5c0-3.3 0.2-3.5 3.5-3.5 3.3 0 3.5 0.2 3.5 3.5 0 3.3-0.2 3.5-3.5 3.5-3.3 0-3.5-0.2-3.5-3.5z"/>
			<path id="pglXVJ05q" class="s1" d="m200 403.5c0-1.2-1.8-1.5-9.9-1.5-11 0-22-1.9-36.1-6.2-4.8-1.5-14.7-6.6-19.4-10-2.1-1.5-4.3-2.8-4.7-2.8-0.8 0-6.9-5.3-14.3-12.6-3.8-3.7-7.4-8.3-16.4-20.9-1.6-2.2-4.3-6.9-6.1-10.5-1.8-3.6-4.1-7.8-5.1-9.5-1-1.6-1.9-3.6-1.9-4.4-0.1-0.8-0.7-1.9-1.5-2.5-0.7-0.6-2.6-7.4-4-15.1-1.5-7.7-3.1-15.4-3.6-17.1-0.6-1.7-1.3-12.6-1.7-24.2-0.5-16.7-0.9-21.2-2-21.2-0.7 0-1.3-1.1-1.3-2.5 0-2-0.5-2.5-2.5-2.5-2.2 0-2.5-0.4-2.5-3.5 0-3.4 0.1-3.5 4-3.5 3.3 0 4 0.3 4 2 0 3.5 1.9 2.2 2.5-1.7 1-6 2.6-13.5 3.6-17.3 2.6-8.9 9.4-26.7 10.9-28.5 1-1.1 3.8-5.8 6.2-10.5 3.2-5.9 7-11 12.4-16.7 8.3-8.6 21.1-19.3 23.1-19.3 0.6 0 2.4-1 4-2.2 4-3.3 8.8-5.8 11-5.8 1 0 3.7-1.1 6.1-2.5 4.6-2.6 9.6-3.9 23.7-6 15.7-2.4 25.4-1.9 42 2.1 3.9 0.9 9.6 1.9 12.8 2.1 4.7 0.4 5.7 0.8 5.7 2.3 0 1 1.6 3.2 3.5 4.9 1.9 1.7 3.5 3.4 3.5 3.9 0 1.4 3.5 4.2 5.3 4.2 0.9 0 1.7 0.7 1.7 1.5 0 0.9 0.9 1.5 2.4 1.5 1.3 0 2.9 0.7 3.6 1.5 1.5 1.9 4.9 1 6.8-1.6 0.7-1.1 3.1-2.2 5.3-2.5 2.3-0.4 4.9-1.6 5.9-2.7q3-3.2 9-5.7c4.8-2 5.5-2.7 5.8-6.4 0.3-3.4 0.5-3.6 3.8-3.6 2.4 0 3.4 0.5 3.4 1.5 0 1.9 0.1 1.9 9.6-0.6 11.3-3 43.7-3.3 53.4-0.5 3.6 1.1 6.9 2.3 7.5 2.7 0.5 0.5 1.7 0.9 2.7 0.9 2.9 0 14.9 6.4 20.3 10.9 3.6 3 5.9 4.1 8.2 4.1 3 0 3.3 0.3 3.3 2.8 0 2.9 2.6 6.2 4.8 6.2 0.7 0 1.2 0.6 1.2 1.3 0 1.3 2.4 2.8 6.3 4.1 1.1 0.3 1.7 1.6 1.7 3.5 0 1.6 0.6 3.1 1.5 3.5 0.8 0.3 1.5 1.3 1.5 2.1 0 0.9 1.6 4 3.5 6.9 1.9 2.9 4.4 7.2 5.5 9.7 1.2 2.4 3.6 7.1 5.4 10.4 1.8 3.3 4 8.3 4.9 11 5.6 17.9 6.2 20.7 8.3 45.3 0.7 7.1 0.7 7.2 3.5 7.2 2.6 0 2.9 0.3 2.9 3.5 0 3.1-0.4 3.6-2.9 4.1-2.7 0.6-2.9 1-3.5 6.6-0.3 3.4-0.6 8.9-0.6 12.2 0 3.4-0.4 6.6-0.9 7.1-0.5 0.6-1.6 4.2-2.4 8l-1.4 7 2.4 0.3c2 0.3 2.3 0.9 2.3 4.3 0 3.8-0.1 3.9-3.5 3.9-2.8 0-3.7 0.5-5 3-0.8 1.6-1.5 3.5-1.5 4.3 0 0.7-2.3 5.8-5.1 11.3-2.8 5.4-6 11.6-7 13.7-1.1 2-2.4 3.7-2.9 3.7-0.5 0-1.1 0.9-1.5 2-1.7 5.3-25.3 28.8-32.7 32.5-2.9 1.5-6.6 3.4-8.3 4.3-1.6 1-6.4 3.2-10.5 5-13.3 5.7-39.3 7.9-55 4.7-4.1-0.9-9.5-1.9-11.9-2.2-2.4-0.3-6.3-1.6-8.5-2.9-2.3-1.3-4.9-2.4-5.9-2.4-2.4 0-12.7-10.5-12.7-13 0-2.4-3.7-2.8-4.6-0.5-0.7 1.6-8.4 2.2-8.4 0.6 0-0.9-10.8-2.1-12.7-1.4-0.7 0.3-1.3 1.3-1.3 2.3 0 1-1.2 2.8-2.6 4.1-1.4 1.3-3.5 3.2-4.6 4.2-5 4.7-15.1 8.7-27 10.9-4.6 0.9-5.8 1.5-5.8 2.9 0 1.6-0.8 1.9-4.5 1.9-3.3 0-4.5-0.4-4.5-1.5zm8.2-10.9c12.7-2.7 24.8-7.8 28.9-12.2 2.8-3 1.5-5.3-1.5-2.6-8 7.3-32.1 13-49.5 11.7-20.2-1.6-34.5-7-50.5-18.9-27.2-20.4-46.3-59-46.5-94.3l-0.1-7.3h3.9c3.4 0 4.4 0.5 6.5 3.3 1.5 1.9 2.6 4.3 2.6 5.3 0 4.8 8.8 24.4 13.8 30.6 4.6 5.8 14.2 16 14.2 15.1 0-0.4-2.3-3.3-5-6.3-9.6-10.5-14.1-17.8-18.4-30.3-2.4-6.7-2.7-8.7-2.1-14.2 0.4-3.6 1.1-6.8 1.6-7 0.4-0.3 0.5-2.7 0.2-5.4l-0.6-4.9 5.9-0.6c3.3-0.4 10.4-0.9 15.9-1.2 5.5-0.3 10.3-0.9 10.8-1.3 0.4-0.4-0.4-1.4-1.8-2.1-2.1-1.1-3.6-1.2-8.4-0.2-3.1 0.7-7.3 1.2-9.2 1.2-1.9 0-4.3 0.7-5.3 1.5-1.1 0.8-3.5 1.5-5.3 1.5-3.1 0-3.3-0.2-3.3-3.2 0-11.3 10.1-29.7 24.3-44.5 2.4-2.5 3.5-4.3 2.7-4.2-1.5 0-10.1 9.6-15.8 17.5-6.6 9.1-14.2 25.7-14.2 31.1 0 4.4-1.3 5.4-7.5 6l-5.8 0.6 0.6-9.5c2.4-37.1 20.3-73.5 45-92 8.3-6.2 26.9-15.8 30.6-15.8 1.1 0 2.2-0.4 2.5-0.9 0.3-0.5 5.2-1.5 10.8-2.2 7.8-1 10.3-1 10.6-0.1 0.5 1.5 8.8 1.6 9.7 0.2 2.1-3.3 26.2 2.6 35 8.6 4.4 3 6.6 2.2 2.8-1-5-4.1-9.7-6.4-19.3-9.8-8.8-3-10.5-3.2-22.5-3.3-8 0-14.7 0.5-17.5 1.3-13.4 4-21 6.6-21 7.2 0 0.4-1.6 1.1-3.5 1.4-1.9 0.4-3.5 1-3.5 1.5 0 0.4-1.5 1.5-3.2 2.5-8.9 4.7-13.7 8.4-23.9 18.5-20.5 20.5-35.4 54.6-37.8 86.6-1.3 16.3 0.9 39.9 4.8 52.5 0.6 1.9 1.6 5.6 2.3 8.3 0.7 2.6 1.6 4.7 2 4.7 0.5 0 0.8 0.7 0.8 1.6 0 4.2 13 26.2 21.6 36.6 6 7.2 18 18.8 19.5 18.8 0.5 0 0.9 0.4 0.9 0.9 0 0.5 1.2 1.6 2.8 2.4 1.5 0.8 5.7 3.3 9.4 5.5 15.8 9.8 42.3 14.5 60 10.8zm139.8-0.5c15.2-3 26.3-8 39.9-17.9 12.8-9.4 30.2-30.1 35.4-42.2 0.8-1.9 2.8-6.4 4.5-10 2.8-6 4.4-10.5 8.6-24.5 0.8-2.7 2.2-12.2 3.2-20.9 1.4-13.2 1.5-17.5 0.6-25-2-16.3-3.2-22.6-5.2-28.9-1.1-3.4-2.8-8.7-3.7-11.7-3.6-11.6-17-34.5-25.7-43.9-11.7-12.7-18.5-18.1-30.6-24.4-14.8-7.7-25.8-10.7-39.4-10.7-8.2 0-18.2 1.4-22.1 3-1.1 0.5-3.1 1.2-4.5 1.6-2.8 0.8-10.7 4.1-13 5.5-0.8 0.5-3.1 1.8-5.2 2.9-3.2 1.7-7.8 6.7-7.8 8.4 0 1.3 2.1 0.4 4.9-2.2 3.5-3.2 16.8-10.1 22.1-11.4 10-2.6 14.5-3 29.5-2.5 8.8 0.3 17.6 1.1 19.5 1.8 13.1 4.5 14.7 5.3 25.5 12.5 8.8 5.7 19 15.6 26 24.9 8.9 11.9 18.4 33.6 21.6 49.5 2.4 11.9 2.8 14.8 2.8 22.3l0.1 7.7h-3.3c-5.5 0-9.7-2.6-9.7-6 0-1.6-0.4-3.2-1-3.5-0.5-0.3-1-1.4-1-2.4 0-0.9-1.1-4.1-2.5-6.9-1.4-2.9-2.5-5.4-2.5-5.7 0-2.7-22-30.5-24.2-30.5-0.5 0 1.7 2.9 5 6.5 10.6 11.3 18.1 23.6 21.2 34.8 2.4 8.7 2.6 12.7 0.5 12.7-1.2 0-1.5 1.4-1.5 6.4 0 3.5-0.3 7.8-0.6 9.5-0.5 2.4-0.3 3.1 1 3.1 1.3 0 1.6 1 1.6 4.8 0 10.1-6.9 23.7-19.4 38.2-6.9 8-8.1 11.5-1.5 4.1 12.5-13.7 21.5-29.5 23.9-41.6 1.6-8.6 2-9.5 3.5-9.5 0.7 0 1.5-0.9 1.8-2 0.7-2.6 7.1-2.9 8.1-0.4 0.8 2.1 0.6 12.6-0.4 19.4-4.5 31.5-16.9 57.1-36.6 76.1-18.2 17.3-38.6 25.7-62.9 25.8-17.5 0.1-37.5-5.1-46.4-12-1.3-1-2.8-1.6-3.3-1.3-1 0.6 2.9 5.4 4.4 5.4 0.5 0 2.6 1.1 4.7 2.4 4.7 3 16.6 7.1 24.6 8.5 5.3 1 7.8 1.3 17.5 1.9 1.4 0.1 6.8-0.7 12-1.7zm3.8-46.1c1.6-3.1 0.7-21.6-1.5-30.5-2.6-10.8-6.3-19.7-8.8-21.7-3.4-2.7-3.4-9.1 0-15.8 7-13.8 7.3-20 1.5-31.6-3.4-6.8-4-9-4-14.3 0-5.1 0.5-6.8 2.5-9.5 3.7-4.8 7.4-14 8.9-21.9 1.2-6 1.2-7.7 0-11.1-4.7-13.3-9.7-7.8-12.4 13.9-0.6 4.4-1.8 10.8-2.7 14.3l-1.6 6.2h-3.9c-4.6 0-4.3 0.4-8.9-16.5-5.2-19.5-7.1-23.7-9.9-22-1.6 1-5 8.1-5 10.4 0 3 2.9 9.9 6.7 15.8 5.8 9.1 8.1 15.7 8.9 24.8 0.5 6.8 0.4 8.9-0.8 10.3-4.8 5.7-5.3 15.3-1.3 26.7 3.3 9.3 3.1 15.7-0.7 20.7-8.4 11.3-15.6 31.9-14.5 41.5 0.5 4.7 3.4 9.6 5.8 10 3.7 0.7 4.3-1.5 7.8-28.2 0.5-3.3 1.9-9 3.2-12.7 2.5-7.4 2.4-7.4 11.1-6.2l4.5 0.6 0.7 7.7c0.4 4.2 1.1 9.4 1.6 11.6 0.5 2.2 1.4 8.3 2.1 13.5 1.4 10.8 2.3 13.8 4.7 15.7 2.4 1.8 4.4 1.2 6-1.7zm-174.9-0.6c2.6-3.3 4.3-9.8 7-26.8 2.7-16.8 3.9-19.6 8.5-19.6h3.3l1.2 7.8c2 13.1 8.8 32.7 12 34.6 0.5 0.4 2.3-0.6 4-2 2.7-2.2 3.1-3.3 3.1-7.2 0-7.8-2.7-14.8-13.4-34.7-1.5-2.7-3.1-5.4-3.7-5.9-1.2-1.3-1.2-13.3 0.1-14.1 0.5-0.3 1.9-2.7 3.1-5.3 3-6.7 2.3-16-2-24.6-4.9-9.9-4.3-13.1 4.7-26.8 6.2-9.6 11-22 11.3-29.1 0.2-5.3 0-6.1-2.8-8.9-2.7-2.7-3.3-2.8-5.1-1.7-2.7 1.7-3.5 3.8-6.6 17.9-1.5 6.3-3.8 14.3-5.2 17.8-2.6 6-2.7 6.2-6.4 6.2h-3.7l-1.1-7.2c-0.6-4-1.6-13.4-2.2-20.8-1.4-17.5-1.8-19.8-4.3-21.5-1.9-1.3-2.3-1.3-4.3 0.6-3.9 3.6-4.7 7.1-4.2 18.6 0.5 12 2.7 20.1 8.1 29.1 7.5 12.6 8.2 16 4.8 21.6-5.3 8.6-6.5 22.3-3 32.2 4 11.2 3.8 13.9-2.4 26.6-5.8 11.9-7.1 16.4-8.7 29-1 8.1-0.4 11.6 2.7 15 2.1 2.4 2.8 2.3 5.2-0.8zm159.8-17.6c-0.2-1.3-0.4-0.5-0.4 1.7-0.1 2.2 0.1 3.2 0.4 2.3 0.2-1 0.2-2.8 0-4zm-3.8-26.2c-0.2-0.2-2-0.6-3.9-1-2.5-0.4-3.1-0.3-2 0.4 1.4 0.9 6.9 1.5 5.9 0.6zm65.6-21.7c8-0.9 12.9-2.8 11.3-4.4-0.3-0.3-3.6-0.1-7.4 0.5-3.8 0.5-9.5 1-12.6 1-6 0-8 1.2-5.1 2.9 2.3 1.3 2.9 1.3 13.8 0zm-262.1-0.5c3.3-1.3 0.2-2.4-6.4-2.4-3.8 0-7.2-0.4-7.5-1-0.3-0.5-2.9-1-5.8-1-4.9 0-5 0.1-3.4 1.7 2.3 2.3 19 4.3 23.1 2.7zm106.9-4.9c4-1.6 1-2.5-8.7-2.5-8.1 0-10.5 0.3-10.9 1.4-0.4 0.9 0.1 1.7 1.1 2 2.2 0.7 16.2 0 18.5-0.9zm52.6 0.4c1.7-0.6 3.1-1.5 3.1-1.9 0-1-19.7-1.8-21.2-0.9-0.6 0.4 0.2 1.4 1.8 2.3 3.4 1.8 11.8 2.1 16.3 0.5zm-76.9-2.5c0-0.8-0.4-1.2-1-0.9-0.5 0.3-1 1.3-1 2.1 0 0.8 0.5 1.2 1 0.9 0.6-0.3 1-1.3 1-2.1zm171-15.4c2.4-0.8 2.4-0.8-0.5-0.9-1.6 0-3.7 0.4-4.5 0.9-1.2 0.8-1.1 1 0.5 0.9 1.1-0.1 3.1-0.5 4.5-0.9zm-145.5-2.9c0.3-0.6-0.4-1.5-1.5-2.1-2.5-1.4-20.6-0.9-20.2 0.5 0.1 0.6 3 0.9 6.6 0.7 3.9-0.2 6.6 0.1 7.1 0.7 0.8 1.4 7.2 1.5 8 0.2zm166.3-0.7c-4.6-4.6-32-5.8-29.3-1.3 0.4 0.5 5.4 0.9 11.3 1 5.9 0.1 11.8 0.5 13.2 0.9 1.4 0.4 3.4 0.8 4.5 0.9 1.8 0.1 1.8 0 0.3-1.5zm-112.4 0c3.4-1.3 0.1-2.4-7.3-2.4-4.5 0-8.2-0.5-8.8-1.1-0.9-0.9-1.9-0.7-4 0.7l-2.8 1.9 10 0.6c5.5 0.3 10.3 0.6 10.7 0.7 0.3 0.1 1.3-0.1 2.2-0.4zm109.2-22.1c-1.5-2.7-3.8-6.2-5.2-7.8l-2.6-3 2.1 3.5c1.2 1.9 3.4 5.6 4.8 8.2 3.6 6.1 4.3 5.4 0.9-0.9zm-65.6-0.5c-0.1-2.6-0.3-3-1-1.6-0.6 0.9-0.7 2.3-0.4 3.2 0.9 2.5 1.4 1.9 1.4-1.6zm-140.5-90.8c0.8-1.2-14.1-1.2-17 0q-2 0.9 7.2 0.9c5.1 0.1 9.5-0.3 9.8-0.9z"/>
			<path id="p14Xgxj0Ob" class="s1" d="m328.7 275.3c-0.3-1.6-0.5-9-0.5-16.5v-13.8h3.4c2.8 0 3.4 0.4 3.4 2.1 0 1.2 0.8 2.3 2 2.6 1.8 0.5 2 1.4 2 9.2 0 5-0.7 11-1.5 13.9-1.5 4.9-1.7 5.2-5 5.2-2.9 0-3.4-0.4-3.8-2.7zm5.8-7.7c0.9-6.2 0.2-18.9-1.1-19.3-0.8-0.3-1.1 2.6-1 9.4 0 5.4-0.3 11.6-0.7 13.8-0.7 3.7-0.6 3.8 0.7 2.1 0.9-1 1.8-3.7 2.1-6z"/>
			<path id="pubSCL53I" class="s1" d="m189 263v-15h3.5 3.5v9.8c0 5.3 0.3 12.1 0.6 15l0.7 5.2h-4.2-4.1z"/>
			<path id="pJqdRtSJD" class="s1" d="m384 401.5c0-3.3 0.2-3.5 3.5-3.5 3.3 0 3.5 0.2 3.5 3.5 0 3.3-0.2 3.5-3.5 3.5-3.3 0-3.5-0.2-3.5-3.5z"/>
			<path id="p40TV8XU2" class="s1" d="m53 285.5c0-3.4 0.1-3.5 4-3.5 3.9 0 4 0.1 4 3.5 0 3.4-0.1 3.5-4 3.5-3.9 0-4-0.1-4-3.5z"/>
			<path id="pGDblJ4r8" class="s1" d="m280 124.5c0-3.4 0.1-3.5 4-3.5 3.9 0 4 0.1 4 3.5 0 3.4-0.1 3.5-4 3.5-3.9 0-4-0.1-4-3.5z"/>
			<path id="pr5dm2LOp" class="s1" d="m120 115.5c0-3.4 0.1-3.5 4-3.5 3.9 0 4 0.1 4 3.5 0 3.4-0.1 3.5-4 3.5-3.9 0-4-0.1-4-3.5z"/>
			<path id="pKawy9XAy" class="s1" d="m142 94.5c0-3.3 0.2-3.5 3.5-3.5 3.3 0 3.5 0.2 3.5 3.5 0 3.3-0.2 3.5-3.5 3.5-3.3 0-3.5-0.2-3.5-3.5z"/>
			<path id="pYY3YTaS8" class="s1" d="m359 87.5c0-3.3 0.2-3.5 3.5-3.5 3.3 0 3.5 0.2 3.5 3.5 0 3.3-0.2 3.5-3.5 3.5-3.3 0-3.5-0.2-3.5-3.5z"/>
		</g>
	</g>
	<g id="l6oy4H30I6QhGgpztRGKAsM">
		<g>
			<path id="plzWiLTvn" class="s2" d="m239 489.3c-8.1-0.6-28.3-4.3-38-6.9-38.1-10.2-66.5-26.6-97.2-56.2-19.9-19.2-33.9-38.4-46.3-63.7-9.6-19.4-14.2-33.3-20.1-60.5-4.9-22.3-4.4-57.5 1.2-84.5 1.6-8 7-25.8 10.7-35.5 7.3-19.3 22.6-45.9 36.2-63 7.1-8.8 28.7-30.7 35.5-35.8 3-2.3 7.8-5.9 10.5-8 14.4-11 41.6-25.1 60.2-31.2 22-7.2 46-11 68.8-11 11.8 0 18.3 0.6 43.5 4 28.3 3.8 67.9 22 95.5 43.8 28 22.2 54.2 56.3 66.4 86.3 0.8 1.9 2.2 5.2 3.1 7.4 5.3 12.1 11 34.1 15 58 2.7 15.8 1.7 51.2-2.1 73-6.2 36.5-21.3 70-44.8 99.5-7.2 9-24.9 26.9-33.5 33.9-8.6 6.9-23.9 17.5-32.1 22.2-15.6 8.8-39.6 18.1-60.4 23.4-16.4 4.1-51.1 6.4-72.1 4.8zm-29-91.8c4.1-0.7 9.3-1.8 11.5-2.4 4.7-1.2 14.5-6.2 17.3-8.8 1.1-1 3.2-2.9 4.6-4.2 1.4-1.3 2.6-3.1 2.6-4.1 0-1 0.9-2.2 2-2.5 3-0.9 17.4 0.6 18.2 1.9 0.5 0.7 1.2 0.5 2.1-0.8 1-1.3 2.7-1.9 5.8-2 3.9-0.1 4.4 0.2 4.7 2.3 0.4 2.8 10.5 13.1 12.8 13.1 0.9 0 3.7 1.1 6.3 2.4 2.5 1.4 6.2 2.7 8.1 2.9 1.9 0.2 7.3 1.2 12 2.2 18.5 3.7 42.8-0.2 59.5-9.7 1.7-0.9 5.4-2.8 8.3-4.3 7.4-3.7 31-27.2 32.7-32.5 0.4-1.1 1-2 1.5-2 0.5 0 1.8-1.7 2.9-3.7 1-2.1 4.2-8.3 7-13.7 2.8-5.5 5.1-10.6 5.1-11.3 0-0.8 0.7-2.8 1.7-4.6 1.7-3.4 2.3-5.5 4.9-17.7 0.9-4.1 1.8-7.9 2.1-8.4 1.9-3 2.3-36.3 0.6-50.6-1.7-14.2-6.6-30.7-11.9-40.5-1.8-3.3-4.2-8-5.4-10.4-1.1-2.5-3.6-6.8-5.5-9.7-1.9-2.9-3.5-5.8-3.5-6.5 0-0.7-1.8-2.7-4-4.6-2.2-1.9-4-4.1-4-4.9 0-0.8-0.7-1.7-1.5-2-0.8-0.4-1.5-1.2-1.5-2 0-0.8-0.6-1.4-1.3-1.4-0.7 0-3.1-1.7-5.3-3.7-11.5-10.7-26.1-20.3-31.2-20.3-1 0-2.2-0.4-2.8-0.9-5.4-4.8-39-6.1-55.1-2.1-8.1 2.1-14.8 4.6-18.3 7-0.8 0.5-2.6 1.5-4 2-4.2 1.8-6.7 3.5-10.1 6.8-2 2-3.6 2.8-4.3 2.3-1.4-1.1-5.2 0.3-6.4 2.4-1.4 2.5-9.7 3.3-12.1 1.1-1.2-1.1-2.7-1.5-4.4-1.1-3 0.8-7.1-1.1-6.3-3 0.2-0.7-0.2-1.9-1-2.5-0.8-0.7-1.4-1.6-1.4-2.1 0-1.3-6.2-6.8-7.7-6.9-0.6 0-3.3-1.2-6.1-2.6-5.4-2.8-13.4-4.8-26.2-6.5-7-1-10.5-0.9-19.5 0.4-15.9 2.2-20.9 3.5-25.7 6.3-2.4 1.4-3.6 2.3-2.8 2.1 2.1-0.7 14.7-4.6 19.5-6 2.4-0.7 10.6-1.2 20-1.2 15.4 0 16.3 0.2 25.3 3.3 14.7 5.1 22.2 10.1 22.2 14.9 0 6-4.2 6.9-10.8 2.3-4.9-3.3-13.1-6.6-20.4-8.1-3.2-0.7-4.8-1.6-4.8-2.6 0-1.3 0.9-1.5 5.8-0.9 3.1 0.4 5.9 1.1 6 1.6 0.2 0.6 1.4 1 2.8 1 4.1 0 10.4 3 10.4 5 0 1.3 1 1.9 3.5 2.2 2.9 0.3 3.5 0.1 3.5-1.4 0-1-0.7-1.8-1.5-1.8-0.9 0-3.4-1.2-5.7-2.6-15-9.5-43.3-11.9-62.8-5.4-9.5 3.2-24.5 10.1-26 12-0.3 0.3-2.3 1.7-4.5 3-2.2 1.3-4.4 3-4.8 3.7-0.4 0.7-1.2 1.3-1.6 1.3-1 0-16.1 14.9-16.1 15.9 0 0.3-1.4 2.1-3 3.9-1.6 1.8-3 3.7-3 4.3 0 0.5-0.4 0.9-1 0.9-0.5 0-1 0.7-1 1.5 0 0.8-0.4 1.5-0.9 1.5-0.5 0-1.2 1.1-1.5 2.5-0.4 1.4-1.1 2.5-1.6 2.5-0.6 0-1 0.9-1 2 0 1.1-0.4 2-1 2-0.5 0-1 0.9-1 2 0 1.1-0.3 2-0.8 2-0.4 0-1.2 1.5-1.8 3.3-0.7 1.7-2.1 5.7-3.2 8.7-3.8 10.5-7.1 23.1-8.7 33.3-0.4 2.5-1.1 3.7-2.3 3.8-1 0-1.2 0.3-0.4 0.6 1.5 0.6 1.8 24.3 0.2 24.3-0.5 0-1 1.6-1 3.5 0 2.4 0.5 3.5 1.4 3.5q1.5 0 2.1 4.8c1.5 11.3 3.9 21.3 7.1 30.2 3.8 10.3 9.1 21.7 11.2 23.8 0.6 0.7 1.2 1.8 1.2 2.3 0 0.5 0.7 1.7 1.6 2.7 4.1 4.6 8.4 11.3 8.4 13.1q0 2.1 1.8 2.1c2.3 0 4.2 1.9 4.2 4.2 0 1.1 0.7 1.8 1.8 1.8 2.2 0 7.2 5.3 7.2 7.5 0 0.8 0.9 1.5 2 1.5 1.1 0 2 0.5 2 1 0 0.6 0.7 1 1.5 1 0.9 0 1.8 0.7 2.1 1.5 0.4 0.8 1.5 1.5 2.5 1.5 1 0 1.9 0.5 1.9 1 0 0.6 0.7 1 1.5 1 0.8 0 1.5 0.5 1.5 1 0 0.6 0.7 1 1.5 1 0.8 0 1.5 0.3 1.5 0.8 0 0.4 1.5 1.2 3.3 1.9 1.7 0.6 6.9 2.5 11.4 4.1 4.6 1.6 12.1 3.6 16.8 4.3 5.8 0.8 8.5 1.6 8.5 2.6 0 0.9 1.7 1.3 6.5 1.3 4.8 0 6.5-0.4 6.5-1.4 0-0.8 2.6-1.9 7.3-2.9 11.7-2.5 19.7-5.1 22.7-7.4 6.6-5.1 8-6.7 8-8.9 0-2.9 1.1-3.1 3.4-0.5 5.7 6.3-11.1 16.9-33.3 21.1-19.2 3.6-48.2-1.5-64-11.2-3.6-2.3-7.8-4.7-9.3-5.5-1.6-0.8-2.8-1.9-2.8-2.4 0-0.5-0.4-0.9-0.9-0.9-1.5 0-13.5-11.6-19.5-18.8-8.6-10.4-21.6-32.4-21.6-36.6 0-0.9-0.3-1.6-0.8-1.6-0.4 0-1.3-2.1-2-4.7-0.7-2.7-1.7-6.4-2.3-8.3-3.7-11.9-6.2-37.5-5.4-54 1-18.8 6.9-40.7 15.7-58.2 7-14.1 13.8-23.9 22.7-32.9 10.2-10.1 15-13.8 23.9-18.5 1.7-1 3.2-2.1 3.2-2.5 0-0.5 1.6-1.1 3.5-1.5 1.9-0.3 3.5-1 3.5-1.5 0-2.4-6.4 0.2-12.3 4.9-1.6 1.2-3.4 2.2-4 2.2-2 0-14.8 10.7-23.1 19.3-5.4 5.7-9.2 10.8-12.4 16.7-2.4 4.7-5.2 9.4-6.2 10.5-2.7 3.2-10.9 27-12.9 37.5-0.6 3-1.8 9.1-2.7 13.5-1.4 6.5-1.5 10.8-0.9 23.5 1 20.9 0.4 17.1 6 45 1 4.7 2.4 9 3.1 9.6 0.8 0.6 1.4 1.7 1.5 2.5 0 0.8 0.9 2.8 1.9 4.4 1 1.7 3.3 5.9 5.1 9.5 1.8 3.6 4.5 8.3 6.1 10.5 9 12.6 12.6 17.2 16.4 20.9 7.4 7.3 13.5 12.6 14.3 12.6 0.4 0 2.6 1.3 4.7 2.8 8.4 6.1 18.3 10.2 31.4 13.2 2.5 0.5 6.3 1.4 8.5 1.9 6.1 1.4 24.1 1.2 32.5-0.4z"/>
			<path id="pwTwQoW2I" class="s2" d="m326 396.3c-11.9-0.8-27.9-5.3-35.1-9.9-2.1-1.3-4.2-2.4-4.7-2.4-1.6 0-6.2-5.6-6.2-7.6 0-2.5 3-5.4 5.5-5.4 1 0 3.2 1.1 4.9 2.4 1.7 1.3 5 3.3 7.4 4.5 2.3 1.2 4.2 2.6 4.2 3.1 0 1.6-6.7 1.2-8.4-0.5-0.8-0.8-2.1-1.5-2.8-1.5-0.8 0-2-0.9-2.8-2-0.8-1.1-2.1-2-2.9-2-2.4 0 1.4 3.5 8.2 7.5 17.6 10.5 45.7 13.3 66.1 6.5 6.5-2.2 20.9-9.1 21.4-10.2 0.2-0.5 1-0.8 1.8-0.8 0.8 0 1.4-0.4 1.4-1 0-0.5 0.6-1 1.3-1 0.7 0 1.8-0.9 2.5-2 0.7-1.1 1.6-2 2.1-2 0.6 0 20.1-18.8 20.1-19.4 0-0.1 2.9-4.6 6.5-10.1 3.6-5.4 6.5-10.2 6.5-10.6 0-0.5 1.5-3.9 3.3-7.7 10.4-21.4 15.3-50.8 12.7-76.7-0.6-6.6-1.6-13.8-2.2-16-3.7-15-8-27-13.1-36.5-5.2-9.7-15.5-25.1-17.9-26.8-1-0.7-1.8-2.4-1.8-3.8 0-1.8-0.5-2.4-2.1-2.4-1.2 0-2.3-0.8-2.6-2-0.3-1.1-1.2-2-1.9-2-0.8 0-1.4-0.4-1.4-1 0-0.5-0.6-1-1.4-1-0.8 0-2.3-1.1-3.3-2.3-1-1.3-2.3-2.6-2.8-2.8-1.7-0.7-16-9.3-16.5-9.9-0.3-0.3-5-2.2-10.5-4-9.8-3.4-10.4-3.5-26-3.5-14.9 0-16.6 0.2-24.3 2.8-4.6 1.6-10.5 4-13 5.4-2.6 1.4-5.9 3.2-7.3 3.9-1.5 0.8-3.2 2.1-3.9 2.9-0.7 0.8-1.9 1.5-2.6 1.5-0.8 0-1.4 0.9-1.4 2.1 0 1.5 0.4 1.9 1.6 1.5 0.9-0.3 2-0.6 2.5-0.6 0.5 0 0.9-0.7 0.9-1.5q0-1.5 3-1.5c2.2 0 3-0.5 3-1.8 0-1.7 3.6-4.2 6.1-4.2 0.6 0 1.7-0.7 2.5-1.5 1.7-1.7 8.4-2.1 8.4-0.5 0 0.5-3.9 2.9-8.6 5.2-4.7 2.4-10.4 6-12.5 8.1-4.8 4.5-7.1 4.7-10 0.6l-2.1-3.1 3-4.1c2.6-3.7 8.7-8.4 13.2-10.3 0.8-0.3 3.3-1.4 5.5-2.4 2.2-0.9 5.1-2.1 6.5-2.4 1.4-0.4 3.4-1.1 4.5-1.6 6.9-2.9 31.2-4.1 41.7-1.9 8.2 1.7 16.5 4.7 25.8 9.6 12.1 6.3 18.9 11.7 30.6 24.4 8.7 9.4 22.1 32.3 25.7 43.9 0.9 3 2.6 8.3 3.7 11.7 1.1 3.4 2.5 9.5 3.1 13.5 0.6 4 1.5 10 2 13.3 0.5 3.3 0.9 9.4 0.9 13.5 0 9.9-2.6 33.1-4.6 40-3.3 12-5.7 18.8-8.6 25-1.7 3.6-3.7 8.1-4.5 10-3.2 7.5-12.2 19.9-20.6 28.7-24 24.8-48.6 34.8-79.7 32.6z"/>
			<path id="pQIlTrPIs" class="s2" d="m179 389.3c-1.9-0.3-6.8-1.3-10.7-2.4-4-1-7.5-1.9-7.8-1.9-0.3 0-0.5-1-0.5-2.1 0-2.4-0.6-2.4 12.8 1 5.2 1.4 11.8 2.2 17.7 2.3 8.4 0.2 9.5 0.4 9.5 2 0 1.6-0.9 1.8-8.7 1.6-4.9 0-10.4-0.3-12.3-0.5z"/>
			<path id="pA6OrxbaA" class="s2" d="m202 387.6c0-0.7 1-1.6 2.3-2 4.1-1.1 5.7-0.7 5.7 1.4 0 1.7-0.7 2-4 2-2.7 0-4-0.4-4-1.4z"/>
			<path id="p18FMKK6PW" class="s2" d="m317.5 387.9c-2.2-0.5-6.4-1.5-9.2-2.1-4.2-0.9-5.3-1.5-5.3-3 0-1.8 0.5-1.9 4.3-1.3 2.3 0.4 5 1.1 5.9 1.6 0.9 0.5 2.6 0.9 3.7 0.9 4.6 0 12.1 2.2 12.1 3.6 0 1.6-5.1 1.7-11.5 0.3z"/>
			<path id="pPohJQRcp" class="s2" d="m339 387.5c0-0.8 1.3-1.6 3.3-2 13.1-2.3 18-3.6 25.8-7.2 23.1-10.5 42.6-32.2 54-59.8 1.7-4.1 5.7-17.1 6.3-20.5 1.5-7.8 2.9-12 4.2-12 0.8 0 1.4 1 1.4 2.2 0 3.1-3.2 18.2-4 18.8-0.4 0.3-1 2.3-1.3 4.5-0.4 2.2-1.1 4.1-1.7 4.3-0.5 0.2-1 1.5-1 2.8 0 1.3-0.4 3.2-0.9 4.2-0.5 0.9-1.7 3.6-2.7 5.9-1.2 2.7-2.6 4.3-3.6 4.3-1.3 0-1.8 0.8-1.8 2.9 0 4.5-1 6.1-3.6 6.1-2.1 0-2.4 0.5-2.4 3.5 0 2.4-0.5 3.5-1.4 3.5-0.8 0-1.6 1-1.8 2.3-0.2 1.6-1.1 2.3-3 2.5-2.3 0.3-2.8 0.8-2.8 3.1 0 3.3-5.6 9.1-8.8 9.1-1.6 0-2.2 0.6-2.2 2.1 0 1.2-0.8 2.3-2 2.6-1.1 0.3-2 0.9-2 1.4 0 0.5-0.7 0.9-1.5 0.9-0.8 0-1.5 0.5-1.5 1 0 0.6-0.7 1-1.5 1-0.8 0-1.5 0.5-1.5 1 0 0.6-1.6 1-3.5 1-2.7 0-3.5 0.4-3.5 1.9 0 2-6.7 5.1-11.2 5.1-1.4 0-2.8 0.5-3 1.1-0.4 1.1-13.3 3.9-18 3.9-1.8 0-2.8-0.5-2.8-1.5z"/>
			<path id="pfRXI5eQ9" class="s2" d="m211 385.6c0-0.7 2.4-2.1 5.8-3.1 7-2.2 14.4-5.8 16.1-7.9 1.9-2.3 5.1-2 5.1 0.4 0 1.5-0.7 2-2.5 2-1.8 0-2.5 0.5-2.5 1.8 0 1.2-1.4 2.5-3.7 3.5-10.5 4.6-18.3 6-18.3 3.3z"/>
			<path id="probg6eX6" class="s2" d="m150.6 380.5c-0.8-0.8-2.2-1.5-3.1-1.5-0.9 0-1.9-0.9-2.2-2-0.4-1.3-1.4-2-2.9-2-1.4 0-2.7-0.7-3-1.5-0.4-0.8-1.2-1.5-2-1.5-0.9 0-1.4-1.1-1.4-3v-3l7.3 4.9c3.9 2.7 9.1 5.8 11.5 7 2.3 1.2 4.2 2.6 4.2 3.1 0 1.6-6.7 1.2-8.4-0.5z"/>
			<path id="pABhSb8H5" class="s2" d="m122.7 360.3c-0.4-0.3-0.7-1.9-0.7-3.5 0-2.3-0.4-2.8-2.6-2.8-1.7 0-2.8-0.6-3.1-2-0.3-1.1-0.9-2-1.4-2-0.5 0-0.9-0.9-0.9-2 0-1.1-0.7-2-1.5-2-0.8 0-1.5-0.7-1.5-1.5 0-0.8-0.4-1.5-1-1.5-0.5 0-1-0.7-1-1.5 0-0.8-0.4-1.5-1-1.5-0.5 0-1-1.1-1-2.5 0-1.6-0.6-2.5-1.5-2.5-0.9 0-1.8-1.2-2.1-3-0.4-1.6-1-3-1.5-3-0.5 0-0.9-0.9-0.9-1.9 0-1.1-0.5-2.1-1.1-2.3-1.5-0.5-2.5-9.8-1.1-9.8 0.6 0 3.3 4.6 6 10.3 5.3 11.1 13.7 23.5 21 31l4.6 4.7h-3.5c-2 0-3.9-0.3-4.2-0.7z"/>
			<path id="pOKZkh4Td" class="s2" d="m344.8 351.9c-2.6-1.5-2.2-2.9 1-2.9 3.3-0.1 6.2-2.1 6.2-4.4 0-1 0.8-1.6 2.1-1.6 1.9 0 2.1 0.4 1.5 3.3-1 5.5-6.3 8.2-10.8 5.6z"/>
			<path id="pIgWc5AYB" class="s2" d="m171 350.7c-4.6-2.3-6.2-7.1-5.5-16.7 1-14.4 3.2-22.7 9.2-34.8 3.1-6.3 5.3-12.1 5-13-0.3-0.9-1.5-4.4-2.6-7.6-2.7-7.7-2.8-12.6-0.2-12.6 1.5 0 2 1 2.6 4.8 0.4 2.6 1.5 6.6 2.6 8.9 2.9 6.4 2.4 10.1-2.5 20-6 11.9-8.4 19.4-9.6 30.2-0.8 7.4-0.8 9.8 0.4 12.5 2 4.8 3.5 5.4 6.1 2.4 2.2-2.6 4.4-11.5 7.1-28.8 0.9-5.8 2.3-12.2 3.2-14.2 1.5-3.3 2.1-3.8 5.4-3.8 4.2 0 4.1-0.2 5.8 11 2 13 9 32 11.9 32 1.5 0 6.1-6 6.1-7.8-0.1-4.8-3.5-15.2-8-23.9-2.7-5.3-5-10.3-5-11 0-0.7-0.3-1.3-0.7-1.3-1.4 0-4.3-6.1-4.3-9.1 0-3.2 2.4-4 3.4-1.1 0.3 0.9 1.8 3.7 3.2 6.2 5.6 9.6 11.5 21.9 13 27.1 0.9 3 1.7 8.5 1.7 12.3 0 6.6-0.2 7.1-3.2 9.8-2.6 2.3-4 2.8-6.9 2.6-3.1-0.3-4-0.9-5.9-4.3-3-5.3-7.8-21-9.5-31l-1.4-8-1.6 3.1c-1 1.7-2.7 9.4-3.9 17-1.2 7.6-2.8 16.3-3.6 19.2-2.3 8.5-7.2 12.4-12.3 9.9z"/>
			<path id="p9KUDw4Lf" class="s2" d="m313 347c0-2.5 0.4-3 2.4-3 1.8 0 2.3 0.4 1.9 1.8-0.2 1-1.3 2.3-2.4 3-1.7 1.1-1.9 0.9-1.9-1.8z"/>
			<path id="pFaO0WMNb" class="s2" d="m391.3 328.9c-1.7-0.6-2.3-1.6-2.3-4 0-2.4 1.6-5.1 7.3-11.8 11.2-13.3 18.7-27.2 18.7-34.5 0-2-0.2-1.9-2.3 0.6-1.7 2-3.5 2.8-7.4 3.3-4.8 0.6-5.3 0.5-5.3-1.3 0-1.6 0.9-2 6-2.6 5.8-0.7 6-0.8 6-3.6 0-2.8 0.3-3 3.5-3 3.4 0 3.5 0.1 3.5 3.8 0 4.7-2.8 15.6-4 16-1.2 0.5-1.3 4.2-0.1 4.2 0.5 0 1.1-1.3 1.5-3 0.4-2.4 1.1-3 3.1-3 2.1 0 2.3 0.3 1.6 2.3-0.5 1.2-1.8 3.8-2.8 5.7-1.1 1.9-3.4 6.1-5.2 9.2-1.8 3.1-3.9 6.2-4.6 6.8-1.3 1.1-1.5 0.7-1.5-2.4 0-2.9 0.4-3.6 2-3.6 1.6 0 2-0.7 2-3 0-1.6-0.4-3-0.8-3-0.4 0-1.3 1.4-1.9 3-0.8 2-1.8 3-3.2 3-1.6 0-2.1 0.6-2.1 2.5 0 1.8-0.5 2.5-1.9 2.5-1.4 0-2.1 0.8-2.3 2.8-0.2 1.6-1.2 3.1-2.5 3.7-1.3 0.5-2.3 1.8-2.3 2.7 0 1-0.1 2.1-0.2 2.5-0.2 0.4 0.5 0.9 1.5 1.1 1.3 0.3 1.7-0.3 1.7-2.3 0-3.4 2.4-5.7 5.5-5.3 2.6 0.3 2.6 0.3-1.6 5.1-5.1 5.8-6.7 6.7-9.6 5.6zm22.7-29.9c0-1.1-0.4-2-0.9-2-0.5 0-1.1 0.9-1.4 2-0.3 1.3 0 2 0.9 2 0.8 0 1.4-0.9 1.4-2z"/>
			<path id="peGZttk5E" class="s2" d="m126.8 326.9c-2.6-1.4-2.2-2.9 0.7-2.9 2 0 2.5-0.5 2.5-2.5 0-1.5-0.6-2.5-1.5-2.5-2.7 0-6.5-4.2-6.5-7.2 0-2.3-0.4-2.8-2.5-2.8-1.6 0-2.5-0.6-2.5-1.5 0-0.8-0.4-1.5-1-1.5-0.5 0-1-0.7-1-1.5 0-0.8-0.4-1.5-1-1.5-0.5 0-1-0.6-1-1.4 0-0.8-0.4-1.6-0.9-1.8-0.6-0.1-1.9-2.3-3-4.8l-2-4.5v3.3c-0.1 1.9-0.6 3.2-1.4 3.2-1.3 0-6.7-13.3-6.7-16.5 0-2-4.6-8.5-6.1-8.5-2.1 0 0 17.7 3.8 31.8l1.9 7.2h-2.1c-1.9 0-2.4-0.9-3.4-5.2-3.2-14.2-5.1-25.8-5.1-31v-5.8h3.5c1.9 0 3.5 0.5 3.5 1 0 0.6 1.1 1 2.5 1 2.5 0 4.5 2.5 4.5 5.6 0 0.9 1 4.4 2.3 7.8l2.2 6.1 0.5-4c0.4-3.2 0.2-4.1-1.2-4.3-1.4-0.3-1.6-1.6-1.6-8.3 0-5.6 0.3-8.2 1.2-8.5 1.5-0.6 1-10.7-0.5-11.2-0.5-0.2-0.9-1.5-0.9-2.9 0-2.9 3.1-12.6 4.3-13.1 0.4-0.2 0.7-1.2 0.7-2.2 0-2.3 2-7 3.1-7 0.4 0 1-1.1 1.3-2.5 0.4-1.4 1.1-2.5 1.6-2.5 0.6 0 1-0.7 1-1.5 0-1 1-1.5 2.9-1.5h2.9l-4.9 8.2c-2.7 4.5-5.7 10.7-6.6 13.8-0.9 3-1.8 6.2-2.1 7-0.5 1.2-0.1 1.2 2.1-0.3 3.5-2.3 5.7-2.2 5.7 0.3 0 1.1-0.7 2-1.5 2q-1.5 0-1.5 3c0 2.4-0.4 3-2.1 3-1.1 0-1.7 0.4-1.4 1 0.3 0.5 0.8 2.6 1.1 4.6 0.3 2.7 0 4-1.3 4.9-1.5 1.1-1.2 1.4 2 2.6 3.7 1.3 4.8 3.2 2.5 4.3-1 0.5-1 0.7 0 1.2 1.5 0.7 1.6 5.4 0.1 5.4-0.6 0-2.4-1.4-4-3.1-1.6-1.7-2.9-3-2.9-2.8 0 0.9 6 17.1 7.1 19.1 2.6 4.9 9.1 13.6 14.8 19.8 6.5 7 7.1 8.7 4.3 11.3-2.1 1.9-3.9 2.1-6.4 0.6z"/>
			<path id="pvTy03ee7" class="s2" d="m115.4 314.5c-4.2-5.1-8.4-11.4-8.4-12.7 0-0.5 1.1-0.8 2.5-0.8 1.8 0 2.6 0.7 3.1 2.5 0.3 1.4 1 2.5 1.5 2.5 0.5 0 0.9 1.1 0.9 2.5 0 1.8 0.5 2.5 2 2.5 2.4 0 3.3 1.7 2.8 5.6-0.3 2.8-0.3 2.8-4.4-2.1z"/>
			<path id="pxyr0fhi7" class="s2" d="m420 285.9c0-5.2 2.4-14.9 3.7-14.9 0.7 0 1.3-0.4 1.3-1 0-0.5 1.1-1 2.4-1 1.9 0 2.3 0.4 1.9 2-0.3 1.1-1.1 2-1.8 2-1.5 0-1.8 0.9-3.5 9.3-0.8 3.7-1.6 5.7-2.6 5.7-0.8 0-1.4-1-1.4-2.1z"/>
			<path id="p1AWHOAT4E" class="s2" d="m431.4 277.2c0.1-7.7 0.1-7.8 2.5-7.4 2.2 0.5 2.3 0.8 1.7 5.6-0.3 2.8-0.6 6.1-0.6 7.4 0 1.5-0.6 2.2-1.9 2.2-1.6 0-1.8-0.8-1.7-7.8z"/>
			<path id="puyMuy82w" class="s2" d="m129 283.3c-7.9-0.8-10-1.4-10-3 0-1.4 1.2-1.5 9-1l8.9 0.6-0.6-3.1c-0.5-2.7-0.4-2.9 1.8-2.6 1.9 0.2 2.5 1 2.7 3.6 0.5 5.4-1.8 6.5-11.8 5.5z"/>
			<path id="p7wOfoPfr" class="s2" d="m198 281.3c0-2.7-0.2-2.8-4.7-2.8h-4.8l-0.3-14c-0.2-7.7 0-15.5 0.3-17.3 0.6-3.1 0.8-3.3 4.3-3l3.7 0.3 0.6 15.7c0.3 8.7 0.8 16 1.1 16.4 0.4 0.3 1.6-1.2 2.7-3.5 3.7-7.2 2.3-20.8-3-28.2-2-2.8-2.7-10.9-0.9-10.9 0.6 0 1-1 1-2.1 0-1.2 2.4-5.8 5.3-10.3 5.2-8 9.9-17.6 11.2-22.8 0.9-3.5 4.5-3.9 4.5-0.5 0 3.6-6.5 18.2-11.3 25.5-2.4 3.7-5.2 8.4-6.2 10.5-1.8 3.8-1.7 3.8 0.8 8.5 3.5 6.5 4.8 12.2 4.8 20.6 0.1 6.9-0.6 9-5.6 18.7-1.4 2.8-3.5 2.3-3.5-0.8zm-4.8-14.5c-0.5-15-0.8-16.5-1-4-0.1 6.7 0.1 12.2 0.6 12.2 0.4 0 0.6-3.7 0.4-8.2z"/>
			<path id="pzDAGX3Vt" class="s2" d="m381.2 282.4c-2.7-1.9-3-5.4-0.3-5.4 1 0 2.4 0.7 3.1 1.5 0.9 1.1 3.2 1.5 8.1 1.5 5.2 0 6.9 0.3 6.9 1.4 0 2.9-13.9 3.7-17.8 1z"/>
			<path id="pf37yqgpp" class="s2" d="m221.2 277.4c-2.9-2-2.8-3.4 0.2-3.4 3.7 0 5.6 1 5.6 3.1 0 2.3-2.7 2.5-5.8 0.3z"/>
			<path id="ptd6qNAMj" class="s2" d="m237 277.2c0-1.5 0.9-2.1 3.5-2.6 5-1 5.4-2.6 0.6-2.6-5.2 0-5.7-2.6-0.7-3.5 6.5-1.3 11 2.3 8.4 6.5-1.4 2.2-2.2 2.5-8 3.6-3.4 0.5-3.8 0.4-3.8-1.4z"/>
			<path id="p132Gckbnn" class="s2" d="m277.8 277.9c-3.4-2-1.7-2.9 5.2-2.9 6.3 0 7 0.2 7 2 0 1.7-0.7 2-5.2 2-2.9 0-6.1-0.5-7-1.1z"/>
			<path id="p13GEzdGJo" class="s2" d="m296 276.5c0-1.6 0.6-2.5 1.6-2.5 0.8 0 1.2-0.4 0.9-1-0.3-0.5-2.6-1-5.1-1-3.1 0-4.4-0.4-4.4-1.4 0-1.9 3.5-2.5 9-1.8 4.3 0.7 4.5 0.8 4.5 4.1 0 3-0.5 3.6-3.2 4.8-3.2 1.3-3.3 1.2-3.3-1.2z"/>
			<path id="p1BkLcIXZk" class="s2" d="m119.3 276.3c-2.5-0.3-3.3-0.9-3.3-2.4 0-1.5 0.7-1.9 3.8-1.9 4.4 0 9.2 1.9 9.2 3.8 0 1.2-2.8 1.3-9.7 0.5z"/>
			<path id="p1DpwWSYZg" class="s2" d="m392 275.6c0-1.5 1.7-2 10.3-3.1 4.2-0.6 4.7-0.4 4.7 1.3 0 2.6-1.8 3.2-9.1 3.2-4.4 0-5.9-0.4-5.9-1.4z"/>
			<path id="p11ynwY6XF" class="s2" d="m220.2 271c0.7-1.1 2.1-2 3-2 1.1 0 1.8 0.8 1.8 2 0 1.6-0.7 2-3 2-2.8 0-2.9-0.2-1.8-2z"/>
			<path id="pawmRuzgQ" class="s2" d="m274 271.1c0-2.5 3.5-3.6 8.5-2.7 4.4 0.9 4.8 3.6 0.6 3.6-1.6 0-4.3 0.3-6 0.6-2.7 0.6-3.1 0.4-3.1-1.5z"/>
			<path id="pCQ96LuNO" class="s2" d="m413 259.9c0-1.4-0.5-1.9-1.4-1.6-2.2 0.9-9.6-1.4-9.6-2.9 0-1 1.4-1.4 4.8-1.5 2.6 0 4.1-0.3 3.5-0.6-1.4-0.5-1.8-5.3-0.4-5.3 0.4 0 2 0.9 3.4 2l2.6 2.1-2-7.3c-1.1-4-2.4-7.7-2.8-8.3-0.4-0.5-1.1-1.8-1.4-2.7-0.5-1.4-0.1-1.8 1.8-1.8 1.8 0 2.5 0.5 2.5 1.9 0 1.1 0.4 2.1 1 2.3 1.1 0.4 4 11.1 4 15 0 1.6-0.7 3.1-1.5 3.4-0.8 0.4-1.5 1.8-1.5 3.4 0 1.6-0.7 3-1.5 3.4q-1.5 0.6-1.5-1.5z"/>
			<path id="p17AtS6ZLi" class="s2" d="m175 256.7c0-3.5 2.9-12.7 5.1-16.4 2.2-3.6 2.1-3.9-4.8-15.5-3.9-6.6-7.3-16.6-8-23.5-0.5-4.8-0.4-5.3 1.4-5.3 1.6 0 2.2 1.1 3.2 6.6 1.3 7.3 5 16.1 9.9 23.8 2.6 4 3.2 6.1 3.2 10.3 0 2.9-0.4 5.3-0.8 5.3-0.4 0-1.8 3.8-3.1 8.5-1.9 6.7-2.8 8.5-4.3 8.5-1.2 0-1.8-0.7-1.8-2.3z"/>
			<path id="pIBQcpSr9" class="s2" d="m88 253.8c0-9.9 4.1-30.2 9.1-44.8 1.6-4.7 2.9-8.6 2.9-8.7 0-0.2 1.1-0.3 2.5-0.3h2.4l-2.5 6.8c-5.4 14.2-8.6 27-9.9 40.5l-0.7 6.8 2.8-0.7c3.5-0.9 4.4-2 4.4-5.7 0-5.3 7.7-22.2 13.9-30.7 3-4.2 14.1-17.2 15.6-18.2 2.1-1.5 6.4-0.8 7.5 1.2 1.3 2.5 0.6 5.1-2 7.5-2 1.8-2 1.7-2-1.8 0-3-0.3-3.4-2-3-1.1 0.3-2 1.4-2 2.4 0 1.1-0.6 1.9-1.4 1.9-0.7 0-1.6 0.9-1.9 2-0.3 1.2-1.4 2-2.6 2-1.6 0-2.1 0.6-2.1 2.5 0 1.4-0.7 2.8-1.5 3.1-0.8 0.4-1.5 1.2-1.5 2 0 0.8-0.4 1.4-1 1.4-0.5 0-1 0.6-1 1.3 0 0.7-0.9 2.3-2 3.5-1.1 1.2-2 2.6-2 3.2 0 0.5-0.4 1-0.9 1-0.5 0-1.1 1.4-1.4 3-0.4 1.8-1.3 3-2.2 3-1 0-1.5 1-1.5 2.9 0 1.6-0.7 4.8-1.5 7.1-0.8 2.3-1.5 5.5-1.5 7.1 0 2-0.5 2.9-1.6 2.9-0.8 0-2.2 0.7-3 1.5-0.9 0.8-3.3 1.5-5.5 1.5h-3.9z"/>
			<path id="p1DjZ74Ijt" class="s2" d="m115 256.1c0-2.1 1.9-3.1 6.1-3.1 4 0 3.7 2.3-0.4 3.8-4.6 1.6-5.7 1.5-5.7-0.7z"/>
			<path id="p1DshECEci" class="s2" d="m233.6 257.3c-0.4-0.5-3.5-0.6-6.7-0.5-4.7 0.3-6.5 0-8-1.4-2.4-2.1-2.4-3.6-0.1-5.7 2.5-2.3 3.2-2.1 3.2 0.8 0 2.3 0.3 2.5 4.9 2.5 7.6 0 11.1 1 11.1 3.1 0 1.9-2.9 2.7-4.4 1.2z"/>
			<path id="plQf4aL5f" class="s2" d="m243.2 253c-0.1-2.7 0.1-5 0.4-5 1.4 0 4.2 2.1 4.8 3.5 0.9 2.4-1.1 6.5-3.3 6.5-1.6 0-1.9-0.7-1.9-5z"/>
			<path id="p1BGlspUNq" class="s2" d="m292.3 256.8c-5.1-1.7-4.2-3.8 1.6-3.8 4.6 0 4.8-0.1 4.3-2.5-0.3-2 0-2.5 1.5-2.5 4.9 0 5.9 6.1 1.3 8.5-3.3 1.7-4.2 1.7-8.7 0.3z"/>
			<path id="poHSYos59" class="s2" d="m273.8 255.9c-2.6-1.5-2.2-5.4 0.8-7.8 3-2.4 9-2.7 11.7-0.7 2.6 2 2.1 2.6-2 2.6-4.9 0-8.4 1-7.7 2.1 0.3 0.5 1.6 0.9 3 0.9 3 0 3.2 2.6 0.2 3.4-3.1 0.8-4 0.7-6-0.5z"/>
			<path id="p14croXTWV" class="s2" d="m139.2 253c0.4-2.8 0.3-3-2.9-3-2.6 0-3.3-0.4-3.3-2 0-2.9 5-2.7 8.4 0.5 3 2.8 3.2 3.8 1 5.9-2.4 2.5-3.7 1.9-3.2-1.4z"/>
			<path id="p27vfOcl7" class="s2" d="m378 254.1c-0.5-1.1-1-2.6-1-3.5 0-1.8 3.8-4.6 6.2-4.6 2.1 0 2.5 3.5 0.4 4.3-0.9 0.3-1.2 1.5-0.9 3.1 0.4 2.1 0.1 2.6-1.5 2.6-1.2 0-2.6-0.9-3.2-1.9z"/>
			<path id="pGgwWRIoz" class="s2" d="m423.9 254.3c-1.9-0.5-2.9-3.2-2.9-8.2 0-1.9-0.6-3.9-1.3-4.5-3.4-2.8-7.4-17.6-4.8-17.6 0.5 0 1.7 1.7 2.6 3.8 1 2 2.6 5.5 3.6 7.6 1.1 2.2 1.9 4.8 1.9 5.7 0 1 0.5 2.1 1 2.4 0.6 0.3 1 1.9 1 3.5 0 2.2 0.7 3.2 3.2 4.4 1.7 0.9 3.3 1.6 3.5 1.6 0.1 0 0.3-1.6 0.3-3.5 0-2.8 0.4-3.5 2-3.5 1.7 0 2 0.7 2 4.5v4.5l-5.2-0.1c-2.9-0.1-6-0.3-6.9-0.6z"/>
			<path id="pW54EJXcA" class="s2" d="m119 249.6c0-0.8 1.9-1.8 4.4-2.5 6.2-1.5 7.6-1.4 7.6 0.8 0 1.4-1 2-3.7 2.5-5.9 0.9-8.3 0.7-8.3-0.8z"/>
			<path id="p5yZRI1r9" class="s2" d="m399.8 250.3c-2-0.5-2.5-4.3-0.7-4.3 2.9 0 8.9 2.5 8.9 3.7 0 1.3-4.4 1.6-8.2 0.6z"/>
			<path id="pN7KSOT4E" class="s2" d="m431.5 241.3c-0.3-2.1-1-5.4-1.5-7.4-1.4-5.3-1.2-6.9 0.9-6.9 2 0 2.5 1.5 3.7 11.8 0.6 5.3 0.4 6.2-0.9 6.2-1.1 0-1.8-1.2-2.2-3.7z"/>
			<path id="p19LZ0sKY9" class="s2" d="m427.3 221.5c-1.1-3.3-1-3.5 1.3-3.5 2.1 0 2.4 0.5 2.4 3.5 0 2.2-0.5 3.5-1.3 3.5-0.8 0-1.8-1.6-2.4-3.5z"/>
			<path id="p4FwEUOEt" class="s2" d="m185.6 222.8c-1.2-4.1-2.6-15.7-3.1-24.8-0.8-13.4-2.3-22.6-4.1-24.1-3.4-2.8-8.4 5.7-8.4 14.1 0 3.6-0.4 5-1.4 5-2.5 0-3-6.1-1-15.7 0.2-1.2 1.6-3.5 3-5.2 4.5-5.4 12.6-3.6 13.8 3.1 0.3 1.8 1 9.4 1.6 16.8 1.3 16 3 28 4 28 1.5 0 6-12.6 8.5-23.5 1.4-6 2.7-12 3-13.2 0.9-3.6 4.5-6.3 8.6-6.3 3 0 4.3 0.7 6.8 3.5 3.1 3.5 3.7 6.5 2.5 11.3-1 3.6-3.4 2.7-3.4-1.3 0-2.4-0.9-4.4-2.8-6.6-2.5-2.8-3.1-3-5-2-2.2 1.2-2.7 2.7-5.7 16.1-2 9-4.2 16-6.6 21.8-1.7 4-2.1 4.2-5.9 4.2-2.4 0-4.2-0.5-4.4-1.2z"/>
			<path id="pcCfekRU7" class="s2" d="m401.2 220.5l-2.2-3.5h3c2.8 0 3 0.3 3 3.5 0 4.4-0.9 4.4-3.8 0z"/>
			<path id="ppdmvu6Lk" class="s2" d="m409 221c0-1.1-0.7-2-1.5-2-1.1 0-1.5-1.1-1.5-3.6 0-4.3 0.9-3.8 5.9 3.1l3.2 4.5h-3c-2.4 0-3.1-0.4-3.1-2z"/>
			<path id="p6ZJIUIqT" class="s2" d="m122 216.9c0-4.3 1.8-6.2 5.6-5.7l2.6 0.3-4 4.5-4.1 4.5z"/>
			<path id="p9isKQBZU" class="s2" d="m424.4 212.5c-0.7-1.9-1.4-3.9-1.4-4.5 0-0.5-2.5-5.8-5.5-11.7-3-5.9-5.5-10.9-5.5-11 0-0.2 1.1-0.3 2.5-0.3 2.2 0 2.5 0.4 2.5 3.5 0 2.8 0.4 3.5 2 3.5 1.3 0 2 0.7 2 2 0 1.1 0.5 2 1 2 0.6 0 1 1.1 1 2.5 0 1.4 0.5 2.5 1 2.5 0.6 0 1 1.1 1 2.4 0 1.3 0.5 2.6 1.1 2.8 0.6 0.2 1.3 2.5 1.6 5.1 0.7 5.7-1.1 6.4-3.3 1.2z"/>
			<path id="pEG5Rc4oJ" class="s2" d="m387.6 205.2c-2.4-2.7-1.5-6.5 1.8-8 2.2-1 3-0.8 5.6 1.4 1.6 1.4 3.9 3.9 5.1 5.5l2 2.9h-3c-2.8 0-3.1-0.3-3.1-3.1 0-2.7-0.3-3-2.7-2.7-2.2 0.2-2.9 0.9-3.3 3.2l-0.5 2.8z"/>
			<path id="p17EF1eU0F" class="s2" d="m107 189.5c0-2.8 0.4-3.5 2-3.5 1.6 0 2-0.7 2-3 0-1.6 0.5-3 1-3 0.6 0 1-0.7 1-1.5 0-0.8 0.7-1.5 1.5-1.5 0.8 0 1.5-0.9 1.5-2 0-1.1 0.7-2 1.5-2 0.8 0 1.5-0.9 1.5-2 0-2.3 1.8-3.3 4.8-2.8 1.7 0.3 1.1 1.5-4.4 8.8-3.6 4.7-7.5 10.2-8.6 12.3-2.7 4.6-3.8 4.7-3.8 0.2z"/>
			<path id="p173zevlIL" class="s2" d="m132.8 178.8c0.9-0.9 1.5-0.9 2.4 0 0.9 0.9 0.7 1.2-1.2 1.2-1.9 0-2.1-0.3-1.2-1.2z"/>
			<path id="p19uRZLhoG" class="s2" d="m405 176.3c-5.4-7.1-16.3-17-24.7-22.6-5.1-3.3-9.3-6.4-9.3-6.9 0-1.5 6.6-0.8 8.6 1 1 0.9 3.1 2.3 4.7 2.9 1.5 0.7 2.7 1.7 2.7 2.2 0 0.5 0.9 1.1 2 1.4 1.2 0.3 2 1.4 2 2.6 0 1.5 0.6 2.1 2.1 2.1 3.3 0 8.9 6.3 8.9 10 0 2.7 0.3 3 3 3 2.8 0 3 0.3 3 3.5 0 1.9-0.2 3.5-0.4 3.5-0.3 0-1.4-1.2-2.6-2.7z"/>
			<path id="p1AoErkUt3" class="s2" d="m130 161.1c0-2.4 0.4-3.1 1.9-3.1 1 0 2.1-0.9 2.4-2 0.3-1.1 1.2-2 2.1-2 0.9 0 1.6-0.4 1.6-1 0-0.5 0.7-1 1.5-1 0.8 0 1.5-0.4 1.5-1 0-0.5 1.1-1 2.5-1 1.4 0 2.5-0.6 2.5-1.3 0-1.4 4-3.7 6.5-3.7 0.8 0 1.5-0.4 1.5-0.8 0-1.1 6.1-3.2 9.3-3.2 1.5 0 2.7-0.4 2.7-1 0-0.5 1.6-1 3.5-1 1.9 0 3.5-0.4 3.5-1 0-0.5 1.6-1 3.5-1 4.9 0 4.7 2.7-0.2 3.5-2.1 0.3-4.6 1-5.5 1.6-1 0.5-2.5 0.9-3.3 0.9-0.8 0-5.8 2-11.1 4.5-8.7 4-13.7 7.1-23.1 14.3l-3.3 2.4z"/>
			<path id="p16qeHkW8l" class="s2" d="m362.5 144.6c-4.8-2.1-9.9-3.6-12.6-3.6-4 0-6.9-1.1-6.9-2.6 0-0.9 1.1-1.4 3.3-1.3 5.7 0.1 13.1 1.6 13.5 2.8 0.2 0.6 1.6 1.1 3.2 1.1 4.1 0 6 1 6 3.1 0 2.2-2.1 2.4-6.5 0.5z"/>
			<path id="p1GXl3yNG7" class="s2" d="m313 140.6c0-2.3 0.4-2.6 3.5-2.6 3.7 0 5 2.3 1.8 3.3-1 0.2-2.6 0.8-3.5 1.2-1.5 0.6-1.8 0.2-1.8-1.9z"/>
		</g>
	</g>
	<g id="l4gp8YC8d4e5hMVrVJJOgvi">
		<g>
			<path id="p7rFhr2nk" class="s3" d="m96.7 274.9c-3-3.1-5.7-3.8-5.7-1.4 0 0.8-0.7 1.5-1.5 1.5-1.2 0-1.5-1.9-1.5-11.4 0-9.2 0.3-11.5 1.5-12 1-0.4 1.5 0.1 1.5 1.4 0 2.4-0.1 2.4 4.4 0.5 2-0.8 3.6-2.2 3.6-3 0-1.7 5-2.1 7.8-0.6 0.9 0.5 2.4 1.2 3.3 1.4 0.9 0.3 1.9 2 2.1 3.7 0.4 2.6 0.2 3.1-1.3 2.7-1.6-0.4-1.7 0.1-1.2 4.4 0.5 4.1 0.3 5.2-1.3 6.4-1.8 1.4-1.8 1.5 0.4 2.1 1.2 0.3 2.2 1.1 2.1 1.8-0.1 2.3-1.5 4.1-3.2 4.2-0.9 0.1-3.2 0.4-5 0.7-2.6 0.5-3.7 0.1-6-2.4z"/>
			<path id="pq1HNBT4F" class="s3" d="m412.5 267.5c0.6-9.4 0.5-10.4-0.9-9.9-1.2 0.5-1.6 0-1.6-1.7 0.1-2.9 3-7 3.7-5.1 0.8 2 2.5 1.3 1.8-0.8-0.5-1.6-0.2-2 1.7-2 1.3 0 3.3-0.3 4.6-0.6 1.8-0.5 2.4-0.2 2.8 1.3 0.3 1 2 2.5 3.7 3.1 2.7 1 3.4 1 4.4-0.5 2.1-2.7 2.8-0.7 3.1 8.5 0.2 7.3 0 9.1-1.6 11.1l-2 2.4-0.6-2.1c-0.7-2.2-0.8-2.2-3.7 0.7-1.6 1.6-2.9 3.5-2.9 4.1 0 0.7-0.8 1-2 0.7-1.1-0.3-2.3-0.1-2.6 0.4-1 1.6-4.4 1-4.4-0.8-0.1-1.7-0.1-1.7-1.1 0-2.4 4.2-3.1 1.6-2.4-8.8z"/>
		</g>
	</g>
	<g id="l2oKI0nFBuASbKTbR2afjAZ">
		<g>
			<path id="p11KYLfU5X" class="s4" d="m175.7 395.1c-9.1-1.7-12.9-3.2-11.4-4.7 0.3-0.4 6.7 0.2 14.2 1.2 11.5 1.6 13.5 2.1 13.5 3.6 0 2.2-2.9 2.2-16.3-0.1z"/>
			<path id="pzZqOJwKd" class="s4" d="m198 395.1c0-2-0.3-1.9 14.5-4.3 4.4-0.7 8.6-1.8 9.3-2.5 0.7-0.7 2.4-1.3 3.7-1.3 1.2 0 2.5-0.7 2.9-1.5 0.3-0.8 1.7-1.5 3.1-1.5 1.6 0 2.5-0.6 2.5-1.5 0-0.9 0.9-1.5 2.5-1.5 1.5 0 2.5-0.6 2.5-1.4 0-2.2-1.6-2.8-3-1.1-0.7 0.8-2.8 1.5-4.6 1.5-2.6 0-3.4 0.4-3.4 1.8 0 1.4-1.5 2.3-6.2 3.6-3.5 1-7.6 2.2-9.2 2.7-4.3 1.4-8.6 1.1-8.6-0.5 0-0.8 2-1.9 4.8-2.6 13.8-3.7 18.8-5.7 23.6-9.7 4-3.4 8.7-2.9 10.1 1.1 0.9 2.6 0.6 3.1-3.3 6.6-6.6 5.9-11.7 8.1-28.7 12-10.5 2.5-12.5 2.5-12.5 0.1z"/>
			<path id="pdVA0BdIT" class="s4" d="m322.8 395.3c-1-0.2-1.8-1.1-1.8-1.9 0-1.1 1.6-1.4 7-1.4 6.3 0 7 0.2 7 2 0 1.8-0.6 2-5.2 1.9-2.9-0.1-6.1-0.3-7-0.6z"/>
			<path id="p96LD7ffz" class="s4" d="m336 394.1c0-1.6 1.1-1.9 7.8-2.4 4.7-0.3 11.3-1.7 16.8-3.6 9.2-3.1 14.4-3.9 14.4-2.2 0 2.2-14.8 7.4-25.7 9-10.6 1.6-13.3 1.5-13.3-0.8z"/>
			<path id="pNHQZt9Ik" class="s4" d="m308.2 392.9c-8.2-2.2-16.2-5.7-16.2-7 0-1.1 6.7-1.2 7.2-0.1 0.3 0.8 12.6 4.3 17.6 5 2.3 0.3 3.2 0.9 3.2 2.3 0 2.4-2.3 2.4-11.8-0.2z"/>
			<path id="pNFJwMq0H" class="s4" d="m157.1 390.1c-6.4-2.3-6.8-4.5-0.7-3.9 5.4 0.6 5.9 0.9 5.4 3.6-0.3 1.9-0.4 1.9-4.7 0.3z"/>
			<path id="pkaqrBAqv" class="s4" d="m179.5 389.5c-0.5-0.2-3.1-0.6-5.7-1-3.9-0.5-4.8-1-4.8-2.6 0-2.2 1.2-2.3 7.2-0.9 2.4 0.5 6 1.2 8.1 1.5 2.3 0.4 3.7 1.1 3.7 2 0 1.1-1.1 1.5-3.7 1.4-2.1 0-4.2-0.2-4.8-0.4z"/>
			<path id="p6dHbGcmN" class="s4" d="m194 388.6c0-0.7 1-1.6 2.3-2 4.1-1.1 5.7-0.7 5.7 1.4 0 1.7-0.7 2-4 2-2.7 0-4-0.4-4-1.4z"/>
			<path id="pwS6Xt14v" class="s4" d="m315.5 387.7c-10.4-2-18.5-4.8-18.5-6.2q0-1.5-3-1.5c-1.6 0-3-0.4-3-1 0-0.5-0.7-1-1.5-1-0.8 0-1.5-0.4-1.5-1 0-0.5-0.7-1-1.5-1-0.8 0-1.5 0.7-1.5 1.5 0 0.8 0.9 1.5 2 1.5 1.5 0 2 0.7 2 2.5 0 3.2-1.1 3.2-4.9-0.1-3.7-3.1-4.2-7.7-1.2-9.4 2.9-1.5 4.4-1.2 7.1 1.3 5 4.6 15.5 8.5 31.3 11.7 3.7 0.7 5.7 1.6 5.7 2.6 0 1.6-3.7 1.7-11.5 0.1z"/>
			<path id="p1Dro2Sflw" class="s4" d="m341 387.6c0-1.3 2.8-2.6 5.8-2.6 0.6 0 1.2 0.9 1.2 2 0 1.6-0.7 2-3.5 2-2.3 0-3.5-0.5-3.5-1.4z"/>
			<path id="pNnZuUQRT" class="s4" d="m147 385.7c-10.8-5.7-25.5-18.1-34.1-28.7-8-9.9-16.8-24.2-20.2-32.7l-1.7-4.3h2.4c1.8 0 2.7 0.8 3.5 3.1 0.6 1.8 1.1 4 1.1 5 0 1.1 0.6 1.9 1.4 1.9 0.7 0 2 1.5 2.7 3.3 0.7 1.7 1.9 3.8 2.6 4.5 0.7 0.7 1.3 2.7 1.3 4.3 0 2.2 0.5 2.9 2 2.9 1.3 0 2 0.7 2 2 0 1.1 0.7 2 1.5 2 0.8 0 1.5 0.8 1.5 1.8 0 0.9 1 2.2 2.3 2.7 1.3 0.6 2.3 2.1 2.5 3.8q0.3 2.7 2.1 2.7c2.4 0 4.1 2 4.1 4.7 0 1.8 0.6 2.3 2.5 2.3 1.6 0 2.5 0.6 2.5 1.5 0 0.8 0.9 1.5 2 1.5 1.5 0 2 0.7 2 2.5 0 2.1 0.5 2.5 2.9 2.5 1.6 0 3.6 0.6 4.3 1.3 0.7 0.7 2.5 1.8 4.1 2.4 1.5 0.7 2.7 1.7 2.7 2.3 0 0.5 0.7 1 1.5 1 0.9 0 1.5 0.9 1.5 2.5 0 2.9 0.2 2.8-3 1.2z"/>
			<path id="pOCjSN5i1" class="s4" d="m354.2 384.9c0.2-0.8 2.7-2.1 5.4-3 4.7-1.5 4.9-1.5 5.2 0.3 0.5 2.6 0.3 2.8-5.8 3.5-4.3 0.5-5.2 0.3-4.8-0.8z"/>
			<path id="p7gVOHTYm" class="s4" d="m159 384c0-0.5-1.1-1-2.5-1-1.6 0-2.5-0.6-2.5-1.5q0-1.5-3-1.5-3 0-3-1.5c0-0.8-0.9-1.5-1.9-1.5-3.7 0-5.1-1.2-5.1-4.1v-2.9l3.8 2.5c4.7 3.1 15 8.2 18.5 9 4 1 3.4 3.5-0.8 3.5-1.9 0-3.5-0.4-3.5-1z"/>
			<path id="p104iOvflG" class="s4" d="m377 382.5c0-1.8 0.7-2.6 2.5-3.1 1.4-0.3 2.5-1 2.5-1.5 0-0.5 0.7-0.9 1.5-0.9 0.8 0 1.5-0.4 1.5-1 0-0.5 1.1-1 2.5-1 1.8 0 2.5-0.5 2.5-2 0-1.7 0.7-2 3.8-2l3.7 0.1-3.5 3.1c-4 3.5-14.9 10.8-16.2 10.8-0.4 0-0.8-1.1-0.8-2.5z"/>
			<path id="pIOPH1EXG" class="s4" d="m369 379.2c0-0.5 1.9-1.9 4.3-3.2 2.3-1.3 6.1-3.6 8.5-5.2l4.2-2.9v3.1q0 3-1.5 3c-0.8 0-1.5 0.5-1.5 1 0 0.6-1.1 1-2.5 1-1.5 0-2.5 0.6-2.5 1.4 0 0.8-0.7 1.7-1.6 2-2.3 0.9-7.4 0.7-7.4-0.2z"/>
			<path id="pcwznCTBx" class="s4" d="m398 367.1c0-2.6 0.4-3.1 2.5-3.1 2 0 2.5-0.5 2.5-2.5 0-2 0.5-2.5 2.5-2.5 2.1 0 2.5-0.5 2.5-3.1 0-2.2 0.5-3.2 2-3.6 1.1-0.3 2-1.4 2-2.4 0-1.5 0.7-1.9 3.1-1.9h3.1l-3.1 4.2c-3.1 4.2-12.2 14.1-15.4 16.7-1.5 1.2-1.7 1-1.7-1.8z"/>
			<path id="p1A1t6FgVl" class="s4" d="m132 365.9v-3l3 2.1c4.4 3.1 4.5 4 0.6 4-3.3 0-3.6-0.2-3.6-3.1z"/>
			<path id="pIndZXokn" class="s4" d="m388.5 366c0.3-0.5 1.9-1.9 3.5-3l3-2.1v3c0 2.9-0.3 3.1-3.6 3.1-2 0-3.3-0.4-2.9-1z"/>
			<path id="pUvNFgpy6" class="s4" d="m115 350c0-1.1-0.7-2-1.5-2-0.8 0-1.5-0.7-1.5-1.5 0-0.8-0.4-1.5-1-1.5-0.5 0-1-0.7-1-1.5 0-0.8-0.4-1.5-1-1.5-0.5 0-1-0.5-1-1.1 0-0.6-0.7-1.7-1.5-2.5-0.8-0.9-1.5-2.9-1.5-4.5 0-1.9-0.5-2.9-1.5-2.9-0.8 0-1.5-0.9-1.5-2 0-1.1-0.4-2-1-2-0.5 0-1-1.6-1-3.5 0-2.4-0.5-3.5-1.5-3.5q-1.5 0-1.5-3c0-1.6-0.4-3-1-3-0.5 0-1-1.3-1-3 0-1.6-0.4-3-0.9-3-0.5 0-1.1-1.2-1.4-2.7-5.3-26.4-5.5-28.3-3.2-28.3 0.8 0 1.5 0.1 1.5 0.3 0.1 1.1 4.1 21.2 5 24.7 3.5 14.1 10.4 29.1 19.6 42.1l5.5 7.9h-3c-2.4 0-3.1-0.4-3.1-2z"/>
			<path id="pLQ1D1QNk" class="s4" d="m342.2 350c-2.9-2.7-2.8-4 0.3-4 1.4 0 2.5 0.5 2.5 1 0 0.6 1.4 1 3 1 2.6 0 3.1-0.5 3.7-3 0.4-2.1 1.1-3 2.5-3 1.8 0 1.9 0.4 1.3 3.7-0.4 2-1.4 4.3-2.3 5-2.7 2-8.5 1.6-11-0.7z"/>
			<path id="pZHSVPmTF" class="s4" d="m169.5 348.6c-3.3-3.3-3.9-8-2.6-20.1 1.2-12.1 3.5-19.4 9.8-32.1l4.6-9.2-1.7-3.3c-2.2-4.4-4.6-15.7-4.6-21.7 0-4.6 4.4-20.9 6.1-22.7 1.7-1.7 0.9-5.1-2.3-10.1-7.8-12.3-11.8-26-11.8-40.9 0-9.1 1-12.8 4.2-16.2 2.4-2.6 8.8-3.2 10.6-1 1.5 1.9 3 11.1 3.7 23.2 0.7 13.6 2.7 25.7 4.3 26.3 2.1 0.7 6.2-10.7 10.6-29.7 1.9-8 3-10.9 4.8-12.3 3.5-2.7 6.6-2.2 10.4 1.6 3.2 3.2 3.4 3.8 3.4 10.3 0 10.3-4.1 20.9-13.3 34.9-2.6 3.9-4.7 7.6-4.7 8.3 0 0.6-0.5 2-1.2 3-0.9 1.5-0.7 2.4 1 4.8 3.7 5.2 5.2 11.2 5.2 21.3 0 8.3-0.3 10.1-2.5 13.9-2.5 4.4-3.3 10.9-1.6 12.7 0.5 0.5 3.9 6.6 7.6 13.7 6.8 13.2 9.5 21.7 9.5 30 0 4.2-0.5 5.4-3.4 8.3-5 5-9.1 4.3-12.5-2.4-2.9-5.9-6.9-19-8.1-27.2-1.4-8.9-1.9-11-2.8-11-1.6 0.1-4.1 8.2-5.6 18-3 19.6-4.8 26.3-7.7 29.3-3.4 3.3-6.2 3.4-9.4 0.3zm27.5-62.7c0-0.4-1-2-2.3-3.4-2.5-3-4.3-2.7-7.1 1.1-1.8 2.5-1.8 2.6 1 5.5l2.8 2.9 2.8-2.7c1.5-1.5 2.8-3 2.8-3.4zm-2.9-23.9c-0.2-13.4-0.8-17-2.2-13.4-1 2.4-1.1 25.8-0.2 26.8 2 1.9 2.5-1.2 2.4-13.4zm1.7-28.1c0.2-1.6-0.6-3.3-2.3-4.9l-2.5-2.3-2.5 2.3c-3.1 2.9-3.1 4 0 7.4 2.4 2.6 2.8 2.7 4.8 1.3 1.2-0.8 2.3-2.5 2.5-3.8z"/>
			<path id="p1iNXfcdS" class="s4" d="m404.6 349.8c1.6-2.8 8.5-11.8 8.9-11.8 0.3 0 0.5 1.6 0.5 3.5 0 2.8-0.4 3.5-2 3.5-1.6 0-2 0.7-2 3 0 2.7-0.3 3-3.1 3-2.1 0-2.8-0.4-2.3-1.2z"/>
			<path id="p1aOtZbWA" class="s4" d="m418 342.5c0-2.4 0.5-3.5 1.5-3.5 0.8 0 1.5-0.8 1.5-1.7 0-3 2.4-8.3 3.7-8.3 0.8 0 1.3-1.2 1.3-3q0-3 1.5-3c0.9 0 1.5-0.9 1.5-2.3 0-1.3 1-5.3 2.1-8.8 3.3-10.1 6.9-24.8 6.9-28.5 0-2.8 0.4-3.4 2.1-3.4 2.1 0 2.1 0.3 1.5 5.7-1.4 11.8-6.9 30.4-12.3 41.6-1.8 3.7-3.3 7-3.3 7.3 0 1.2-6.5 11.4-7.2 11.4-0.5 0-0.8-1.6-0.8-3.5z"/>
			<path id="pFJghcLXc" class="s4" d="m127.8 327.3c-0.9-0.2-2.4-1.5-3.2-2.9-1.6-2.3-1.6-2.4 1.2-2.4 1.5 0 3.3 0.5 4 1.2 0.9 0.9 1.2 0.6 1.2-1.5 0-3.1 1-3.5 2.7-0.8 0.9 1.4 0.8 2.4-0.1 4.2-1.2 2.4-2.8 3-5.8 2.2z"/>
			<path id="pvysu1tXR" class="s4" d="m396 324.8c0-3.6 0.2-3.8 3-3.8 2.7 0 3-0.3 3-3.3 0-3.7 1.5-5.7 4.2-5.7 1.3 0 1.8-0.8 1.8-3 0-1.6 0.5-3 1-3 0.6 0 1-0.4 1-1 0-0.5-1.1-1-2.5-1-2.2 0-2.5 0.4-2.5 3.6 0 2.7-0.5 3.7-1.9 4.1-1.1 0.3-2.1 1.5-2.3 2.7-0.2 1.5-1.1 2.2-3 2.4-2.4 0.3-2.8 0.8-2.8 3.3 0 2.6-0.3 2.9-3.1 2.9-3.6 0-4.2 1.2 6.1-11.5 6.4-7.8 11.3-15.2 13.8-20.7 1.5-3.5 3.2-3.6 3.2-0.3 0 1.6 0.6 2.5 1.5 2.5 0.9 0 1.5-1 1.5-2.6 0-1.4 0.4-3.3 0.9-4.2 0.5-0.9 1.1-3.7 1.5-6.2l0.6-4.5-1.4 3.5c-0.8 1.9-1.5 4.5-1.5 5.8-0.1 1.6-0.7 2.2-2.4 2.2h-2.4l1.4-5.7c1.5-5.9 4.1-9.3 7.3-9.3 5 0 2.9 12.5-4.7 26.9-6.1 11.8-9.2 16.3-16.3 24.1l-5 5.5zm16-24.3c0-0.8-0.4-1.5-1-1.5-0.5 0-1 0.7-1 1.5 0 0.8 0.5 1.5 1 1.5 0.6 0 1-0.7 1-1.5z"/>
			<path id="prbj2YWKP" class="s4" d="m115.2 313.9l-5.2-6.4 3-0.3c2.7-0.3 4.4-2.2 2-2.2-0.5 0-1-0.7-1-1.5 0-0.8-0.4-1.5-1-1.5-0.5 0-1-1.6-1-3.5 0-1.9 0.3-3.5 0.8-3.5 0.4 0 2.6 2.8 4.9 6.3 2.3 3.4 5.4 7.7 6.9 9.5l2.7 3.2h-3.1c-2.7 0-3.1 0.4-3.4 3.2l-0.3 3.2zm4.1-2.1c-0.6-0.7-1.3-2-1.6-2.8-0.3-0.9-0.6-0.3-0.6 1.3-0.1 1.9 0.4 2.7 1.5 2.7 1.2 0 1.4-0.4 0.7-1.2z"/>
			<path id="pxojoSflC" class="s4" d="m90.6 318.2c-1.7-2.8-4.7-13-6.1-20.7-0.9-4.9-2-11.2-2.5-13.8-0.6-2.7-1-7.3-1-10.3 0-4.6 0.3-5.4 1.9-5.4 1.6 0 1.9 1.1 2.4 8.8 0.4 4.8 1.6 13.2 2.8 18.7 1.1 5.5 2.3 11.5 2.6 13.3 0.3 1.7 0.9 3.2 1.4 3.2 0.5 0 0.9 1.6 0.9 3.5 0 3.2-1.2 4.6-2.4 2.7z"/>
			<path id="p13nNoUAbt" class="s4" d="m423 317.9c0-1.1 2.6-9.5 4.1-13.4 0.4-1.1 1.1-3.5 1.4-5.2 0.9-4.6 3.5-4.4 3.5 0.2 0 1.9-0.4 3.5-0.9 3.5-0.5 0-1.1 2.2-1.5 4.9-1 7.5-2.5 11.1-4.7 11.1-1 0-1.9-0.5-1.9-1.1z"/>
			<path id="pMfAnj9Nn" class="s4" d="m106 300c-2.5-4.9-2.5-7-0.2-7 2.2 0 4.2 3.9 4.2 8 0 4.1-1.6 3.7-4-1z"/>
			<path id="p10rRSg8Qr" class="s4" d="m430 292.8c0-3 1.3-5.8 2.6-5.8 0.9 0 1.4 1.2 1.4 3.5 0 2.8-0.4 3.5-2 3.5-1.1 0-2-0.6-2-1.2z"/>
			<path id="ptBPEz93l" class="s4" d="m100.2 284.7c-1.7-4.8-1.5-6.7 0.7-6.7 2 0 3.1 2.5 3.1 7.3 0 3.8-2.3 3.4-3.8-0.6z"/>
			<path id="pC04seuOv" class="s4" d="m105.6 284.9c-0.8-4.3-0.8-7.9 0.2-7.9 1.2 0 3 3.5 3.7 7.4 0.6 3.2 0.5 3.6-1.3 3.6-1.4 0-2.1-0.9-2.6-3.1z"/>
			<path id="p4SErf6lB" class="s4" d="m431.4 282.3c0.4-2.1 0.7-5.5 0.8-7.5 0.1-3 0.5-3.8 2-3.8 2 0 2.2 1.3 1.2 9.8-0.6 4.3-1 5.2-2.6 5.2-1.7 0-1.9-0.5-1.4-3.7z"/>
			<path id="pE8AxsVpn" class="s4" d="m129.8 282.8c-2.1-0.5-3.8-1.6-3.8-2.3 0-1 1.9-1.4 7.5-1.3 7.4 0 8.7 0.5 6.2 2.6-2 1.7-5.9 2.1-9.9 1z"/>
			<path id="p1HSmBs2tT" class="s4" d="m382.5 282.7q-4.8-2.7 6-2.7c6 0 7.5 0.3 7.5 1.5 0 0.8-0.6 1.5-1.2 1.6-6.3 0.5-11.1 0.3-12.3-0.4z"/>
			<path id="ppkfYiSmz" class="s4" d="m397 281c0-1.7 0.7-2 4.5-2 4.9 0 6.4 2.3 2.3 3.4-4.5 1.2-6.8 0.7-6.8-1.4z"/>
			<path id="pfIN1cBoY" class="s4" d="m111.1 279.9c-2.8-2.6-2.4-3 2.2-2.2 2.7 0.4 3.7 1.1 3.7 2.4 0 2.6-3 2.4-5.9-0.2z"/>
			<path id="pPWZLpJwn" class="s4" d="m408 279.5c0-1.4 0.5-2.5 1-2.5 0.6 0 1-0.7 1-1.5 0-0.9 0.6-1.8 1.4-2.1 0.8-0.3 1.1-1.5 0.8-3-0.5-2.9 1.3-3.2 2.8-0.4 1.4 2.6 0.4 6.3-2.6 9.5-2.9 3.2-4.4 3.2-4.4 0z"/>
			<path id="pWTSx0ZUx" class="s4" d="m222.8 277.9c-3.1-1.7-2-2.9 2.7-2.9 3.8 0 4.5 0.3 4.5 2 0 1.5-0.7 2-2.7 2-1.6 0-3.6-0.5-4.5-1.1z"/>
			<path id="pOaxF6SsG" class="s4" d="m234 277.1c0-1.6 1-2.1 5.3-2.6 5-0.6 5.4-0.9 4.9-3.1-0.6-3.5 3.5-3.4 4.4 0.1 0.8 3.4-0.8 5.1-6.1 6.4-6.5 1.6-8.5 1.4-8.5-0.8z"/>
			<path id="psNpZxJ0I" class="s4" d="m285.8 278.3c-3.3-0.8-2-3.3 1.7-3.3 2.8 0 3.5 0.4 3.5 2 0 2-1.4 2.3-5.2 1.3z"/>
			<path id="p5CucUW0D" class="s4" d="m275.8 276.9c-2.4-1.3-2.3-3.9 0.1-3.9 3.3 0 5.1 1.1 5.1 3.1 0 2.1-2.4 2.5-5.2 0.8z"/>
			<path id="pSoqtgwmC" class="s4" d="m379 277.2c0-1.4 2.3-3.2 4.2-3.2 1.1 0 1.8 0.7 1.8 2 0 1.6-0.7 2-3 2-1.6 0-3-0.4-3-0.8z"/>
			<path id="p12vHJn5JJ" class="s4" d="m118.3 276.3c-2.5-0.3-3.3-0.9-3.3-2.5 0-1.8 0.4-1.9 3.8-1.4 8.1 1.4 9.2 1.8 9.2 3.2 0 1.4-2.4 1.6-9.7 0.7z"/>
			<path id="pkyN0s1xf" class="s4" d="m105.3 274.3c0.9-0.2 1.7-1.1 1.7-1.9 0-1.5 1.2-1.7 4.8-0.8 1.2 0.4 2.2 1.3 2.2 2 0 1-1.4 1.4-5.2 1.3-2.9-0.1-4.5-0.3-3.5-0.6z"/>
			<path id="pKQLIZuGZ" class="s4" d="m439.1 260.5c0.1-11.2 0.4-14.5 1.4-14.5 1.9 0 2.7 4.3 2.6 14.6 0 10.4-0.7 14.4-2.7 14.4-1.1 0-1.3-2.9-1.3-14.5z"/>
			<path id="pA3wqiIge" class="s4" d="m315 272.1c-1.6-3.1-1.2-5.1 1-5.1 1.6 0 2 0.7 2 3.5 0 3.9-1.4 4.6-3 1.6z"/>
			<path id="pvUQOEOJu" class="s4" d="m113 256c0-1.7 0.7-2 4-2 4.3 0 5.2 1.3 2.1 3-3.3 1.7-6.1 1.2-6.1-1z"/>
			<path id="p1CO0iMtp7" class="s4" d="m294.6 256.8c-2.7-1.5-1.8-2.8 1.9-2.8 3.3 0 3.5-0.2 3.5-3.2 0-3 0-3.1 2-1.3 1.1 1 2 2.5 2 3.2 0 0.8-0.9 1.7-2 2-1.1 0.3-2 0.9-2 1.3 0 1.3-3.6 1.8-5.4 0.8z"/>
			<path id="peWj6eKwR" class="s4" d="m402.3 256.8c-4.6-1-6.1-3.8-2-3.8 5.8 0 9.7 1.3 9.7 3.1 0 2.1-1.2 2.2-7.7 0.7z"/>
			<path id="p19g7yy77m" class="s4" d="m410.5 253.5c-0.4-2.5-0.5-4.8-0.3-5 0.7-0.7 4.8 3.4 4.8 4.9 0 0.7-0.9 2.1-1.9 3-1.9 1.7-2 1.6-2.6-2.9z"/>
			<path id="pBp7o4QI5" class="s4" d="m219 254.8c-1.5-1.7-1.7-2.4-0.7-3.9 1.5-2.5 2.7-2.4 2.7 0.1 0 1.8 0.7 2 6 2 4.6 0 6 0.3 6 1.5 0 0.8-1.3 1.6-3.2 1.8-6.2 0.9-8.9 0.5-10.8-1.5z"/>
			<path id="p5yXNOOPm" class="s4" d="m274.8 255.9c-3-1.7-2-2.9 2.2-2.9 2.9 0 4 0.4 4 1.5 0 0.8-0.4 1.5-0.9 1.5-0.5 0-1.5 0.2-2.3 0.5-0.7 0.2-2.1 0-3-0.6z"/>
			<path id="pVxlBaKY3" class="s4" d="m378.5 253.6c-1.9-2.8-1.2-5 2.1-6.5 3.7-1.6 5.4-1.4 5.4 0.9 0 1.3-0.7 2-2 2-1.1 0-2 0.5-2 1 0 0.6 0.5 1 1 1 0.6 0 1 0.9 1 2 0 2.8-3.6 2.6-5.5-0.4z"/>
			<path id="p1HKdWNFX1" class="s4" d="m107.6 254.1c-0.3-0.5-2.2-1.2-4.1-1.5-4.3-0.8-4.6-3.1-0.5-3.9 2.7-0.6 3-1.1 3-4.2 0-1.9 0.5-3.5 1-3.5 0.6 0 1-1.3 1-3 0-2.5 0.4-3 2.4-3h2.5l-2.8 8c-2.7 7.6-2.5 10 0.7 6.8 0.9-0.9 1.2-0.5 1.2 2 0 2.5-0.4 3.2-1.9 3.2-1.1 0-2.2-0.4-2.5-0.9z"/>
			<path id="pvCsIaa8a" class="s4" d="m88 250.1c0-2.5 2.1-15.9 3.6-23.3 0.4-2 1.2-2.8 2.6-2.8 1.7 0 1.9 0.4 1.4 2.8-0.6 2.5-2.9 15.7-4.2 23-0.6 4.1-3.4 4.4-3.4 0.3z"/>
			<path id="pnE4O8V4i" class="s4" d="m81 248.5c0-1.9 0.4-5.4 1-7.7 0.5-2.4 1.7-7.7 2.6-11.8 1.5-7.1 2.8-11.8 6-21.7 2.5-7.7 11.2-24.3 17.1-32.5 6.5-9 16.1-18.9 24.3-24.8 3-2.2 6-4.4 6.5-4.8 5.4-4.3 26.6-13 36.1-14.8 3-0.5 3.4-0.4 3.4 1.4 0 1.7-1.2 2.3-7.7 3.8-4.3 1-8.1 2.2-8.4 2.7-0.4 0.5-2.7 1.2-5.3 1.4-3 0.4-4.6 1-4.6 1.9 0 0.8-1 1.4-2.5 1.4-1.5 0-2.5 0.6-2.5 1.4 0 0.7-1.3 1.9-3 2.6-1.6 0.7-3 1.6-3 2.1 0 0.5-1.1 1.1-2.4 1.5-1.4 0.3-2.7 1.2-3 2-0.3 0.8-1.5 1.4-2.6 1.4-1.1 0-2 0.7-2 1.5 0 1-1.1 1.5-3.5 1.5-3.2 0-3.5 0.2-3.5 3q0 3-1.5 3c-0.8 0-1.5 0.7-1.5 1.5 0 0.9-0.9 1.5-2.5 1.5-2.1 0-2.5 0.5-2.5 3q0 3-1.5 3c-0.8 0-1.5 0.9-1.5 2 0 1.1-0.7 2-1.5 2-0.8 0-1.5 0.9-1.5 2 0 1.1-0.4 2-1 2-0.5 0-1 0.7-1 1.5 0 0.8-0.4 1.5-1 1.5-0.5 0-1 0.7-1 1.5 0 0.8-0.7 1.5-1.5 1.5-0.9 0-1.5 0.9-1.5 2.5 0 1.4-0.4 2.5-1 2.5-0.5 0-1 0.9-1 2 0 1.1-0.4 2-1 2-0.5 0-1 1.1-1 2.5 0 1.4-0.3 2.5-0.8 2.5-0.7 0-1.5 2.1-5.8 15.5-3.9 12.2-6.1 21.6-6.9 29.4-0.6 6.1-1 7.1-2.6 7.1-1.5 0-1.9-0.7-1.9-3.5z"/>
			<path id="pnnmfO6T0" class="s4" d="m241 250c0-1.3 0.7-2 1.8-2 1.1 0 2.7 0.9 3.7 2 1.8 2 1.7 2-1.8 2-3 0-3.7-0.4-3.7-2z"/>
			<path id="pcK87jyGl" class="s4" d="m418.5 251.1c-2.8-0.6-5-4.1-2.6-4.1 0.6 0 1.1 0.3 1.1 0.8 0 0.4 1.8 0.6 4 0.4 2.2-0.2 4 0 4 0.5 0 1-2.1 3.4-2.9 3.2-0.4-0.1-1.9-0.4-3.6-0.8z"/>
			<path id="p1CtA9qWVH" class="s4" d="m432.6 248.8c-0.8-4.9-2.6-17.6-2.6-18.2 0-0.3 0.9-0.6 1.9-0.6 2 0 2.4 1.4 3.7 15.3 0.6 5.7 0.4 6.7-0.9 6.7-1 0-1.8-1.2-2.1-3.2z"/>
			<path id="pIwMY4t4j" class="s4" d="m275 249.1c0-2.3 7-3.6 10.3-1.9 3.3 1.7 1.7 2.8-4.3 2.8-3.3 0-6-0.4-6-0.9z"/>
			<path id="pmxGFe9jM" class="s4" d="m396 248c0-2.1 1.6-2.5 5.8-1.4 3.9 1.1 2.7 3.4-1.8 3.4-3.3 0-4-0.3-4-2z"/>
			<path id="pyRQC83Sg" class="s4" d="m101 240.5c2.3-6.8 8.9-19.5 10.1-19.5 0.5 0 0.9 1.4 0.9 3q0 3 1.5 3c0.9 0 1.5-0.9 1.5-2.5 0-1.8 0.5-2.5 2-2.5 1.5 0 2-0.7 2-2.5 0-2.1 0.5-2.5 3.1-2.5h3.2l-2.7 3.3c-1.4 1.7-4 5.6-5.8 8.5-1.8 2.8-3.6 5.2-4 5.2-0.5 0-0.8-1.3-0.8-3 0-1.6-0.4-3-1-3-0.5 0-1 0.9-1 2 0 1.1-0.7 2-1.5 2-1 0-1.5 1-1.5 2.9 0 1.6-0.7 3.6-1.5 4.5-0.8 0.8-1.5 2.6-1.5 4 0 2.1-0.5 2.6-2.4 2.6h-2.5z"/>
			<path id="p1FBef55Go" class="s4" d="m438 240.5c0-4 2.4-4.9 3.4-1.2 1 3.7 0.7 4.7-1.4 4.7-1.6 0-2-0.7-2-3.5z"/>
			<path id="pSSAiXXTq" class="s4" d="m419 239.5c0-3.9 0.6-4.3 2.6-1.7 2 2.6 1.7 5.2-0.6 5.2-1.6 0-2-0.7-2-3.5z"/>
			<path id="poC28H0fe" class="s4" d="m436.6 232.8c-0.3-1.3-0.8-3.6-1.1-5.3-1.7-7.7-1.7-10.5-0.3-10.5 1.4 0 2.2 1.9 4.7 11.6 1.5 5.7 1.4 6.4-0.9 6.4-1.2 0-2.1-0.8-2.4-2.2z"/>
			<path id="phVsWnYYQ" class="s4" d="m411.8 226.9c-1-1.7-1.8-4.4-1.8-6 0-2.4-0.4-2.9-2.5-2.9-2 0-2.5-0.5-2.5-2.4 0-1.8-0.6-2.5-2.2-2.8-1.8-0.2-2.4-1.1-2.6-3.5-0.3-2.7-0.7-3.3-2.8-3.3-2.1 0-2.4-0.4-2.4-3.7l0.1-3.8 3.5 4c9.7 11 19.4 24.5 19.4 27 0 0.3-1 0.5-2.2 0.5-1.5 0-2.9-1.1-4-3.1z"/>
			<path id="p1FOCKriek" class="s4" d="m428.2 224.8c-0.5-2.4-1.9-7.1-3-10.5l-2-6.3h2.2c1.8 0 2.5 1 4 5.8 0.9 3.1 2 7.8 2.3 10.5 0.5 3.8 0.3 4.7-1 4.7-1 0-1.9-1.5-2.5-4.2z"/>
			<path id="pQQmFVADu" class="s4" d="m94.3 218.3c0.3-2.6 1-4.9 1.6-5.1 0.6-0.2 1.1-1.7 1.1-3.3 0-2.4 0.4-2.9 2.4-2.9h2.3l-2.6 8c-1.6 5-3.1 8-4 8-1 0-1.2-1.1-0.8-4.7z"/>
			<path id="pdtZkK3R6" class="s4" d="m115 214.8c1.6-2.4 5.1-6.5 7.6-9.3l4.5-5-0.3 4c-0.3 3.5-0.6 4-3 4.3-2.4 0.3-2.8 0.8-2.8 3.3 0 1.9-0.5 2.9-1.5 2.9-0.8 0-1.5 0.9-1.5 2 0 1.6-0.7 2-3.1 2h-3z"/>
			<path id="p18FE1iTGe" class="s4" d="m430.6 211.3c-0.9-2.6-1.6-5.5-1.6-6.5 0-1-0.4-1.8-0.9-1.8-0.5 0-1.4-1.5-2.2-3.2-0.7-1.8-1.6-3.5-2-3.8-1.5-1.1-4.9-9.1-4.9-11.5 0-1.8-0.5-2.5-2-2.5-1.1 0-2-0.7-2-1.5 0-0.8-0.4-1.5-1-1.5-0.5 0-1-1.3-1-2.9 0-2.3-0.5-3-2.2-3.3-1.8-0.2-2.4-1.1-2.6-3.5-0.3-2.7-0.8-3.3-2.6-3.3-2.4 0-5.6-2.8-5.6-4.8 0-0.7-0.6-1.2-1.3-1.2-2 0-4.7-3.3-4.7-5.8 0-1.8-0.6-2.2-3-2.2-1.6 0-3-0.4-3-1 0-0.5-0.7-1-1.5-1-0.8 0-1.5-0.4-1.5-1 0-0.5-0.7-1-1.5-1-0.8 0-1.5-0.9-1.5-2 0-1.6-0.7-2-3.4-2-1.9 0-4.1-0.7-5-1.5-0.8-0.8-2.2-1.5-3-1.5-0.9 0-1.6-0.4-1.6-1 0-0.5-0.6-1-1.4-1-0.7 0-4.9-1.1-9.2-2.5-4.3-1.4-8.9-2.5-10.1-2.5-1.7 0-2.3-0.6-2.3-2.1 0-2 0.4-2.1 4.8-1.4 11 1.6 23.7 6.9 36.6 15.2 17.3 11.2 36.6 36.6 45.7 60.3 3.4 8.8 3.5 10 1 10-1.4 0-2.4-1.3-3.5-4.7z"/>
			<path id="p73pUiXWw" class="s4" d="m129 209c0-4.2 1.4-6 4.7-6 3.2 0 2.9 1.4-1.2 5.8l-3.4 3.7z"/>
			<path id="pY72iqx9p" class="s4" d="m388.8 206.1c-3.5-4-3.5-5.1-0.3-5.1 2.9 0 3.8 1.6 3.3 5.6l-0.3 2.8z"/>
			<path id="p7L2RHLWX" class="s4" d="m101 201c0-3.1 4.5-13.2 6.1-13.8 0.5-0.2 0.9-1 0.9-1.8 0-0.8 0.5-1.4 1-1.4 0.6 0 1-0.7 1-1.5 0-0.8 0.5-1.5 1-1.5 0.6 0 1-0.7 1-1.5 0-0.8 0.7-1.5 1.5-1.5 0.8 0 1.5-0.9 1.5-2 0-1.1 0.7-2 1.5-2 0.8 0 1.5-0.9 1.5-2 0-1.6 0.7-2 3.1-2h3.1l-2.4 3.3c-6.2 8.1-11.9 16.8-15.2 23.5-3.9 7.7-5.6 9-5.6 4.2z"/>
			<path id="pjjUxeAKM" class="s4" d="m411.2 185l-3.2-5h3q3 0 3 1.5c0 0.8 0.5 1.5 1 1.5 0.6 0 1 1.6 1 3.5 0 1.9-0.3 3.5-0.7 3.5-0.5 0-2.3-2.3-4.1-5z"/>
			<path id="p10nSkyJCd" class="s4" d="m394.6 164.9l-7.8-7.9h3.7c2.8 0 3.8 0.5 4.2 2 0.3 1.1 1.2 2 1.9 2 0.8 0 1.4 1 1.4 2.5 0 2 0.5 2.5 2.5 2.5 2.2 0 2.5 0.4 2.5 3.5 0 1.9-0.1 3.5-0.2 3.4-0.2 0-3.8-3.6-8.2-8z"/>
			<path id="pYZV2QsNo" class="s4" d="m131 160.1c0-2.9 0.3-3.1 3.6-3.1 3.9 0 3.8 0.9-0.6 4l-3 2.1z"/>
			<path id="p1Grxwf8qb" class="s4" d="m281.2 157c-1.2-1.2-2.2-2.9-2.2-4 0-2.4 5.2-8.4 8.8-10.3 1.5-0.8 4.8-2.6 7.3-4 6-3.3 18-7.3 24.7-8.2 4.8-0.6 5.2-0.5 5.2 1.3 0 1.7-1.1 2.1-8 3.3-4.4 0.7-8 1.6-8 2.1 0 0.4-1.3 0.8-3 0.8-1.6 0-3 0.5-3 1 0 0.6-0.7 1-1.5 1-0.9 0-2.5 0.9-3.7 2-1.2 1.1-3.4 2-5 2-1.8 0-2.8 0.5-2.8 1.5q0 1.5-3 1.5c-2.5 0-3 0.4-3 2.4 0 1.3-0.3 3.1-0.6 4-0.5 1.2 0 1.6 2 1.6 3.1 0 3.4 1.5 0.7 3-2.5 1.3-2.4 1.3-4.9-1z"/>
			<path id="pNN4uTpLJ" class="s4" d="m139 154q0-3 1.5-3c0.8 0 1.5-0.4 1.5-1 0-0.5 1.1-1.2 2.5-1.6 1.4-0.3 2.5-1 2.5-1.5 0-0.5 1.1-0.9 2.5-0.9 1.4 0 2.5-0.4 2.5-1 0-0.5 1.4-1 3-1 1.8 0 3-0.5 3-1.3 0-1.4 9.5-4.7 13.5-4.7 4.6 0 2.6 2.7-3.2 4.5-7.8 2.4-17.4 6.8-23.9 11l-5.4 3.5z"/>
			<path id="pd6dgHsRq" class="s4" d="m289 152q0-3 1.5-3c0.8 0 1.5-0.4 1.5-1 0-0.5 1.6-1 3.5-1 1.9 0 3.5 0.3 3.5 0.8 0 0.4-2.3 2.2-5 4l-5 3.2z"/>
			<path id="pPFmkqwsL" class="s4" d="m378.5 152c-4.2-2.8-13.1-7-18.9-8.9-5.7-1.9-7.3-4.1-2.9-4.1 3.8 0 13.3 2.8 13.3 3.9 0 0.5 1.4 1.1 3 1.5 2.1 0.4 3 1.1 3 2.6 0 1.6 0.7 2 3.5 2 3.1 0 3.5 0.3 3.5 2.5 0 3-0.6 3.1-4.5 0.5z"/>
			<path id="p1ouaLZpt" class="s4" d="m230.8 148.7c-2.6-1.8-4.8-3.5-4.8-3.9 0-0.5 1.6-0.8 3.5-0.8 1.9 0 3.5 0.5 3.5 1 0 0.6 0.7 1 1.5 1q1.5 0 1.5 3c0 1.7-0.1 3-0.2 2.9-0.2 0-2.4-1.5-5-3.2z"/>
			<path id="pxbjikj7i" class="s4" d="m237 149.3c-0.1-3.1-2.1-6.3-3.9-6.3-0.6 0-1.1-0.7-1.1-1.5 0-0.8-0.6-1.5-1.4-1.5-0.8 0-5.7-1.4-10.8-3.2-8.4-2.9-10.7-3.2-24-3.6-11.1-0.3-14.8-0.7-14.8-1.7 0-1.8 3.4-2.5 13-2.5 15.7 0 29.7 3.4 40.3 9.7 7.6 4.6 9.6 8.3 6.1 11.7-2.3 2.3-3.4 2-3.4-1.1z"/>
			<path id="p14Ly9LSsX" class="s4" d="m216 142.1c-0.8-0.5-3.2-1.1-5.2-1.5-2.5-0.5-3.8-1.2-3.8-2.3 0-1.3 0.9-1.5 5.4-0.9 7.1 0.8 8.6 1.4 8.6 3.7 0 2-2.4 2.5-5 1z"/>
			<path id="pyqiYvNZf" class="s4" d="m311 141c0-1.6 0.7-2 3.5-2 3.9 0 4.3 0.6 1.8 2.6-2.7 2-5.3 1.7-5.3-0.6z"/>
			<path id="paph1cCvl" class="s4" d="m340.8 140.3c-7-0.3-7.8-0.6-7.8-2.3 0-1.7 0.7-2 4.3-2 2.3 0 6.6 0.3 9.5 0.6 4.2 0.6 5.2 1 5.2 2.5 0 1.2-0.6 1.8-1.7 1.7-1-0.1-5.3-0.4-9.5-0.5z"/>
		</g>
	</g>
	<g id="l2U7YPKCHfvUPDgCYpGbuXL">
		<g>
			<path id="p18YokyTkq" class="s5" d="m196 388.6c0-1.3 2.8-2.6 5.8-2.6 0.6 0 1.2 0.9 1.2 2 0 1.6-0.7 2-3.5 2-2.3 0-3.5-0.5-3.5-1.4z"/>
			<path id="p18wl60lkr" class="s5" d="m319 387c0-2.1 1-2.4 4.8-1.4 3.6 1 2.7 3.4-1.3 3.4-2.8 0-3.5-0.4-3.5-2z"/>
			<path id="pvQBxSnBV" class="s5" d="m342 387.6c0-0.8 1.9-1.8 4.4-2.5 6-1.5 6.6-1.4 6.6 0.8 0 1.3-1 2-3.1 2.5-5.1 1-7.9 0.7-7.9-0.8z"/>
			<path id="pKruvfqd2" class="s5" d="m165 384.6c0-2.3 0.2-2.4 3.5-1.3 1.9 0.6 3.5 1.6 3.5 2.4 0 0.8-1.3 1.3-3.5 1.3-3 0-3.5-0.3-3.5-2.4z"/>
			<path id="p12YZpZ8gR" class="s5" d="m387.5 367c0.3-0.5 1.9-1.9 3.5-3l3-2.1v3c0 2.9-0.3 3.1-3.6 3.1-2 0-3.3-0.4-2.9-1z"/>
			<path id="pzD0uiecx" class="s5" d="m306.1 348.4c-4.4-3.1-6.8-12.4-3.2-12.4 1.5 0 2.1 1 2.6 3.8 0.5 3.2 1.2 4.1 4.1 5.2 2.1 0.9 3.4 2 3.4 3.2 0 2.3-3.7 2.4-6.9 0.2z"/>
			<path id="p5gOzFBYb" class="s5" d="m315.4 333.3c1.1-11.5 1.6-13.3 3.7-13.3 2.2 0 2.3 1 1 7.7-0.5 2.6-1.2 6.5-1.6 8.6-0.4 2.5-1.1 3.7-2.2 3.7-1.3 0-1.5-1-0.9-6.7z"/>
			<path id="p1EtECwKbU" class="s5" d="m337.6 332.8c-1.1-4.2-0.7-5.8 1.4-5.8 1.7 0 2 0.7 2 4 0 4.5-2.3 5.7-3.4 1.8z"/>
			<path id="pStRsu3UX" class="s5" d="m301 327.9c0-2.9 2.5-8.9 3.7-8.9 1.4 0 1.7 3.8 0.7 7.8-0.6 2.2-4.4 3.2-4.4 1.1z"/>
			<path id="psw2CUBbl" class="s5" d="m336.1 321.3c-0.6-2.7-1.3-7.4-1.7-10.5-0.6-5.3-0.5-5.8 1.4-5.8 1.6 0 2 0.9 2.5 4.8 0.3 2.6 0.9 7.3 1.3 10.5 0.6 4.8 0.4 5.7-0.9 5.7-1 0-1.9-1.6-2.6-4.7z"/>
			<path id="p19TrfQM0K" class="s5" d="m401 318.6c0-3.3 0.2-3.6 3.1-3.6h3l-2.1 3c-3.1 4.4-4 4.5-4 0.6z"/>
			<path id="pb3qRzPNI" class="s5" d="m96 315c0-1.6-0.4-3-1-3-0.5 0-1-1.6-1-3.5 0-5.7 2.4-4.1 4.7 3l2.1 6.5h-2.4c-2 0-2.4-0.5-2.4-3z"/>
			<path id="pFdtIZ5pP" class="s5" d="m305.6 310.8c2.9-7.9 6.2-14.3 10.4-19.8 3.8-4.9 3.9-5.9 1.8-10.8-1-2.4-1.8-5-1.8-5.8 0-1.8 3.7-1.8 4.7 0 0.5 0.9 1.8 1.2 3.4 0.9 2.3-0.4 2.7-1.1 3.3-5.6 0.3-2.9 0.6-9.8 0.6-15.4v-10.3h4.4c6.3 0 7 1.3 7.1 13.3 0 11.6-0.9 16.9-3.2 19.2-1.5 1.5-1.3 1.6 1.8 1.3 3.1-0.3 3.6-0.8 5.8-6.3 4.2-10.5 4-13.5-1.8-25.2-2.8-5.6-5.1-11.2-5.1-12.5 0-3-7-8.8-10.4-8.8-1.9 0-2.6 0.5-2.6 2 0 1.1-0.5 2-1.1 2-0.8 0-0.9 2.4-0.4 8 0.4 4.4 0.3 8-0.2 8-0.4 0-1.7 1.9-2.8 4.3-1.6 3.3-2 6.1-1.8 13.5 0.1 7.3-0.2 9.2-1.3 9.2-4.7 0-3.3-25.5 1.6-28.5 1.7-1 0-12.2-2.7-18.3-1.3-3-3.8-7.7-5.6-10.5-3.8-5.9-6.7-12.8-6.7-15.7 0-2.9 3.7-2.6 4.5 0.3 1 3.7 4.9 12.1 6.3 13.6 0.7 0.7 2.2 3.1 3.3 5.2 1.5 3 2.5 3.9 4.4 3.9 1.4 0 2.5-0.4 2.5-0.8 0-0.4-1.1-4.8-2.5-9.7-1.5-5-3.3-11.4-4.1-14.2-1.1-4.2-1.9-5.3-3.5-5.3-1.3 0-2.3-0.8-2.6-2-0.7-2.7-2.9-0.9-3.8 3.1-0.9 3.8-4.5 4.1-4.5 0.4 0-5.6 5-12.5 9.1-12.5 3.3 0 6 3.1 7.7 8.6 1.8 6 7 25.6 7.7 28.7 1.5 7.2 5.6-1.8 7-15.3 1.8-16.6 5.3-24.9 10.6-25 3 0 6.7 4 8.5 9.2 1.5 4.6 1.5 6 0.3 13.7-1.4 9.1-6.8 21.7-11.5 26.8-1.3 1.4-2.4 2.8-2.4 3.1 0 0.3 2.3 5.2 5.1 10.9 4.8 9.5 5.2 11 5.3 17.6 0 7.5-1.4 12.8-5.9 21.7-3.1 6.1-3.1 7.4 0 9.8 1.4 1.1 3.5 4.9 5 8.9 3 8.4 3.1 9.3 0.6 9.3-1.5 0-2.4-1.4-3.8-5.7-1.1-3.2-2.3-5.7-2.6-5.5-0.4 0.1-1.6 0.2-2.6 0.2-1.4 0-2.1 0.8-2.3 2.7-0.4 3.5-3 4.1-5.8 1.3-2.6-2.6-2.2-5.4 0.8-5.8 1.6-0.2 2.2-1 2.2-2.7 0-1.3 0.4-2.6 0.9-2.9 1.3-0.8 0.2-4.3-1.5-5-0.8-0.3-1.4-1.9-1.4-3.6 0-2.3-0.4-3-2-3-1.1 0-2 0.6-2 1.3 0 0.8-1.1 1.9-2.4 2.5-1.3 0.6-2.7 2-3.1 3.2-1 3 0.3 9 1.9 9 1.4 0 2.6 2.1 2.6 4.6 0 0.7-0.6 1.1-1.2 0.9-0.9-0.3-2.1 2.1-3.7 7-1.5 4.8-2.9 7.5-3.8 7.5-1.2 0-1.4-0.9-0.9-3.7 1.9-12.3 1.9-12.3 0.2-12.3-1 0-1.6-0.9-1.7-2.2 0-1.8-0.4-1.4-1.6 1.5-0.8 2-1.8 3.7-2.2 3.7-0.4 0-2 3.6-3.6 8-2.5 6.7-3.4 8-5.2 8h-2.3zm28.9-41c2.5-8.4 1.6-21-1.5-21.6-1.3-0.2-1.5 2-1.6 13.3 0 7.4 0.3 13.5 0.7 13.5 0.5 0 1.5-2.3 2.4-5.2z"/>
			<path id="p18IEkqHw5" class="s5" d="m350 313.5c0-4 2.4-4.9 3.4-1.2 1 3.7 0.7 4.7-1.4 4.7-1.6 0-2-0.7-2-3.5z"/>
			<path id="pEIl84vNh" class="s5" d="m429 296.8c0-3 1.3-5.8 2.6-5.8 0.9 0 1.4 1.2 1.4 3.5 0 2.8-0.4 3.5-2 3.5-1.1 0-2-0.6-2-1.2z"/>
			<path id="pvFxa78RV" class="s5" d="m107 280.8c0-1.9 0.2-2 1-0.8 1.3 1.9 1.3 3 0 3-0.5 0-1-1-1-2.2z"/>
			<path id="pfT2brh6a" class="s5" d="m110.6 279.4c-2.3-2.2-2-3.4 0.9-3.4 2 0 2.5 0.5 2.5 2.5 0 2.9-1.2 3.2-3.4 0.9z"/>
			<path id="p1GCpYQIBn" class="s5" d="m432.1 276.3c0.1-2.1-0.2-5-0.6-6.5-0.6-2.4-0.4-2.8 1.2-2.8 1.6 0 2.2 0.9 2.7 4.6 1 7.4 0.8 8.4-1.4 8.4-1.6 0-1.9-0.7-1.9-3.7z"/>
			<path id="pskQLX6FZ" class="s5" d="m225.8 278.3c-1-0.2-1.8-1.1-1.8-1.9 0-1.1 1.5-1.4 6.5-1.4 5.8 0 6.5 0.2 6.5 2 0 1.7-0.6 2-4.7 1.9-2.7-0.1-5.6-0.3-6.5-0.6z"/>
			<path id="pdIvt3KI2" class="s5" d="m286.8 278.3c-1-0.2-1.8-1.1-1.8-1.9 0-1 1.3-1.4 4.8-1.4 2.6 0 6-0.7 7.6-1.5 3.9-2 5.6-1.9 5.6 0.5 0 3.5-9.5 6.1-16.2 4.3z"/>
			<path id="px59b7Ull" class="s5" d="m220.8 276.9c-2.4-1.3-2.3-4.2 0.2-6.4 2-1.8 2-1.7 2 2.8 0 2.6-0.1 4.7-0.2 4.7-0.2 0-1.1-0.5-2-1.1z"/>
			<path id="p1G8gOPyoq" class="s5" d="m276.3 276.8c-3-1.5-3.1-6.3-0.2-7.9 2.7-1.4 8.9-0.3 8.9 1.6 0 1-1.1 1.5-3.5 1.5-1.9 0-3.5 0.5-3.5 1 0 0.6 0.9 1 2 1 1.3 0 2 0.7 2 2 0 2.2-2.1 2.5-5.7 0.8z"/>
			<path id="pE7XpEdvv" class="s5" d="m399 275.6c0-0.7 0.8-1.6 1.8-1.9 0.9-0.2 2.5-0.8 3.5-1.2 1.4-0.6 1.7-0.2 1.7 1.9 0 2.3-0.4 2.6-3.5 2.6-2.3 0-3.5-0.5-3.5-1.4z"/>
			<path id="p11TG1bhOC" class="s5" d="m233.7 256.9c-1-0.6-2.8-0.8-4.1-0.5-3 0.7-6.6-0.3-6.6-2 0-1.1 1.7-1.4 7-1.4 6.8 0 7 0.1 7 2.5 0 2.7-0.6 3-3.3 1.4z"/>
			<path id="psLbldIAX" class="s5" d="m404.5 256.9c-1.6-0.4-6.7-0.7-11.2-0.8-7.8-0.1-8.3-0.2-8.3-2.3 0-2.1 0.2-2.1 11.2-1.4 6.2 0.4 11.4 0.8 11.6 1 0.2 0.3 0.2 1.3 0 2.3-0.2 1.5-0.9 1.7-3.3 1.2z"/>
			<path id="pSa5Av3aF" class="s5" d="m104 249.5c0-3.1 0.3-3.5 2.5-3.5 2.8 0 2.9 0.3 1.4 3.2-1.3 2.5-0.5 3.5 1.6 1.8 1.2-1 1.5-1 1.5 0.4 0 1.2-0.9 1.6-3.5 1.6-3.3 0-3.5-0.2-3.5-3.5z"/>
			<path id="pApPLxhXK" class="s5" d="m407 250c0-1.3 0.7-2 1.8-2 1.1 0 2.7 0.9 3.7 2 1.8 2 1.7 2-1.8 2-3 0-3.7-0.4-3.7-2z"/>
			<path id="pt2lmQRy7" class="s5" d="m130.8 250.3c-4.1-0.3-5.8-0.8-5.8-1.8 0-2.8 11.2-3.1 16.2-0.4 2.8 1.5 2.1 2.9-1.4 2.7-1.8-0.1-5.9-0.3-9-0.5z"/>
			<path id="p7Rq08ToJ" class="s5" d="m282 249c0-2.1 1-2.4 4.8-1.4 3.6 1 2.7 3.4-1.3 3.4-2.8 0-3.5-0.4-3.5-2z"/>
			<path id="p1HmS8VOwn" class="s5" d="m394 248c0-2.1 1.6-2.5 5.8-1.4 3.9 1.1 2.7 3.4-1.8 3.4-3.3 0-4-0.3-4-2z"/>
			<path id="pDqMBbUuG" class="s5" d="m420 243.5c0-4 2.4-4.9 3.4-1.2 1 3.7 0.7 4.7-1.4 4.7-1.6 0-2-0.7-2-3.5z"/>
			<path id="ppoDE2mUB" class="s5" d="m107 240.5c0-3 0.3-3.5 2.4-3.5 2.3 0 2.4 0.2 1.3 3.5-0.6 1.9-1.6 3.5-2.4 3.5-0.8 0-1.3-1.3-1.3-3.5z"/>
			<path id="pck5wmJ8b" class="s5" d="m407.1 229.5c-3.4-5.8-6.6-10.7-7.1-11-0.5-0.3-1.9-2-3.1-3.7l-2.2-3.1 3.6 0.5c3.3 0.3 3.6 0.1 3.9-2.2 0.3-2.3 0.7-2 5.6 3.8 2.8 3.5 5.2 6.7 5.2 7.3 0 0.5-1.1 0.9-2.5 0.9-1.9 0-2.3 0.4-1.8 1.8 0.4 0.9 1.5 2.6 2.5 3.6 1 1.1 1.8 2.8 1.8 3.8 0 1 0.5 1.8 1 1.8 0.6 0 1 1.6 1 3.5 0 1.9-0.4 3.5-0.8 3.5-0.5 0-3.7-4.7-7.1-10.5zm0.9-11.5c0-2.7-0.3-3-3-3q-3 0-3 1.5c0 0.8 0.9 1.5 2 1.5 1.1 0 2 0.7 2 1.5 0 0.8 0.5 1.5 1 1.5 0.6 0 1-1.3 1-3z"/>
			<path id="pLeQe7vT3" class="s5" d="m429.6 230.8c-1-3.8-0.7-4.8 1.4-4.8 1.6 0 2 0.7 2 3.5 0 4-2.4 4.9-3.4 1.3z"/>
			<path id="pvUDJ374Z" class="s5" d="m427.7 221.3c-0.2-1-0.8-2.6-1.2-3.5-0.6-1.5-0.2-1.8 1.9-1.8 2.3 0 2.6 0.4 2.6 3.5 0 3.7-2.3 5-3.3 1.8z"/>
			<path id="pNhzPP4qa" class="s5" d="m389.8 207l-2.8-3.5 2.5-0.3c3.3-0.4 3.2-2.2 0-2.2-3.2 0-3.2-1.7 0-3.2 2.8-1.2 6.6 0.6 8.5 4.2 1 1.8 0.8 2-1.9 2-2.6 0-3 0.4-3.3 3.2l-0.3 3.3z"/>
			<path id="pXOnaG2s1" class="s5" d="m423 207.9c0-0.7-2.2-5.6-5-11.1-2.7-5.5-5-10.1-5-10.4 0-0.2 1.1-0.4 2.3-0.4 2.4 0 4.7 3.3 4.7 6.5 0 0.8 0.5 1.5 1 1.5 0.6 0 1 0.9 1 2 0 1.1 0.5 2 1 2 0.6 0 1 0.9 1 2 0 1.1 0.5 2 1 2 0.6 0 1 1.6 1 3.5 0 2.4-0.5 3.5-1.5 3.5-0.8 0-1.5-0.5-1.5-1.1z"/>
			<path id="pL7BELFEk" class="s5" d="m408.8 181l-2.8-3.5 2.6-0.3c3.3-0.4 3.6-0.1 3.2 3.9l-0.3 3.4z"/>
			<path id="p1DY9RPy85" class="s5" d="m400.8 171l-2.8-3.5 2.6-0.3c3.3-0.4 3.6-0.1 3.2 3.9l-0.3 3.4z"/>
			<path id="pj3DxLmML" class="s5" d="m132 159.1c0-2.9 0.3-3.1 3.6-3.1 3.9 0 3.8 0.9-0.6 4l-3 2.1z"/>
			<path id="p15y9Av8nU" class="s5" d="m299 145.6c0-1.9 0.5-2.6 1.9-2.6 1.1 0 2.1-0.5 2.3-1.1 0.2-0.6 2.5-1.3 5.1-1.6 6.7-0.8 6.2 1.6-1.1 4.5-3.1 1.3-6.3 2.5-6.9 2.9-0.9 0.3-1.3-0.4-1.3-2.1z"/>
			<path id="pqhx72ois" class="s5" d="m368.8 146.4c-3.8-2-3.5-3.4 0.7-3.4 3.1 0 3.5 0.3 3.5 2.5 0 2.9-0.5 3-4.2 0.9z"/>
			<path id="pvbFWJBNK" class="s5" d="m172 139c0-1.6 0.7-2 3.5-2 4 0 4.9 2.4 1.3 3.4-3.8 1-4.8 0.7-4.8-1.4z"/>
			<path id="pfzBVNKUj" class="s5" d="m203.7 139.3c-1.8-1.7-0.5-3.3 2.8-3.3 2.8 0 3.5 0.4 3.5 2 0 1.5-0.7 2-2.8 2-1.6 0-3.2-0.3-3.5-0.7z"/>
			<path id="pbg6JIOL0" class="s5" d="m329 138.1c0-1.9 0.6-2.1 6-2.1 4.7 0 6 0.3 6 1.5 0 0.8-0.1 1.5-0.2 1.5-0.2 0.1-2.9 0.3-6 0.7-5.4 0.5-5.8 0.4-5.8-1.6z"/>
		</g>
	</g>
	<g id="lDhUqc3OTwOlwur2cwJmWH">
		<g>
			<path id="p19SvPmiL9" class="s6" d="m156 381.5c0-2.4 0.1-2.5 3.2-1.2 4.6 1.9 4.8 3.7 0.4 3.7-3.2 0-3.6-0.3-3.6-2.5z"/>
			<path id="prxGHbalv" class="s6" d="m334 303.6c0-1.8-0.6-2.2-5.2-3-3.1-0.6-3.8-0.4-3.8 0.9 0 2.3-2 1.8-4.6-1.1-2.8-3-3.3-9.7-0.9-13.1 1-1.4 1.2-2.4 0.5-2.8-0.6-0.4-0.8-1-0.5-1.5 0.3-0.5 0.1-1.1-0.4-1.5-1.6-0.9-0.1-3.4 2.8-5 1.5-0.7 5.4-1.3 8.6-1.3 5.3 0 6.4 0.4 9.3 3.1 3.5 3.4 4.1 5.4 1.7 6.3-1.2 0.5-1.3 1-0.4 2 0.6 0.8 0.9 2.1 0.5 2.9-0.3 0.9-0.2 1.4 0.3 1.1 0.5-0.3 1.4 0 2 0.7 1.2 1.5-0.7 5.5-5.1 10.6-2.9 3.3-4.8 4-4.8 1.7z"/>
			<path id="pHePQvEHW" class="s6" d="m103 277c0-2.3 0.4-3 2-3 1.1 0 2-0.4 2-1 0-0.5 0.9-1 2-1 1.7 0 2 0.7 2 3.8-0.1 3.3-0.2 3.5-1.4 2-1.8-2.4-3-2.3-2.3 0.2 0.4 1.6 0 2-1.9 2-2 0-2.4-0.5-2.4-3z"/>
			<path id="p1ACIPghPm" class="s6" d="m432.3 272.5c-1.1-3.3-1-3.5 1.3-3.5 2.1 0 2.4 0.5 2.4 3.5 0 2.2-0.5 3.5-1.3 3.5-0.8 0-1.8-1.6-2.4-3.5z"/>
			<path id="pColWktTV" class="s6" d="m432 254.8c0-3 1.3-5.8 2.6-5.8 0.9 0 1.4 1.2 1.4 3.5 0 2.8-0.4 3.5-2 3.5-1.1 0-2-0.6-2-1.2z"/>
			<path id="p2rpeapJm" class="s6" d="m420.8 251.3c-1.9-0.5-2.5-3.3-0.8-3.3 0.6 0 1-0.7 1-1.5 0-2.4 2.7-1.8 3.4 0.7 0.6 2.7-1.1 4.6-3.6 4.1z"/>
			<path id="p17KJ3y8OX" class="s6" d="m120 249.6c0-1.3 2.8-2.6 5.8-2.6 0.6 0 1.2 0.9 1.2 2 0 1.6-0.7 2-3.5 2-2.3 0-3.5-0.5-3.5-1.4z"/>
			<path id="pJRCy9B3A" class="s6" d="m337 231.5c0-6.7 3.1-5.7 3.6 1.2 0.2 2.7-0.2 3.3-1.7 3.3-1.6 0-1.9-0.7-1.9-4.5z"/>
			<path id="pouCU0LoV" class="s6" d="m341.8 227.4c-0.7-0.6 5.4-13.2 6.4-13.3 0.4-0.1 0.6 0.8 0.5 1.8 0 1.1-0.5 1.7-1.1 1.4-0.5-0.4-0.7 0.1-0.3 1 0.3 1 0.3 1.7-0.1 1.7-0.8 0-4.8 6.3-4.3 6.8 0.5 0.6-0.6 1.2-1.1 0.6z"/>
			<path id="ppTHfojdP" class="s6" d="m404.9 225.2c-2.9-3.4-3.1-5.2-0.4-5.2 2.2 0 2.5 0.4 2.5 3.5 0 4-0.1 4.1-2.1 1.7z"/>
			<path id="pPUTKWItY" class="s6" d="m312 140.8c0-2.3 0.5-2.5 8.9-3.6 11.8-1.6 14.1-1.5 14.1 0.3 0 0.8-0.3 1.5-0.7 1.6-4.9 0.4-19.2 2.8-20.5 3.3-1.4 0.7-1.8 0.3-1.8-1.6z"/>
			<path id="pZ1G6yDEj" class="s6" d="m178 138c0-1.7 0.7-2 4.5-2 4.9 0 6.4 2.3 2.3 3.4-4.5 1.2-6.8 0.7-6.8-1.4z"/>
			<path id="pYoc6WcCv" class="s6" d="m202.8 139.2c-1-0.2-1.8-1-1.8-1.8 0-1 1.2-1.4 4-1.4 3.2 0 4 0.4 4 1.9 0 1.8-2.1 2.3-6.2 1.3z"/>
		</g>
	</g>
	<g id="l1bBNDjyfuMka8Pe5TVuLZH">
		<g>
			<path id="peub9J08d" class="s7" d="m361 383c0-0.8 5.1-4 6.5-4 0.3 0 0.5 1.1 0.5 2.5 0 2.2-0.4 2.5-3.5 2.5-1.9 0-3.5-0.4-3.5-1z"/>
			<path id="poKXKVEPR" class="s7" d="m137 371.5c0-0.8-0.9-1.5-2-1.5-1.6 0-2-0.7-2-3.1v-3l4.5 3.2c6.9 5 7.4 5.9 3.1 5.9-2.5 0-3.6-0.4-3.6-1.5z"/>
			<path id="p7KzDZTY1" class="s7" d="m382.5 371c0.3-0.5 1.9-1.9 3.5-3l3-2.1v3c0 2.9-0.3 3.1-3.6 3.1-2 0-3.3-0.4-2.9-1z"/>
			<path id="pcemhK7is" class="s7" d="m398.8 356.2c1.2-1.6 2.8-3.5 3.7-4.2 1.5-1.2 1.6-1 1.3 2.6-0.3 3.6-0.5 3.9-3.7 4.2l-3.3 0.3z"/>
			<path id="pIVx1M44E" class="s7" d="m341.8 349.3c-2.9-3.4-3-5.3-0.3-5.3 2.2 0 2.5 0.4 2.5 3.5 0 4-0.1 4.1-2.2 1.8z"/>
			<path id="pb6nsiVmN" class="s7" d="m307.2 348.3c-3.5-1.7-4.6-3.6-5.7-9.7-0.6-3.2-0.5-3.6 1.3-3.6 1.4 0 2.2 0.9 2.6 3.3 0.9 4.2 2.6 6.4 5.9 7.2 2.6 0.7 2.7 0.5 2.7-2.9 0-2.9 0.4-3.6 2-3.6 2.7 0 2.7 4.8-0.1 8.4-2.4 3-4.1 3.2-8.7 0.9z"/>
			<path id="pKonXEV67" class="s7" d="m338.6 338.3c-0.2-1.6-0.8-4.9-1.1-7.5-0.6-4.3-0.4-4.8 1.3-4.8 2.2 0 3.2 3.4 3.2 10.6 0 5.1-2.5 6.3-3.4 1.7z"/>
			<path id="pHu6RwU4Z" class="s7" d="m315 334.5c0-2.8 0.4-3.5 2-3.5 2.1 0 2.4 1 1.4 4.8-1 3.6-3.4 2.7-3.4-1.3z"/>
			<path id="pzAhtjS11" class="s7" d="m352 332.5c0-4 0.4-5.5 1.4-5.5 1.6 0 2.6 3 2.6 7.8 0 2.5-0.4 3.2-2 3.2-1.8 0-2-0.7-2-5.5z"/>
			<path id="p16Pr6mNVQ" class="s7" d="m415 334.4c0-1.2 3.4-6.4 4.2-6.4 0.4 0 0.8 1.6 0.8 3.5 0 3.1-0.3 3.5-2.5 3.5-1.4 0-2.5-0.3-2.5-0.6z"/>
			<path id="p124xmZSg1" class="s7" d="m301 328.8c0-3 1.3-5.8 2.6-5.8 0.9 0 1.4 1.2 1.4 3.5 0 2.8-0.4 3.5-2 3.5-1.1 0-2-0.6-2-1.2z"/>
			<path id="pJ1DTX9Ru" class="s7" d="m316.4 325.3c0.4-2.7 0.9-6.9 1.3-9.5 0.3-2.7 0.9-4.8 1.4-4.8 0.5 0 0.9-1.3 0.9-3 0-2.4 0.4-3 2.1-3 1.7 0 2 0.4 1.6 2.3-0.7 2.8-2.4 10.8-3.8 17.5-0.7 3.6-1.5 5.2-2.6 5.2-1.3 0-1.4-0.8-0.9-4.7z"/>
			<path id="p5uxfAZH7" class="s7" d="m336.1 318.8c-0.6-2.9-1.3-8-1.7-11.3-0.5-5.8-0.4-6.2 2.8-10 1.9-2.2 3.7-4.8 4.1-5.8 0.6-1.5 1-1.6 2.7-0.5 2.4 1.5 2.6 2.7 0.5 3.4-0.8 0.4-1.5 1.4-1.5 2.4 0 0.9-1.2 3-2.6 4.6-2.2 2.5-2.4 3.5-1.9 7.4 1.8 14.5 1.8 15 0.2 15-1.1 0-1.9-1.6-2.6-5.2z"/>
			<path id="pTqV1DbgI" class="s7" d="m303 319.9c0-2.7 3.6-10.9 4.7-10.9 1.6 0 1.7 4.6 0.2 8.9-1.1 3-4.9 4.6-4.9 2z"/>
			<path id="pXfqfvMRY" class="s7" d="m350.5 318.3c-0.3-1.6-1-4.4-1.5-6.4-1.9-7-0.6-11.8 1.9-7.1 0.9 1.7 4.1 13.6 4.1 15.3 0 0.5-0.9 0.9-2 0.9-1.3 0-2.1-0.9-2.5-2.7z"/>
			<path id="pZKV5Sj2T" class="s7" d="m309 303.5c0-1.2 6.2-11.2 8.9-14.3l2.8-3.2v4.5c0 3.3 0.6 5.2 2.1 6.8 2.7 2.8 2.9 5.7 0.4 5.7-2.4 0-4.2-1.9-4.2-4.6 0-1.7-0.5-2-2.5-1.6-2.1 0.4-2.5 1-2.5 3.8 0 3-0.3 3.4-2.5 3.4-1.4 0-2.5-0.2-2.5-0.5z"/>
			<path id="p86ZcYcII" class="s7" d="m345 298.5c0-2.2 0.5-3.5 1.3-3.5 0.8 0 1.8 1.6 2.4 3.5 1.1 3.3 1 3.5-1.3 3.5-2.1 0-2.4-0.5-2.4-3.5z"/>
			<path id="p12szN6oo8" class="s7" d="m337.1 281.4c-2.5-2.5-4.2-3.4-6.8-3.4-3.8 0-7.4 1.5-8.6 3.7-0.7 1.1-1.2 1.1-2.3 0.2-2.6-2.1-1.6-3.9 2.1-3.9 2.8 0 3.5-0.4 3.5-2 0-1.1 0.5-2 1-2 0.6 0 1-1.8 1-4 0-3.4 0.3-4 2.1-4 1.9 0 2 0.4 1.4 5.1-0.9 6.3 0.9 6.4 4 0.3 2.4-4.8 2.8-20.1 0.6-22.8-2.7-3.2-4.1-1.9-4.1 3.9 0 4.8-0.2 5.5-2 5.5-1.8 0-2-0.7-2-6.4 0-6.2 0.1-6.4 2.9-6.9 1.9-0.4 3.2-1.4 3.6-2.9 0.9-2.9 4.4-6.8 6.1-6.8 0.7 0 3.4 4.1 5.9 9.1 3.9 7.9 4.5 10 4.5 15.4 0 6.3-2.1 13.8-5.9 21.3-1.2 2.3-2.5 4.2-2.9 4.1-0.4 0-2.2-1.6-4.1-3.5z"/>
			<path id="pAdQIaPYN" class="s7" d="m231 276.8c0-1.5 0.8-1.8 4.5-1.8 3.3 0 4.5 0.4 4.5 1.5 0 0.8-0.8 1.6-1.7 1.7-6.3 0.5-7.3 0.3-7.3-1.4z"/>
			<path id="psLAsq0U7" class="s7" d="m315.5 273.3c-0.4-1.6-0.9-4.4-1.1-6.3-0.3-1.9-0.6-4.7-0.9-6.2-0.6-3.6 2-13.4 4.5-16.8 1.6-2.3 1.8-3.3 1-5.5-0.6-1.5-0.8-3.5-0.5-4.5 0.6-2-3.3-11.2-8.1-19-3.6-5.9-7.4-15.2-7.4-18.4 0-3.6 2.2-9.2 4.9-12.5 2.3-2.8 3.2-3.3 5.4-2.7 1.5 0.3 3.2 1.6 3.8 2.8 1.6 3 9.9 32.8 9.9 35.6 0 1.8 0.5 2.3 2.2 2 2.7-0.4 5.2-8.9 6.8-23.1 1.4-12.1 3.8-18.4 7.6-19.3 3.4-0.9 5.4 0.3 7.7 4.7 1.5 2.8 1.7 5.2 1.5 13.9-0.4 10.2-0.5 10.8-4.7 18.8-2.4 4.5-5.1 8.8-6 9.5-0.9 0.7-0.6-0.3 0.8-2.6 1.3-2 3.2-6.1 4.3-9 6.5-17 6.4-27.8-0.2-32.4-2-1.4-2.3-1.3-4.4 0.6-1.7 1.6-2.7 4.2-3.6 9.9-2 13.1-2.8 16.5-4.8 23l-2 6.2 3.9 3.3c3.9 3.4 5.3 7.7 2.5 7.7-0.8 0-3.2-1.6-5.3-3.5-2.1-1.9-4.1-3.5-4.5-3.5-0.3 0-1.9 1.4-3.5 3-2.5 2.7-2.8 3.7-2.8 10.2 0 4.8-0.4 7.3-1.2 7.6-0.7 0.2-1.3 1-1.3 1.7 0 0.7-0.5 1.5-1.1 1.7-1.3 0.4-1.6 11.5-0.5 19.6 0.7 5.3 0.6 6.2-0.7 6.2-0.8 0-1.8-1.2-2.2-2.7z"/>
			<path id="pdUC0VCg3" class="s7" d="m234.4 256.9c-0.3-0.6-2.1-0.9-3.8-0.6-3.8 0.5-5.6 0-5.6-1.9 0-1.6 1.2-1.7 8.8-0.8 4.2 0.6 5.2 1 5.2 2.5 0 2.1-3.4 2.7-4.6 0.8z"/>
			<path id="p10NTTvIsF" class="s7" d="m138 249.5c0-2.1 0.3-2.3 2.3-1.6 3.3 1.2 3.5 4.1 0.3 4.1-2.1 0-2.6-0.5-2.6-2.5z"/>
			<path id="p8noQPNfK" class="s7" d="m106.2 229.3c3.5-7.4 4.8-8.1 4.8-2.8 0 3.1-0.3 3.5-2.6 3.5-1.4 0-2.4-0.3-2.2-0.7z"/>
			<path id="p1D3CAUqYg" class="s7" d="m93 222.5c0-2.8 0.4-3.5 2-3.5 2.1 0 2.4 1 1.4 4.8-1 3.6-3.4 2.7-3.4-1.3z"/>
			<path id="p4K1CkFsa" class="s7" d="m96 212.5c0-1.9 0.5-3.5 1-3.5 0.6 0 1-1.1 1-2.5 0-2 0.5-2.5 2.4-2.5h2.5l-2.2 6c-2.5 6.7-4.7 7.9-4.7 2.5z"/>
			<path id="phpitqCVf" class="s7" d="m393 210.5l-3.4-3.5h3.7c3.6 0 3.7 0.1 3.7 3.5 0 1.9-0.1 3.5-0.3 3.5-0.2 0-1.8-1.6-3.7-3.5z"/>
			<path id="poTJvRjFS" class="s7" d="m399 207.4c0-3.9 0.9-3.8 4 0.6l2.1 3h-3c-2.9 0-3.1-0.3-3.1-3.6z"/>
		</g>
	</g>
	<g id="l2dvYukbpVgLe6KEbc0RzPh">
		<g>
			<path id="pY0sXnDIm" class="s8" d="m343.8 350.9c-2.9-1.6-4.2-5-4.9-12.4-0.7-6.6-3.1-24.7-4.4-32.5-0.5-2.8-0.1-4 1.9-6.1 1.3-1.4 3.1-4 4-5.7 0.9-1.8 1.9-3.2 2.2-3.2 3.3 0 5.6 5.1 11.5 25.5 0.4 1.7 1 9.4 1.1 17.3 0.3 14 0.2 14.4-2.1 16.3-2.5 2.1-6.6 2.4-9.3 0.8z"/>
			<path id="p56x620Wy" class="s8" d="m308 348.2c-8.3-4.1-9.1-15.9-2.3-36.2 2.7-8 8.9-19.4 12.1-22.3 1.9-1.7 1.9-1.7 2.6 2.1 0.3 2.2 1.5 5.1 2.6 6.5 2.4 3 2.5 4.2 0.4 9.8-1.7 4.7-2.4 8.8-4.9 26.9-1.3 9.2-2 11.8-3.6 13.3-2.6 2.1-2.6 2.1-6.9-0.1z"/>
			<path id="p14HIqu3fw" class="s8" d="m340 284.6c0-0.2 1.8-4.3 4.1-9.2 3.9-8.5 4.1-9.2 3.7-16.9-0.3-4.4-0.8-8.9-1.1-10-0.4-1.1 0.2-0.2 1.3 2 2.3 4.8 2.6 12.1 0.6 18.7-1.8 5.9-6.7 15.8-7.8 15.8-0.4 0-0.8-0.2-0.8-0.4z"/>
			<path id="pFv8bj0Ns" class="s8" d="m318.4 280.3c-0.3-1-0.9-2.5-1.4-3.5-1.7-3.1-3.3-15.1-2.7-20.9 0.7-7.7 4.7-14.9 8.3-14.9 1.4 0 3.9 0.7 5.6 1.6 2.8 1.5 3.2 1.5 4 0 0.5-0.9 2-1.6 3.3-1.6 2.2 0 2.4 0.3 1.5 2.5-0.6 1.6-0.6 3.4 0 5 0.5 1.4 0.6 2.5 0.1 2.5-0.5 0-1.1-0.9-1.4-2.1-0.4-1.5-1.2-2-2.9-1.7-2.2 0.3-2.3 0.7-2 6.8 0.2 3.6 0 10.1-0.3 14.6l-0.7 8.1-4.6 2.4c-2.6 1.3-5 2.5-5.4 2.7-0.5 0.2-1.1-0.5-1.4-1.5z"/>
			<path id="p09PF1FCS" class="s8" d="m332 277.6c0-0.3 0.9-2.1 2.1-4 1.5-2.5 2.2-6 2.6-12.8 0.5-7.5 0.8-8.7 1.5-6.3 1.6 5.5-2.1 23.5-4.8 23.5-0.8 0-1.4-0.2-1.4-0.4z"/>
			<path id="ppxf4knQv" class="s8" d="m319.2 238.3c-0.5-1-0.8-3.1-0.5-4.8 0.3-2.1-0.7-5-3.3-10-7-13.1-10.3-20-10.3-21.5 0-0.8 0.9 0.5 2 3 1.1 2.5 2.6 5.2 3.3 6 2 2.3 6.4 11.3 8 16.4 0.6 1.7 1 1.5 4.3-1.8 2-2 4.5-3.6 5.5-3.6 2.5 0 2.4 4-0.2 4.7-1.1 0.3-2 0.9-2 1.4 0 0.5-0.6 0.9-1.4 0.9-1.3 0-2.6 4.1-2.6 8.6 0 2.8-1.5 3.1-2.8 0.7z"/>
			<path id="pUHNAuexk" class="s8" d="m334.4 230.6c-0.3-0.8-0.4-2.4-0.2-3.6 0.3-2.2 0.3-2.2 3.1 0.3 1.5 1.5 2.7 3.1 2.7 3.7 0 1.5-5 1.2-5.6-0.4z"/>
			<path id="pWijCuAY3" class="s8" d="m304.3 196c0-2.5 0.2-3.5 0.4-2.2 0.2 1.2 0.2 3.2 0 4.5-0.2 1.2-0.4 0.2-0.4-2.3z"/>
			<path id="p6qW2GWXJ" class="s8" d="m319.7 197.4c-0.4-0.4-0.7-1.7-0.7-2.8 0.1-1.9 0.1-2 1.1-0.3 1.1 1.9 0.8 4.3-0.4 3.1z"/>
			<path id="pARbImmKP" class="s8" d="m317.1 188.7c-0.8-2.3-2.3-4.3-3.7-4.9-2-0.9-2.6-0.7-4.3 1.3-1.1 1.3-2 1.9-2.1 1.3 0-1.9 3.5-4.4 6.2-4.4 2 0 3 0.8 4.3 3.5 0.9 2 1.5 4.3 1.3 5.3-0.3 1.1-0.9 0.3-1.7-2.1z"/>
			<path id="p4y6iLDYP" class="s8" d="m342.2 180.3c1.4-1.3 2.1-1.4 4-0.5 2.2 1.1 2.2 1.2 0.1 0.7-1.2-0.3-2.4-0.1-2.8 0.5-0.3 0.5-1.1 1-1.8 1-0.6 0-0.4-0.7 0.5-1.7z"/>
		</g>
	</g>
	<g id="lMPBNJPJndfeMLM6agKlRU">
		<g>
			<path id="pvhOj4LtK" class="s9" d="m343.8 350.5c-2.9-1.6-3.3-2.9-4.8-14.5-1.3-10.4-1-13.8 0.5-6 2.8 14.5 3.3 16.2 5.1 17.5 2.6 2 4.1 1.8 6.5-0.6 2.1-2.1 2.2-2.8 1.6-17.3-0.4-11.4-1.1-16.8-2.7-21.9-1.2-3.8-2-7.1-1.8-7.3 0.7-0.6 4.6 13 5.7 19.7 0.6 3.7 1.1 11.6 1.1 17.7 0 10.3-0.2 11.2-2.2 12.6-2.8 2-5.5 2-9 0.1z"/>
			<path id="pkX2CxI2d" class="s9" d="m305.1 345.9c-2.2-1.8-2.4-2.8-2.6-11.2l-0.3-9.2 0.7 8.2c0.5 6.2 1.2 8.9 2.9 11.2 2.6 3.6 2.5 3.7-0.7 1z"/>
			<path id="p1EQWGz4ki" class="s9" d="m316.3 340c0-2.5 0.2-3.5 0.4-2.2 0.2 1.2 0.2 3.2 0 4.5-0.2 1.2-0.4 0.2-0.4-2.3z"/>
			<path id="pxSWfiv0q" class="s9" d="m336.2 316c0-1.9 0.2-2.7 0.5-1.7 0.2 0.9 0.2 2.5 0 3.5-0.3 0.9-0.5 0.1-0.5-1.8z"/>
			<path id="poAZAtkHG" class="s9" d="m185.1 291.5c-4-4.6-3.9-7.2 0.6-11.9 3.1-3.2 4.1-3.7 6.7-3.2 7.4 1.4 10.2 10.8 4.8 15.9-4.1 3.9-8.2 3.6-12.1-0.8z"/>
			<path id="p8D7nNltF" class="s9" d="m315 267.1c-1.4-8.2-0.8-14.8 1.5-18.9 0.9-1.5 1.4-1.8 1-0.7-2 6.2-2.4 12.2-1.4 18.1 0.6 3.5 0.9 6.9 0.6 7.6-0.2 0.7-1-2-1.7-6.1z"/>
			<path id="pXDKtcl1Q" class="s9" d="m329.1 251.4c-0.1-3.8-0.4-4.2-4-5.9-2.2-1-4.7-1.5-5.6-1.1-1.2 0.4-1.4 0.2-0.7-1.1 0.6-0.9 0.7-4.3 0.4-7.5-0.5-5.8-0.5-5.9 3.7-9.8 2.3-2.2 5.2-4 6.4-4 2.6 0 10.7 7.7 10.7 10.3 0 3.1-4.4 1.8-4.8-1.4-0.3-2.2-1-2.8-3.5-3.2-7.1-1.1-11.6 8.4-6.2 13.1 2.9 2.5 7.5 3 7.5 0.7 0-0.8 0.3-1.5 0.8-1.5 0.4 0 1.2-1 1.7-2.2 1.1-2.5 4.2-3.5 5.7-2 0.7 0.7-0.1 2.4-2.6 5.3-2 2.3-3.6 4.6-3.6 5 0 0.4-1 0.9-2.2 1.1-1.8 0.2-2.4 1.1-2.9 4.3l-0.6 4z"/>
			<path id="peRFdaPaZ" class="s9" d="m186.8 240.8c-2.5-2.1-4.8-6.1-4.8-8.4 0-2.8 4.5-8.3 7.8-9.5 2.1-0.8 3-0.5 5.4 1.8 1.7 1.5 3.6 4.1 4.5 5.6 1.3 2.6 1.3 3.2-0.2 6.3-0.9 1.8-2.4 3.8-3.5 4.4-2.6 1.4-7.3 1.3-9.2-0.2z"/>
		</g>
	</g>
	<g id="l2g8Zh6m7FWQmEm50FURjnF">
		<g>
			<path id="pPhQKzKlZ" class="s10" d="m178 395c-23.6-3.6-40-12.2-57.1-29.8-18.9-19.6-31.9-44-36.3-68.2-1.9-10.5-3.6-28.2-3.6-37.6 0-19.6 6.3-45.7 15.8-65.5 14.9-31.3 40.8-53.2 73.1-61.9 7.2-2 9.9-2.2 25.8-1.8 16 0.4 18.6 0.7 26 3.1 13.9 4.6 22 11.5 18.9 16.2-2 3-4 2.9-8.6-0.4-8.9-6.5-22.2-10-37.6-10.1-17.8 0-26.3 2-43.7 10.6-21.6 10.7-42.5 36.7-51.6 64.3-9.2 28-10.8 60.3-4.1 85.1 3.1 11.7 4.8 16.6 9 25.7 7.1 15.2 14.6 25.4 27 36.9 15.3 14.1 30.3 21.6 49.5 24.5 7.3 1.2 23.9 0.6 29.1-1 1.6-0.5 5.6-1.7 8.9-2.7 5.9-1.7 10.9-4.2 15.4-7.6 1.3-1 3.1-1.8 4.1-1.8 2.6 0 5.3 3.5 4.5 5.9-1.5 4.8-14.2 11.8-26 14.4-20 4.4-21.1 4.4-38.5 1.7z"/>
			<path id="pkbOJl8oz" class="s10" d="m323 395c-11.6-0.9-24.4-4.6-32.5-9.5-9.7-5.8-11.9-9.9-7-13.1 2.4-1.6 2.7-1.5 5.8 0.8 4.9 3.8 12.5 7.4 19.2 9.1 13.3 3.3 15.9 3.7 25.8 3.7 29.7 0 57.4-16.2 76.2-44.5 5.8-8.7 13.6-25 15.4-32.2 0.6-2.1 1.7-6.5 2.5-9.8 3.1-11.7 4.8-26.1 3.5-28.9-0.9-1.8-0.9-2.9-0.1-3.9 1.3-1.5 1.5-18.2 0.2-24.7-2.5-13.6-4.3-21.7-5-23.5-0.5-1.1-1.6-4.5-2.6-7.5-6.2-18.6-21.9-41.3-36.2-52.3-20.4-15.7-39.9-21.5-62.8-18.7-5.7 0.7-10.7 1.7-11 2.2-0.3 0.4-1.5 0.8-2.7 0.8-3.2 0-16.4 7-21.2 11.2-5.8 5.1-9.7 5-11-0.2-1-4.1 3.9-8.8 15.1-14.4 12.5-6.3 12.2-6.2 22.4-8.2 12.7-2.5 33.7-1.5 44.5 2 18.5 6 32.1 15.1 46.3 31 10.2 11.4 22.1 32.1 26.7 46.6 1.5 4.7 3.1 9.5 3.6 10.8 0.5 1.3 0.9 3.4 0.9 4.7 0 1.3 0.4 3.4 1 4.7 1.9 4.6 2.9 25.1 2 41.8-1.3 23.6-6 41-16.5 61.6-6.6 13-13.8 22.5-25 33.3-22.5 21.6-45.4 29.6-77.5 27.1z"/>
			<path id="p14610RyC4" class="s10" d="m390.2 327.8c-2.4-2.4-1-5.5 6.4-14.3 8.7-10.4 14.4-19.6 16.9-27.5 3.8-12.1 4-12.3 6.8-13.3 4.3-1.4 5 0 3.6 7.9-1.9 11.3-10.3 27.2-21.3 40.2-6.9 8.2-9.6 9.8-12.4 7z"/>
			<path id="pBTDtfsXT" class="s10" d="m122.9 322.3c-7.7-8.1-12.8-14.8-15.9-21.1-3.3-6.6-7.8-19.7-8.2-24-0.3-2.5 0-2.7 3.6-3 2.2-0.2 4.5-1 5-1.7 0.9-1.1 2.5-1.1 10.1 0 5 0.8 11.7 1.4 15 1.5 6.5 0 8.5 1.1 8.5 4.7 0 3.6-2.8 4.3-15.6 3.6l-11.9-0.6-3.3-3.5c-3.9-4.1-4.9-3.8-2.8 0.9 0.8 1.9 2.4 6.2 3.7 9.7 2.9 8.4 8.7 17.2 16.6 25.4 5.2 5.5 6.4 7.3 6.1 9.5-0.2 2.3-0.9 2.9-3.3 3.1-2.5 0.2-3.8-0.6-7.6-4.5z"/>
			<path id="p18UDKuVYF" class="s10" d="m380.8 281.3c-4.7-5.2-1.2-7.3 12.1-7.3 5.6 0 10.3-0.4 10.6-1 0.3-0.5 2.4-1 4.6-1 2.7 0 3.9-0.4 3.9-1.4 0-2.5 1.8-2.8 3.1-0.5 0.9 1.7 0.7 2.9-0.7 5.9-1.1 2.1-2.7 4.3-3.6 4.9-1 0.6-7.8 1.4-15 1.7-12.4 0.6-13.4 0.5-15-1.3z"/>
			<path id="ptdhIf1F5" class="s10" d="m224.6 278c-4.1-0.8-5.7-2.4-4.9-4.9 1.4-3.8 2.4-4.1 14.9-4.1 11.3 0 12.4 0.2 13.4 2 0.7 1.4 0.8 2.6 0 3.9-1 1.9-1.9 2.1-16 3.6-1.9 0.2-5.2 0-7.4-0.5z"/>
			<path id="pWXn3VscJ" class="s10" d="m277 276.7c-2.7-1.3-3.8-5.3-2.1-7 1.4-1.4 25.1-1 26.9 0.5 2 1.7 1 5.1-1.8 6.5-1.5 0.7-6.2 1.3-11.5 1.3-5.3 0-10-0.6-11.5-1.3z"/>
			<path id="pbGPJEGwk" class="s10" d="m108.7 255.6c-1.2-1.8-3-2.8-5.7-3.2-3.5-0.6-4-1-4-3.3 0-5.9 8.2-23.5 15.3-33.1 7.8-10.5 15-18 17.2-18 5.4 0 5.8 4.9 0.9 10.5-12.8 14.6-21.3 27.7-22.9 35.5-0.4 1.9-1.2 4.2-1.8 5.2-1.7 2.7-0.2 3.2 3 1 4.5-3.2 23.4-4.6 29.1-2.3 3.4 1.4 4.4 4.9 2 6.9-0.7 0.5-6.5 1.2-12.8 1.6-6.3 0.3-13.1 0.8-15.1 1.1-3.1 0.6-3.8 0.3-5.2-1.9z"/>
			<path id="p1B5SWcyIp" class="s10" d="m235 257c-0.8-0.6-2.8-1-4.5-0.9-8.8 0.3-11.4-0.1-12-2.1-0.3-1-0.1-2.8 0.5-4 1-1.8 2-2 12.8-2 9 0 12.3 0.4 14 1.6 2.4 1.7 2.9 5.3 1 7.2-1.4 1.4-9.7 1.6-11.8 0.2z"/>
			<path id="pG6rZ9jry" class="s10" d="m405.7 256.9c-1.1-0.6-6.9-1.1-13-1.1-12.8-0.1-15-0.7-14.5-4.6 0.6-5.1 7.7-6.3 23.5-4.1 9 1.3 12.3 3 12.3 6.2 0 4.3-4.1 6-8.3 3.6z"/>
			<path id="pfYqBRJer" class="s10" d="m284.3 256.3c-10.8-0.4-13-1.4-11.8-5.3 1.1-3.5 3.7-4 16.5-3.3 11 0.6 12.3 0.8 13.6 2.8 2.5 3.8-0.4 6.8-6.1 6.3-1.1-0.1-6.6-0.4-12.2-0.5z"/>
			<path id="pggjYnwWq" class="s10" d="m415.6 249.8c-0.2-0.7-0.9-3.3-1.6-5.8-3-11.1-9.7-21.5-23.9-37-2.2-2.5-4.1-4.8-4.1-5.1 0-1.2 2.6-3.7 4.6-4.3 2.4-0.7 4.7 1.2 10.9 8.9 2.2 2.7 4.8 5.7 5.8 6.8 6.3 6.4 15.5 24.8 16.4 32.9l0.6 4.8h-4.2c-2.5 0-4.3-0.5-4.5-1.2z"/>
			<path id="pOoQGTlxh" class="s10" d="m325.5 245.4c-5.1-2.6-5.8-3.8-5.7-10.1 0-5.3 0.3-6 3.6-9 4.3-3.9 6.8-4.1 11.1-0.9 3.6 2.8 8.4 11.8 6.6 12.4-0.6 0.2-2.5 2.4-4.2 4.8-3.3 4.9-6.1 5.6-11.4 2.8z"/>
		</g>
	</g>
	<g id="l5qf5kPqRAo0uTTZIe4IqRC">
		<g>
			<path id="pC1V2V8FJ" class="s11" d="m185 395c-11.5-0.9-16.8-2.1-28-6.3-10.8-4-23.7-12.5-33.2-21.8-7.2-7.1-16.8-18-16.8-19.2 0-0.3-1.6-2.9-3.6-5.8-8-11.9-16.2-32.8-18.2-46.1-1.3-8.4 0.1-7.1 2.2 2 2.3 10.1 5.2 19.7 7 23 0.8 1.5 2.7 5.6 4.3 9.2 1.5 3.6 4.3 8.4 6 10.8 1.8 2.3 3.3 4.6 3.3 5.2 0 0.5 1 2 2.2 3.4 1.3 1.3 4.2 4.9 6.5 7.8 8 10.1 17.3 18 28.3 23.9 11.1 6 15.2 7.5 29.2 10.9 7.4 1.8 10.6 2 21 1.6 12.9-0.6 16.8-1.3 23.2-4 2.1-0.9 4.9-1.6 6.2-1.6 1.2 0 2.6-0.4 2.9-1 0.3-0.5 0.1-1-0.4-1-0.6 0-1.1-0.5-1.1-1.1 0-0.7 1.2-0.9 3.3-0.5 2.8 0.5 3.9 0.1 7.2-2.9 2.9-2.5 3.7-3.7 2.8-4.6-1.1-1.1-6.3 1-9.1 3.7-0.7 0.8-2 1.4-2.8 1.4-0.8 0-2.5 0.6-3.7 1.4-8 5.1-36.4 7.4-49.9 4-13.3-3.2-29.4-11.1-36-17.6-1-1-2.2-1.8-2.8-1.8-1.7 0-16.6-15.4-22.1-23-8.8-11.9-16.1-27.5-19.1-40.5-7.6-32.6-7-60.1 1.8-87.5 4.2-12.9 7-19 13.5-29 2.7-4.2 4.9-8 4.9-8.4 0-2.1 14.5-18.4 15.5-17.5 0.3 0.3-1.9 3.2-4.8 6.5-19.6 21.9-30.5 48.4-34.1 82.8-0.9 9.3-1.1 15.9-0.6 20 0.5 3.3 1.4 10.2 2 15.1 2.1 18.2 9.9 39 20.5 55.1 9.3 13.9 27.6 30.2 42.5 37.9 11.9 6.1 32 9.5 45.7 7.6 14.3-2 31.3-8 33.8-12.1 0.8-1.4 4.8-1.3 6.3 0.2 4.6 4.6-5.5 12.2-22.8 17.1-9.9 2.8-19.8 3.6-33 2.7z"/>
			<path id="p1CQGxAZVZ" class="s11" d="m320 394.3c-1.4-0.2-6.3-1.3-11-2.5-18.1-4.4-32.1-15-25-18.8 1.7-0.9 3.1-0.5 8.2 3 8.6 5.7 23.9 9.9 38.9 10.7 11.1 0.6 22.3-1.3 33.5-5.6 8.1-3.1 22.2-12.1 28.9-18.2 2.5-2.3 4.5-3.7 4.5-3.2 0 1.5-7 7.7-14 12.4-17.8 11.9-30.6 16.2-49.5 16.3-15.8 0.1-33.7-4.5-42.8-11-4.7-3.4-7.7-4-8.4-1.8-1 2.9 12.5 11.2 23.2 14.4 8.1 2.4 30.2 3.6 40.6 2.3 13.4-1.7 27.9-7.3 39.3-15.3 5.8-4.1 7.2-4.8 6.1-3-0.9 1.4-14.2 10.2-18 11.9-15.6 7-25.3 9.1-40.7 9-6.2-0.1-12.4-0.4-13.8-0.6z"/>
			<path id="pXg45XqnJ" class="s11" d="m395 371.8c0-1.1 7.9-9.3 8-8.3 0 0.6-1.8 2.9-4 5-2.2 2.1-4 3.6-4 3.3z"/>
			<path id="pW7I8HrJy" class="s11" d="m402 354.5c0-0.3 2.3-3.3 5.1-6.7 12.9-15.9 23.4-44 25.8-69.3l0.8-8 0.2 7.8c0.1 7.1-1.1 14.4-4.1 25.2-0.6 2.2-1.3 5.1-1.5 6.4-0.2 1.3-1.1 3.7-1.8 5.2-0.8 1.5-2.2 4.9-3.1 7.6-2.1 6.3-9.5 19.1-14.7 25.8-3.7 4.7-6.7 7.4-6.7 6z"/>
			<path id="p1CtBJduhD" class="s11" d="m413 352.2c0-0.7 1.1-2.8 2.5-4.6 1.4-1.8 2.5-3.6 2.5-4 0-0.3 1.8-3.5 4-7 2.2-3.5 4-6.6 4-7 0-0.3 0.9-2.5 1.9-4.9 8.1-17.9 14.1-50.5 12.8-70-0.8-10.8-3.2-26.3-5.2-32.7-5.3-16.9-8.9-25.6-13.2-32.1-2.6-4-6-9.4-7.4-12.1-1.5-2.6-3.9-6.4-5.5-8.5-4.3-5.7-17.2-18.1-19.6-18.9-1.2-0.3-2.6-1-3.2-1.5-5.2-4.2-7.9-5.9-13.1-8.4-7.5-3.6-8.5-3.9-16.5-5.9-8-2-35.4-2.5-38.7-0.7-1.2 0.6-3.5 1.1-5.2 1.1-1.6 0-3.3 0.4-3.6 1-0.3 0.6-1.4 1-2.3 1-1 0-3.4 0.9-5.5 2-2 1.1-4.2 2-4.8 2-1.9 0-12.8 8-12.5 9.3 0.1 0.6 0.1 0.9-0.1 0.4-0.8-1.2-2.3 0.3-2.3 2.3 0 3.6 2.1 3.1 7.9-1.9 5.7-5 14.1-8.9 26.9-12.6 11.1-3.3 39.6-0.5 50 4.9 1.7 0.9 3.7 1.6 4.5 1.6 0.8 0 2.2 0.9 3.2 2 1 1.1 2.4 2 3.2 2 0.7 0 1.3 0.5 1.3 1.1 0 0.7-0.9 0.5-2.2-0.5-3.2-2.2-9.2-4.9-17.3-7.7-6.3-2.2-8.6-2.4-23.5-2.4-18.4 0.1-23.4 1-34.5 6.6-3.6 1.9-8.7 5.1-11.2 7.1-5.2 4.3-8.8 4.9-9.6 1.6-1.4-5 3.7-9.9 16.9-16.2 12.4-6 28.7-9.3 40.3-8.2 4.2 0.4 9.8 1 12.5 1.2 9.4 0.9 26.4 8.1 38.4 16.2 7.8 5.4 19.9 17.7 26 26.5 32 46.2 36.2 109 10.8 158.1-5.7 11-12.6 21.8-12.6 19.8z"/>
			<path id="pekNhzJYZ" class="s11" d="m390.7 327.2c-1-1-1.7-2.3-1.7-2.8 0-0.5 2.8-4 6.1-7.9 11.3-12.9 18.5-25.1 20.9-35.2 1.2-5.5 2.1-6.6 5.8-7.8 2.3-0.7 2.4-0.6 1.6 5.2-0.4 3.2-1.3 7.6-2.1 9.8-1.9 5.4-11.7 22.8-15 26.7-5.7 6.6-12.6 13.8-13.3 13.8-0.4 0-1.4-0.8-2.3-1.8zm10.8-9.8c6.1-6.3 8.4-9.7 13.4-19.7 3.4-6.7 6.1-13.4 6.1-14.9 0-1.5 0.4-3.8 1-5.2 0.8-2.2 0.7-2.6-0.9-2.6-1.4 0-2.2 1.2-3.1 4.8-1.8 6.9-5 15.5-6.4 17.2-0.6 0.8-2.2 3.5-3.6 6-1.3 2.5-4.1 6.2-6.2 8.3-2.1 2.1-3.8 4.1-3.8 4.6 0 0.4-1.3 2.2-3 3.9-3.1 3.3-3.8 5.2-2 5.2 0.6 0 4.4-3.4 8.5-7.6z"/>
			<path id="puROtISG0" class="s11" d="m123.5 321.6c-8.3-8.7-12-13.6-15.3-20.1-3.5-6.8-6.7-15.5-7.5-20-0.3-1.6-0.9-3.8-1.2-4.7-0.4-1-0.3-1.8 0.3-1.8 0.5 0 1.8 3.3 2.8 7.3 0.9 3.9 2 7.9 2.4 8.7 5.6 12.4 12.8 22.8 21.3 30.9 3.1 2.9 3.7 3.2 4.3 1.7 0.4-1.2-1.2-3.5-5.7-8.1-6.3-6.4-15.9-21.3-15.9-24.7 0-0.9-0.4-2-1-2.3-0.5-0.3-1-2-1-3.6 0-3.9-1.6-6.9-3.7-6.9-1.4 0-1.5-0.2-0.4-1.2 1.6-1.7 3.5 0.8 5.7 7.6 3.7 11.8 8.8 20.2 18.1 29.7 5.4 5.5 6.4 7.1 6.1 9.5-0.5 4.8-3.4 4.2-9.3-2z"/>
			<path id="pyPFkqlbj" class="s11" d="m83.5 286.5c-1.3-4.5-1.2-46.2 0.2-51 0.6-2.2 2.6-9.4 4.4-16 5.8-21.2 16.2-40.8 29.6-55.4 14-15.4 35.9-27.9 57-32.5 8.5-1.9 28.1-2.1 35-0.5 12.9 3.1 19.5 5.5 24.3 8.8 6.5 4.3 7.9 6.4 6.4 8.9-1.8 2.7-3.7 2.5-9.1-1.1-2.8-1.9-9-4.7-13.9-6.3-8.3-2.7-9.9-2.9-24.4-2.9-16.9 0.1-23.3 1.4-36.8 7.6-3.5 1.6-6.7 2.9-7.1 2.9-0.5 0-1.4 0.7-2.1 1.5-1.3 1.6-3 2-3 0.7 0-2.6 29.2-14.3 33.5-13.4 1.4 0.2 3.2-0.1 4-0.8 1-0.8 4.9-1.2 11.9-1.1 14.7 0.3 32.8 5.3 41.1 11.5 2.4 1.8 4.9 0.7 3.9-1.8-0.9-2.5-7.9-6.2-18-9.7-7.7-2.6-10.8-3.1-22.4-3.5-17-0.7-28 1-38.6 5.8-2.7 1.2-5.7 2.3-6.7 2.4-1 0.1-3.1 1-4.5 2.1-1.5 1.1-5.8 3.7-9.7 5.8-12.6 6.9-29.8 25.9-36.7 40.5-6.6 13.9-8.1 17.5-8.8 20.4-0.5 1.7-2.2 7.6-4 13.1-4.4 14-6.8 39-4.9 51 0.6 3.2 0.8 8.2 0.7 11-0.3 4.7-0.4 4.8-1.3 2z"/>
			<path id="p1Bnqv6jCd" class="s11" d="m126.5 281.9c-12.6-1.1-15.2-1.7-15.9-3.7-0.3-0.9-1.1-2.5-1.8-3.4-1.8-2.5-0.8-2.9 5.8-1.8 3.2 0.6 9.5 1 13.9 1 8.3 0 12.5 1.5 12.5 4.5 0 1.3-3.8 4.7-5 4.4-0.3-0.1-4.5-0.5-9.5-1zm11.3-3.7c0.2-0.7-0.7-1.2-2.2-1.2-2.6 0-4.1 1.4-3.1 3 0.7 1.1 4.7-0.2 5.3-1.8zm-7.1 0.3c0.8-2.2-0.2-2.8-2.5-1.6-1.1 0.6-2.3 0.6-2.8 0.1-0.5-0.5-4.2-1.1-8.3-1.4-6.8-0.5-7.3-0.4-5.9 1 0.9 0.9 4 1.9 6.9 2.4 8.9 1.3 11.9 1.1 12.6-0.5z"/>
			<path id="pUy8710jF" class="s11" d="m381.3 280.9c-3.6-3.7-0.3-6.3 7.7-6.1 2.5 0.1 9.2-0.4 15-1.2 5.8-0.7 10.6-1.2 10.8-1.1 0.6 0.5-2.7 6.1-4.4 7.6-2.4 2-27.3 2.6-29.1 0.8zm29.1-2.8c2.2-1.8 1.3-2.7-2.6-2.4-25.8 1.5-27.1 1.7-25 3.7 1.3 1.4 25.8 0.2 27.6-1.3z"/>
			<path id="pJfL6R40x" class="s11" d="m225.5 277c-3.3-0.4-4.1-0.9-4.3-2.9-0.2-1.3 0.1-2.8 0.7-3.4 1.4-1.4 23.1-1.7 24.9-0.4 2 1.5 1.4 4.7-1 5.6-2.9 1.1-15.1 1.8-20.3 1.1zm16.5-2.3c3.5-0.2 5-2.5 2.3-3.4-0.7-0.3-1.3 0.3-1.3 1.2 0 0.9-0.4 1.4-0.9 1.1-0.5-0.4-5.2-0.9-10.5-1.2-8.1-0.4-9.6-0.3-9.6 1 0 1.7 5.6 2.5 12.5 1.8 2.2-0.2 5.6-0.5 7.5-0.5z"/>
			<path id="pdiGBEvdh" class="s11" d="m277.2 276.3c-2.5-1-3.3-4.1-1.6-5.8 2.6-2.5 23.7-1.9 26.2 0.8 1.6 1.8 1.6 2-0.7 3.8-2 1.6-3.9 1.9-12.5 1.8-5.5 0-10.7-0.3-11.4-0.6zm23.2-2.4c1.7-1.6-3.8-2.5-13.9-2.5-8.2 0.1-10 0.4-10 1.6 0 2.4 21.4 3.3 23.9 0.9z"/>
			<path id="pSpU89n8A" class="s11" d="m434.3 261.5c0-2.7 0.2-3.8 0.4-2.2 0.2 1.5 0.2 3.7 0 5-0.2 1.2-0.4 0-0.4-2.8z"/>
			<path id="p2Mr81OtH" class="s11" d="m109.7 256.4c-1.5-1.5-0.6-4.2 1.8-5.8 1.4-0.9 6.4-2 11.7-2.6 14-1.4 19.9 0.1 18.4 4.8-0.6 1.7-2 2-11.9 2.6-6.2 0.3-13 0.9-15.2 1.2-2.2 0.3-4.3 0.2-4.8-0.2zm5-4.1c-0.3-0.3-1.1-0.2-1.7 0.2-0.9 0.6-0.9 1 0.1 1.6 1.4 0.8 2.7-0.7 1.6-1.8zm22.1 0.1c2.3-0.3 4.2-1 4.2-1.5 0-0.7-3.7-0.9-9.7-0.8-10.7 0.3-14.5 0.9-15 2.6-0.4 1.1 10.3 0.9 20.5-0.3z"/>
			<path id="pW5DmyVAJ" class="s11" d="m227.5 256.1c-7-0.5-8-0.8-8.3-2.6-0.5-4.3 0.9-4.7 13.4-4.6 10.4 0.2 12.2 0.4 13.9 2.2 1.5 1.5 1.7 2.3 0.9 3.7-1.2 1.9-6.5 2.3-19.9 1.3zm17.5-2.5c0-1.8-5.1-2.5-16.4-2.3-5.2 0.1-8.1 0.6-8.3 1.4-0.3 0.9 2.4 1.3 10.4 1.6 5.9 0.1 11.6 0.4 12.6 0.5 0.9 0.1 1.7-0.4 1.7-1.2z"/>
			<path id="p1Fp3ff4TX" class="s11" d="m401.5 255.5c-3.3-0.7-9.1-1.1-12.8-0.9-7 0.4-10.7-0.6-10.7-3.1 0-4.3 10.2-5.7 25.3-3.4 7.1 1.1 9.7 2.2 9.7 4.1q0 1.1-1.2 0c-0.7-0.5-2.6-1.3-4.3-1.6-5.1-1.1-22.9-1.4-25.3-0.5-4.3 1.6-1.1 2.9 7.2 2.9 12.1 0 20.4 1 21 2.6 0.6 1.7-0.9 1.7-8.9-0.1z"/>
			<path id="p5DY2GXnP" class="s11" d="m273.8 254.2c-0.8-0.9-0.8-2 0.1-3.8l1.1-2.6 12.8 0.7c7 0.4 13.3 1.2 14 1.7 0.7 0.6 1.2 2.1 1 3.2-0.3 2-0.9 2.1-14.1 2.1-10 0-14.2-0.4-14.9-1.3zm27.2-1.2c0-0.5-0.8-1-1.7-1.1-1 0-2.9-0.3-4.3-0.5-1.4-0.3-6.3-0.6-10.9-0.7-6.4-0.2-8.5 0.1-8.9 1.2-0.3 1.1 0.2 1.3 2.4 0.9 1.6-0.3 5.4-0.2 8.4 0.2 8.5 1.1 15 1.1 15 0z"/>
			<path id="p1HUCf7ORG" class="s11" d="m104.8 251.5c-0.3-0.4 0-1.8 0.8-3.3 0.8-1.5 1.4-3.7 1.4-5 0-3.4 8.3-18.7 12.6-23.3 1.3-1.4 2.4-3 2.4-3.5 0-0.6 2.7-3.6 6-6.9 6.3-6 6.9-7.8 3.2-8.3-3-0.5-2.8-2.2 0.3-2.2 1.4 0 2.9 0.8 3.5 2 1 1.8 0.2 3.1-5.7 10-12.3 14.2-16.7 21.1-20.3 32-2.5 7.6-3.4 9.3-4.2 8.5z"/>
			<path id="pZbi3KcjX" class="s11" d="m100.3 246.5c0.7-5.1 6.7-18.1 12.1-26.5 4-6.1 13.7-17.9 14.9-17.9 2-0.2 0.2 2.7-4.3 7.1-2.7 2.6-5 5.1-5 5.5 0 0.3-1.1 2-2.3 3.7-2.2 2.9-8.9 15.4-10.7 20.1-2.7 6.8-3.2 8.7-2.7 10.5 0.3 1.4 0 2-1 2-1.3 0-1.5-0.8-1-4.5z"/>
			<path id="p23VRjQPR" class="s11" d="m419.3 250.2c-2.6-0.3-3.4-0.9-3.8-3-1.4-6.8-3.3-11.3-7.8-19-2.7-4.6-4.7-8.6-4.4-8.8 1-1 11.5 17.3 13.2 22.9 1 3.2 2.2 6 2.7 6.3 5.1 3.2-1.4-16-9.1-27.1-7.3-10.4-17.2-21.5-19.2-21.5-2.3 0-0.5 3.7 4.6 9.2 3 3.2 5.5 6.5 5.5 7.1 0 1.2-13.9-13.2-14-14.5 0-1.1 3.1-3.8 4.4-3.8 2.4 0 14.7 14.3 21.9 25.2 5.4 8.2 11.9 26.2 9.8 27.1-0.3 0.1-2.1 0.1-3.8-0.1z"/>
			<path id="pciT9DZaz" class="s11" d="m433.7 250.3c-0.4-0.3-0.7-2.5-0.7-4.7 0-10.9-6.6-34-14-49.1-6.1-12.5-9.7-17.6-21.5-30.5-3.3-3.6-4.9-5.6-3.5-4.5 9.1 7.4 21.9 23.9 25.9 33.5 1.3 3 2.9 6.4 3.6 7.5 3.7 5.7 10.2 30.8 10.7 41.3 0.2 3.9 0.3 7.2 0.2 7.2 0 0-0.4-0.3-0.7-0.7z"/>
			<path id="p17YrGjw8u" class="s11" d="m319.7 238.1c-0.2-1.1-0.1-3.5 0.3-5.3 0.7-3 0.8-2.8 0.9 2 0.1 5.4-0.3 6.6-1.2 3.3z"/>
			<path id="pJMAtICJv" class="s11" d="m338.6 234.9c-1-5-0.6-5.7 0.9-2 1.7 3.8 1.9 5.1 0.6 5.1-0.5 0-1.1-1.4-1.5-3.1z"/>
			<path id="pvcp8BCI3" class="s11" d="m325.4 224.6c2.1-1.7 6.1-2.1 6.9-0.8 0.3 0.4-0.5 0.7-1.6 0.7-1.2 0.1-3.3 0.4-4.7 0.9-2.4 0.7-2.4 0.6-0.6-0.8z"/>
			<path id="p43Gq5wXp" class="s11" d="m138.4 155.1c1.1-1.1 2.3-2.1 2.8-2.1 1.4 0-0.1 1.9-2.5 3.1-2.2 1.2-2.2 1.2-0.3-1z"/>
		</g>
	</g>
</svg>